M48
;DRILL file {KiCad 4.0.6} date 06/06/17 21:35:11
;FORMAT={-:-/ absolute / inch / decimal}
FMAT,2
INCH,TZ
T1C0.016
T2C0.028
T3C0.039
T4C0.040
T5C0.043
T6C0.059
%
G90
G05
M72
T1
X-7.2835Y5.2461
X-7.126Y4.5965
X-6.1713Y4.5079
X-6.063Y4.5965
X-4.5965Y2.4114
X-4.2126Y5.374
X-3.7303Y5.374
X-1.0827Y3.0807
X-0.889Y5.2461
X-0.139Y5.2756
X0.6102Y5.3642
X1.2008Y4.6161
X1.5748Y3.8386
X1.6142Y3.9272
X2.0079Y3.6713
X2.126Y4.9606
X2.1358Y4.6752
X2.4016Y4.0945
X2.4803Y3.9272
X2.7461Y5.4134
X2.8051Y4.4685
X2.9626Y2.9921
X3.5335Y5.4134
X3.6319Y4.5079
X3.7008Y5.4134
X4.0551Y5.3543
T2
X-7.8053Y4.7539
X-7.4982Y4.7539
X-7.3425Y5.9016
X-7.3425Y5.5945
X-7.1555Y4.3661
X-7.1555Y4.0591
X-7.1161Y2.122
X-7.1161Y1.815
X-7.0827Y3.1496
X-7.063Y4.7539
X-7.0335Y6.0039
X-7.0177Y3.626
X-7.0177Y3.3189
X-6.7756Y3.1496
X-6.7559Y4.7539
X-6.7264Y6.0039
X-6.3931Y2.872
X-6.3931Y2.565
X-6.2795Y2.122
X-6.2795Y1.815
X-6.2205Y4.3661
X-6.2205Y4.0591
X-6.0335Y3.628
X-6.0335Y3.3209
X-5.8366Y5.1142
X-5.8366Y4.8071
X-5.8268Y5.8228
X-5.8268Y5.5157
X-5.6496Y2.8829
X-5.6496Y2.5758
X-5.4626Y4.3661
X-5.4626Y4.0591
X-5.3445Y2.122
X-5.3445Y1.815
X-5.2756Y3.628
X-5.2756Y3.3209
X-5.0886Y5.8228
X-5.0886Y5.5157
X-5.0886Y5.1142
X-5.0886Y4.8071
X-4.9606Y5.8228
X-4.9606Y5.5157
X-4.9016Y2.8829
X-4.9016Y2.5758
X-4.7933Y2.122
X-4.7933Y1.815
X-4.7146Y4.3661
X-4.7146Y4.0591
X-4.5276Y3.628
X-4.5276Y3.3209
X-4.3307Y5.1142
X-4.3307Y4.8071
X-4.1535Y2.8829
X-4.1535Y2.5758
X-4.0059Y2.8829
X-4.0059Y2.5758
X-3.9665Y4.3661
X-3.9665Y4.0591
X-3.8386Y4.3661
X-3.8386Y4.0591
X-3.7795Y3.628
X-3.7795Y3.3209
X-3.6713Y2.122
X-3.6713Y1.815
X-3.6516Y3.626
X-3.6516Y3.3189
X-3.5925Y5.8228
X-3.5925Y5.5157
X-3.5827Y5.1142
X-3.5827Y4.8071
X-3.4646Y5.8228
X-3.4646Y5.5157
X-3.4646Y5.1142
X-3.4646Y4.8071
X-3.2579Y2.8996
X-3.2579Y2.5925
X-1.752Y2.8602
X-1.752Y2.5531
X-1.5748Y4.376
X-1.5748Y4.0689
X-1.378Y3.6358
X-1.378Y3.3287
X-1.2106Y5.1161
X-1.2106Y4.8091
X-1.1811Y5.81
X-1.1811Y5.503
X-1.063Y5.81
X-1.063Y5.503
X-1.0039Y2.8839
X-1.0039Y2.5768
X-0.8268Y4.376
X-0.8268Y4.0689
X-0.6299Y3.6378
X-0.6299Y3.3307
X-0.4528Y5.124
X-0.4528Y4.8169
X-0.3445Y2.122
X-0.3445Y1.815
X-0.2559Y2.8839
X-0.2559Y2.5768
X-0.0787Y4.376
X-0.0787Y4.0689
X0.1181Y3.6378
X0.1181Y3.3307
X0.2953Y5.1142
X0.2953Y4.8071
X0.3346Y5.813
X0.3346Y5.5059
X0.4921Y2.8839
X0.4921Y2.5768
X0.6693Y4.376
X0.6693Y4.0689
X0.8661Y3.6378
X0.8661Y3.3307
X0.8661Y2.122
X0.8661Y1.815
X1.0039Y2.122
X1.0039Y1.815
X1.0433Y5.1142
X1.0433Y4.8071
X1.063Y5.813
X1.063Y5.5059
X1.2008Y5.813
X1.2008Y5.5059
X1.2402Y2.8839
X1.2402Y2.5768
X1.4173Y4.376
X1.4173Y4.0689
X1.6142Y3.6378
X1.6142Y3.3307
X1.7913Y5.1142
X1.7913Y4.8071
X1.998Y2.8839
X1.998Y2.5768
X2.0413Y4.7736
X2.0925Y6.0335
X2.1654Y4.376
X2.1654Y4.0689
X2.3484Y4.7736
X2.3622Y3.6378
X2.3622Y3.3307
X2.3996Y6.0335
X2.4705Y2.122
X2.4705Y1.815
X2.5Y3.6358
X2.5Y3.3287
X2.7894Y5.3543
X2.9331Y4.376
X2.9331Y4.0689
X3.0315Y2.8839
X3.0315Y2.5768
X3.0965Y5.3543
X3.1693Y4.376
X3.1693Y4.0689
X3.3071Y5.8061
X3.3071Y5.499
X3.3169Y2.122
X3.3169Y1.815
X3.5374Y4.7638
X3.5374Y3.5138
X3.8445Y4.7638
X3.8445Y3.5138
X4.0354Y2.8839
X4.0354Y2.5768
X4.0551Y5.8051
X4.0551Y5.498
X4.0551Y2.122
X4.0551Y1.815
X4.2126Y5.374
X4.2126Y4.6172
X4.2126Y3.8672
X4.2126Y3.1172
X4.2126Y2.3672
X4.2126Y1.752
X4.5197Y5.374
X4.5197Y4.6172
X4.5197Y3.8672
X4.5197Y3.1172
X4.5197Y2.3672
X4.5197Y1.752
T3
X-6.5059Y5.0114
X-6.5059Y4.9114
X-6.5059Y4.8114
X-4.1634Y4.7063
X-4.1634Y4.6063
X-4.1634Y4.5063
X-0.6791Y4.6768
X-0.6791Y4.5768
X-0.6791Y4.4768
T4
X-7.1986Y6.195
X-7.1986Y6.095
X-7.1986Y5.995
X-7.1986Y5.895
X-7.1986Y5.795
X-7.1986Y5.695
X-7.1986Y5.595
X-7.1986Y5.495
X-7.1986Y5.395
X-7.1986Y5.295
X-7.1986Y5.195
X-7.1986Y5.095
X-6.5986Y6.195
X-6.5986Y6.095
X-6.5986Y5.995
X-6.5986Y5.895
X-6.5986Y5.795
X-6.5986Y5.695
X-6.5986Y5.595
X-6.5986Y5.495
X-6.5986Y5.395
X-6.5986Y5.295
X-6.5986Y5.195
X-6.5986Y5.095
X1.95Y6.195
X1.95Y6.095
X1.95Y5.995
X1.95Y5.895
X1.95Y5.795
X1.95Y5.695
X1.95Y5.595
X1.95Y5.495
X1.95Y5.395
X1.95Y5.295
X1.95Y5.195
X1.95Y5.095
X2.55Y6.195
X2.55Y6.095
X2.55Y5.995
X2.55Y5.895
X2.55Y5.795
X2.55Y5.695
X2.55Y5.595
X2.55Y5.495
X2.55Y5.395
X2.55Y5.295
X2.55Y5.195
X2.55Y5.095
T5
X-4.3398Y5.7253
X-4.1348Y5.8473
X-0.443Y5.7253
X-0.238Y5.8473
T5
X-4.4538Y6.0443G85X-4.4658Y6.0443
G05
X-4.0878Y6.0443G85X-4.0998Y6.0443
G05
X-0.557Y6.0443G85X-0.569Y6.0443
G05
X-0.191Y6.0443G85X-0.203Y6.0443
G05
T6
X-7.7699Y5.8443G85X-7.8018Y5.7868
G05
X-7.7699Y5.0943G85X-7.8018Y5.0368
G05
X-7.6761Y3.5943G85X-7.708Y3.5368
G05
X-7.6761Y2.8443G85X-7.708Y2.7868
G05
X-7.6761Y2.0943G85X-7.708Y2.0368
G05
X-7.5824Y4.3443G85X-7.6143Y4.2868
G05
X-7.5824Y2.0943G85X-7.6143Y2.0368
G05
X-7.5518Y5.8868G85X-7.5533Y5.864
G05
X-7.5518Y5.1368G85X-7.5533Y5.114
G05
X-7.4943Y5.8049G85X-7.5518Y5.8368
G05
X-7.4886Y3.5943G85X-7.5205Y3.5368
G05
X-7.4518Y5.5868G85X-7.4746Y5.5884
G05
X-7.458Y3.6368G85X-7.4596Y3.614
G05
X-7.458Y2.8868G85X-7.4596Y2.864
G05
X-7.458Y2.1368G85X-7.4596Y2.114
G05
X-7.3643Y4.3868G85X-7.3658Y4.364
G05
X-7.3643Y2.1368G85X-7.3658Y2.114
G05
X-7.3011Y2.8443G85X-7.333Y2.7868
G05
X-7.2705Y3.6368G85X-7.2721Y3.614
G05
X-7.083Y2.8868G85X-7.0846Y2.864
G05
X-7.0199Y5.8443G85X-7.0518Y5.7868
G05
X-7.0199Y5.0943G85X-7.0518Y5.0368
G05
X-6.8324Y2.8443G85X-6.8643Y2.7868
G05
X-6.8324Y2.0943G85X-6.8643Y2.0368
G05
X-6.8018Y5.8868G85X-6.8033Y5.864
G05
X-6.8018Y5.1368G85X-6.8033Y5.114
G05
X-6.7443Y5.8049G85X-6.8018Y5.8368
G05
X-6.7386Y2.0943G85X-6.7705Y2.0368
G05
X-6.7018Y5.5868G85X-6.7246Y5.5884
G05
X-6.6449Y4.3443G85X-6.6768Y4.2868
G05
X-6.6143Y2.8868G85X-6.6158Y2.864
G05
X-6.6143Y2.1368G85X-6.6158Y2.114
G05
X-6.5205Y2.1368G85X-6.5221Y2.114
G05
X-6.4574Y3.5943G85X-6.4893Y3.5368
G05
X-6.4268Y4.3868G85X-6.4283Y4.364
G05
X-6.2699Y5.8443G85X-6.3018Y5.7868
G05
X-6.2699Y5.0943G85X-6.3018Y5.0368
G05
X-6.2393Y3.6368G85X-6.2408Y3.614
G05
X-6.0824Y2.8443G85X-6.1143Y2.7868
G05
X-6.0518Y5.8868G85X-6.0533Y5.864
G05
X-6.0518Y5.1368G85X-6.0533Y5.114
G05
X-5.9943Y5.8049G85X-6.0518Y5.8368
G05
X-5.9518Y5.5868G85X-5.9746Y5.5884
G05
X-5.8949Y4.3443G85X-5.9268Y4.2868
G05
X-5.8949Y2.0943G85X-5.9268Y2.0368
G05
X-5.8643Y2.8868G85X-5.8658Y2.864
G05
X-5.8011Y2.0943G85X-5.833Y2.0368
G05
X-5.7074Y3.5943G85X-5.7393Y3.5368
G05
X-5.6768Y4.3868G85X-5.6783Y4.364
G05
X-5.6768Y2.1368G85X-5.6783Y2.114
G05
X-5.583Y2.1368G85X-5.5846Y2.114
G05
X-5.5199Y5.8443G85X-5.5518Y5.7868
G05
X-5.5199Y5.0943G85X-5.5518Y5.0368
G05
X-5.4893Y3.6368G85X-5.4908Y3.614
G05
X-5.3324Y2.8443G85X-5.3643Y2.7868
G05
X-5.3018Y5.8868G85X-5.3033Y5.864
G05
X-5.3018Y5.1368G85X-5.3033Y5.114
G05
X-5.2443Y5.8049G85X-5.3018Y5.8368
G05
X-5.2018Y5.5868G85X-5.2246Y5.5884
G05
X-5.1449Y4.3443G85X-5.1768Y4.2868
G05
X-5.1143Y2.8868G85X-5.1158Y2.864
G05
X-4.9574Y3.5943G85X-4.9893Y3.5368
G05
X-4.9268Y4.3868G85X-4.9283Y4.364
G05
X-4.7699Y5.8443G85X-4.8018Y5.7868
G05
X-4.7699Y5.0943G85X-4.8018Y5.0368
G05
X-4.7393Y3.6368G85X-4.7408Y3.614
G05
X-4.5824Y2.8443G85X-4.6143Y2.7868
G05
X-4.5642Y1.7368G85X-4.5627Y1.7596
G05
X-4.5518Y5.8868G85X-4.5533Y5.864
G05
X-4.5518Y5.1368G85X-4.5533Y5.114
G05
X-4.4943Y5.8049G85X-4.5518Y5.8368
G05
X-4.4518Y5.5868G85X-4.4746Y5.5884
G05
X-4.3949Y4.3443G85X-4.4268Y4.2868
G05
X-4.3643Y2.8868G85X-4.3658Y2.864
G05
X-4.3462Y1.7793G85X-4.3142Y1.8368
G05
X-4.2074Y3.5943G85X-4.2393Y3.5368
G05
X-4.1768Y4.3868G85X-4.1783Y4.364
G05
X-4.0199Y5.0943G85X-4.0518Y5.0368
G05
X-4.0199Y5.8443G85X-4.0518Y5.7868
G05
X-3.9893Y3.6368G85X-3.9908Y3.614
G05
X-3.8324Y2.8443G85X-3.8643Y2.7868
G05
X-3.8018Y5.1368G85X-3.8033Y5.114
G05
X-3.8018Y5.8868G85X-3.8033Y5.864
G05
X-3.7443Y5.8049G85X-3.8018Y5.8368
G05
X-3.7018Y5.5868G85X-3.7246Y5.5884
G05
X-3.6449Y4.3443G85X-3.6768Y4.2868
G05
X-3.6143Y2.8868G85X-3.6158Y2.864
G05
X-3.4574Y3.5943G85X-3.4893Y3.5368
G05
X-3.4574Y2.0943G85X-3.4893Y2.0368
G05
X-3.4268Y4.3868G85X-3.4283Y4.364
G05
X-3.2699Y5.8443G85X-3.3018Y5.7868
G05
X-3.2699Y5.0943G85X-3.3018Y5.0368
G05
X-3.2393Y3.6368G85X-3.2408Y3.614
G05
X-3.2393Y2.1368G85X-3.2408Y2.114
G05
X-3.0824Y2.8443G85X-3.1143Y2.7868
G05
X-3.0518Y5.8868G85X-3.0533Y5.864
G05
X-3.0518Y5.1368G85X-3.0533Y5.114
G05
X-2.9943Y5.8049G85X-3.0518Y5.8368
G05
X-2.9518Y5.5868G85X-2.9746Y5.5884
G05
X-2.8643Y2.8868G85X-2.8658Y2.864
G05
X-2.1856Y2.8443G85X-2.2175Y2.7868
G05
X-1.9981Y4.3443G85X-2.03Y4.2868
G05
X-1.9675Y2.8868G85X-1.969Y2.864
G05
X-1.8106Y3.5943G85X-1.8425Y3.5368
G05
X-1.78Y4.3868G85X-1.7815Y4.364
G05
X-1.6231Y5.8443G85X-1.655Y5.7868
G05
X-1.6231Y5.0943G85X-1.655Y5.0368
G05
X-1.5925Y3.6368G85X-1.594Y3.614
G05
X-1.4356Y2.8443G85X-1.4675Y2.7868
G05
X-1.405Y5.8868G85X-1.4065Y5.864
G05
X-1.405Y5.1368G85X-1.4065Y5.114
G05
X-1.3475Y5.8049G85X-1.405Y5.8368
G05
X-1.305Y5.5868G85X-1.3278Y5.5884
G05
X-1.2481Y4.3443G85X-1.28Y4.2868
G05
X-1.2175Y2.8868G85X-1.219Y2.864
G05
X-1.1362Y1.7368G85X-1.1347Y1.7596
G05
X-1.0606Y3.5943G85X-1.0925Y3.5368
G05
X-1.03Y4.3868G85X-1.0315Y4.364
G05
X-0.9181Y1.7793G85X-0.8862Y1.8368
G05
X-0.8731Y5.8443G85X-0.905Y5.7868
G05
X-0.8731Y5.0943G85X-0.905Y5.0368
G05
X-0.8425Y3.6368G85X-0.844Y3.614
G05
X-0.6856Y2.8443G85X-0.7175Y2.7868
G05
X-0.655Y5.8868G85X-0.6565Y5.864
G05
X-0.655Y5.1368G85X-0.6565Y5.114
G05
X-0.5975Y5.8049G85X-0.655Y5.8368
G05
X-0.555Y5.5868G85X-0.5778Y5.5884
G05
X-0.4981Y4.3443G85X-0.53Y4.2868
G05
X-0.4675Y2.8868G85X-0.469Y2.864
G05
X-0.3106Y3.5943G85X-0.3425Y3.5368
G05
X-0.28Y4.3868G85X-0.2815Y4.364
G05
X-0.1231Y5.8443G85X-0.155Y5.7868
G05
X-0.1231Y5.0943G85X-0.155Y5.0368
G05
X-0.0925Y3.6368G85X-0.094Y3.614
G05
X0.0644Y2.8443G85X0.0325Y2.7868
G05
X0.095Y5.8868G85X0.0935Y5.864
G05
X0.095Y5.1368G85X0.0935Y5.114
G05
X0.1525Y5.8049G85X0.095Y5.8368
G05
X0.195Y5.5868G85X0.1722Y5.5884
G05
X0.2519Y4.3443G85X0.22Y4.2868
G05
X0.2825Y2.8868G85X0.281Y2.864
G05
X0.3457Y2.0943G85X0.3137Y2.0368
G05
X0.4394Y3.5943G85X0.4075Y3.5368
G05
X0.4394Y2.0943G85X0.4075Y2.0368
G05
X0.47Y4.3868G85X0.4685Y4.364
G05
X0.5638Y2.1368G85X0.5622Y2.114
G05
X0.6269Y5.8443G85X0.595Y5.7868
G05
X0.6269Y5.0943G85X0.595Y5.0368
G05
X0.6575Y3.6368G85X0.656Y3.614
G05
X0.6575Y2.1368G85X0.656Y2.114
G05
X0.8144Y2.8443G85X0.7825Y2.7868
G05
X0.845Y5.8868G85X0.8435Y5.864
G05
X0.845Y5.1368G85X0.8435Y5.114
G05
X0.9025Y5.8049G85X0.845Y5.8368
G05
X0.945Y5.5868G85X0.9222Y5.5884
G05
X1.0019Y4.3443G85X0.97Y4.2868
G05
X1.0325Y2.8868G85X1.031Y2.864
G05
X1.1894Y3.5943G85X1.1575Y3.5368
G05
X1.1894Y2.0943G85X1.1575Y2.0368
G05
X1.22Y4.3868G85X1.2185Y4.364
G05
X1.3769Y5.8443G85X1.345Y5.7868
G05
X1.3769Y5.0943G85X1.345Y5.0368
G05
X1.4075Y3.6368G85X1.406Y3.614
G05
X1.4075Y2.1368G85X1.406Y2.114
G05
X1.5644Y2.8443G85X1.5325Y2.7868
G05
X1.5644Y2.0943G85X1.5325Y2.0368
G05
X1.595Y5.8868G85X1.5935Y5.864
G05
X1.595Y5.1368G85X1.5935Y5.114
G05
X1.6525Y5.8049G85X1.595Y5.8368
G05
X1.695Y5.5868G85X1.6722Y5.5884
G05
X1.7519Y4.3443G85X1.72Y4.2868
G05
X1.7825Y2.8868G85X1.781Y2.864
G05
X1.7825Y2.1368G85X1.781Y2.114
G05
X1.9394Y3.5943G85X1.9075Y3.5368
G05
X1.9394Y2.0943G85X1.9075Y2.0368
G05
X1.97Y4.3868G85X1.9685Y4.364
G05
X2.0332Y2.0943G85X2.0012Y2.0368
G05
X2.1269Y5.8443G85X2.095Y5.7868
G05
X2.1269Y5.0943G85X2.095Y5.0368
G05
X2.1575Y3.6368G85X2.156Y3.614
G05
X2.1575Y2.1368G85X2.156Y2.114
G05
X2.2513Y2.1368G85X2.2497Y2.114
G05
X2.345Y5.8868G85X2.3435Y5.864
G05
X2.345Y5.1368G85X2.3435Y5.114
G05
X2.4025Y5.8049G85X2.345Y5.8368
G05
X2.445Y5.5868G85X2.4222Y5.5884
G05
X2.5019Y4.3443G85X2.47Y4.2868
G05
X2.5957Y2.8443G85X2.5637Y2.7868
G05
X2.6894Y3.5943G85X2.6575Y3.5368
G05
X2.72Y4.3868G85X2.7185Y4.364
G05
X2.8138Y2.8868G85X2.8122Y2.864
G05
X2.8769Y5.8443G85X2.845Y5.7868
G05
X2.8769Y5.0943G85X2.845Y5.0368
G05
X2.8769Y2.0943G85X2.845Y2.0368
G05
X2.9075Y3.6368G85X2.906Y3.614
G05
X3.095Y5.8868G85X3.0935Y5.864
G05
X3.095Y5.1368G85X3.0935Y5.114
G05
X3.095Y2.1368G85X3.0935Y2.114
G05
X3.1525Y5.8049G85X3.095Y5.8368
G05
X3.1582Y3.5943G85X3.1262Y3.5368
G05
X3.195Y5.5868G85X3.1722Y5.5884
G05
X3.2514Y5.0943G85X3.2195Y5.0368
G05
X3.3763Y3.6368G85X3.3747Y3.614
G05
X3.4394Y4.3443G85X3.4075Y4.2868
G05
X3.4695Y5.1368G85X3.468Y5.114
G05
X3.5332Y3.9693G85X3.5012Y3.9118
G05
X3.6269Y5.8443G85X3.595Y5.7868
G05
X3.6269Y5.0943G85X3.595Y5.0368
G05
X3.6269Y2.8443G85X3.595Y2.7868
G05
X3.6269Y2.0943G85X3.595Y2.0368
G05
X3.6575Y4.3868G85X3.656Y4.364
G05
X3.7513Y4.0118G85X3.7497Y3.989
G05
X3.8083Y3.9289G85X3.7508Y3.9609
G05
X3.8508Y3.7108G85X3.828Y3.7124
G05
X3.845Y5.8868G85X3.8435Y5.864
G05
X3.845Y5.1368G85X3.8435Y5.114
G05
X3.845Y2.8868G85X3.8435Y2.864
G05
X3.845Y2.1368G85X3.8435Y2.114
G05
X3.9025Y5.8049G85X3.845Y5.8368
G05
X3.945Y5.5868G85X3.9222Y5.5884
G05
X4.3769Y5.8443G85X4.345Y5.7868
G05
X4.3769Y5.0943G85X4.345Y5.0368
G05
X4.3769Y4.3443G85X4.345Y4.2868
G05
X4.3769Y3.5943G85X4.345Y3.5368
G05
X4.3769Y2.8443G85X4.345Y2.7868
G05
X4.3769Y2.0943G85X4.345Y2.0368
G05
X4.595Y5.8868G85X4.5935Y5.864
G05
X4.595Y5.1368G85X4.5935Y5.114
G05
X4.595Y4.3868G85X4.5935Y4.364
G05
X4.595Y3.6368G85X4.5935Y3.614
G05
X4.595Y2.8868G85X4.5935Y2.864
G05
X4.595Y2.1368G85X4.5935Y2.114
G05
X4.6525Y5.8049G85X4.595Y5.8368
G05
X4.695Y5.5868G85X4.6722Y5.5884
G05
T0
M30
