G04 #@! TF.FileFunction,Legend,Top*
%FSLAX46Y46*%
G04 Gerber Fmt 4.6, Leading zero omitted, Abs format (unit mm)*
G04 Created by KiCad (PCBNEW 4.0.6) date 06/06/17 21:35:04*
%MOMM*%
%LPD*%
G01*
G04 APERTURE LIST*
%ADD10C,0.100000*%
%ADD11C,0.250000*%
%ADD12C,0.300000*%
%ADD13C,0.381000*%
%ADD14C,0.127000*%
%ADD15C,0.203200*%
%ADD16C,0.101600*%
%ADD17C,0.304800*%
G04 APERTURE END LIST*
D10*
D11*
X-68729524Y128332619D02*
X-68729524Y129332619D01*
X-68253334Y128332619D02*
X-68253334Y129332619D01*
X-67681905Y128332619D01*
X-67681905Y129332619D01*
X-67253334Y128380238D02*
X-67110477Y128332619D01*
X-66872381Y128332619D01*
X-66777143Y128380238D01*
X-66729524Y128427857D01*
X-66681905Y128523095D01*
X-66681905Y128618333D01*
X-66729524Y128713571D01*
X-66777143Y128761190D01*
X-66872381Y128808810D01*
X-67062858Y128856429D01*
X-67158096Y128904048D01*
X-67205715Y128951667D01*
X-67253334Y129046905D01*
X-67253334Y129142143D01*
X-67205715Y129237381D01*
X-67158096Y129285000D01*
X-67062858Y129332619D01*
X-66824762Y129332619D01*
X-66681905Y129285000D01*
X-66396191Y129332619D02*
X-65824762Y129332619D01*
X-66110477Y128332619D02*
X-66110477Y129332619D01*
X-65539048Y128618333D02*
X-65062857Y128618333D01*
X-65634286Y128332619D02*
X-65300953Y129332619D01*
X-64967619Y128332619D01*
X-64158095Y128332619D02*
X-64634286Y128332619D01*
X-64634286Y129332619D01*
X-63348571Y128332619D02*
X-63824762Y128332619D01*
X-63824762Y129332619D01*
X-62253333Y128332619D02*
X-62253333Y129332619D01*
X-61872380Y129332619D01*
X-61777142Y129285000D01*
X-61729523Y129237381D01*
X-61681904Y129142143D01*
X-61681904Y128999286D01*
X-61729523Y128904048D01*
X-61777142Y128856429D01*
X-61872380Y128808810D01*
X-62253333Y128808810D01*
X-60681904Y128332619D02*
X-61015238Y128808810D01*
X-61253333Y128332619D02*
X-61253333Y129332619D01*
X-60872380Y129332619D01*
X-60777142Y129285000D01*
X-60729523Y129237381D01*
X-60681904Y129142143D01*
X-60681904Y128999286D01*
X-60729523Y128904048D01*
X-60777142Y128856429D01*
X-60872380Y128808810D01*
X-61253333Y128808810D01*
X-60062857Y129332619D02*
X-59872380Y129332619D01*
X-59777142Y129285000D01*
X-59681904Y129189762D01*
X-59634285Y128999286D01*
X-59634285Y128665952D01*
X-59681904Y128475476D01*
X-59777142Y128380238D01*
X-59872380Y128332619D01*
X-60062857Y128332619D01*
X-60158095Y128380238D01*
X-60253333Y128475476D01*
X-60300952Y128665952D01*
X-60300952Y128999286D01*
X-60253333Y129189762D01*
X-60158095Y129285000D01*
X-60062857Y129332619D01*
X-58443809Y128332619D02*
X-58443809Y129332619D01*
X-58110475Y128618333D01*
X-57777142Y129332619D01*
X-57777142Y128332619D01*
X-57300952Y128332619D02*
X-57300952Y129332619D01*
X-56253333Y128427857D02*
X-56300952Y128380238D01*
X-56443809Y128332619D01*
X-56539047Y128332619D01*
X-56681905Y128380238D01*
X-56777143Y128475476D01*
X-56824762Y128570714D01*
X-56872381Y128761190D01*
X-56872381Y128904048D01*
X-56824762Y129094524D01*
X-56777143Y129189762D01*
X-56681905Y129285000D01*
X-56539047Y129332619D01*
X-56443809Y129332619D01*
X-56300952Y129285000D01*
X-56253333Y129237381D01*
X-55253333Y128332619D02*
X-55586667Y128808810D01*
X-55824762Y128332619D02*
X-55824762Y129332619D01*
X-55443809Y129332619D01*
X-55348571Y129285000D01*
X-55300952Y129237381D01*
X-55253333Y129142143D01*
X-55253333Y128999286D01*
X-55300952Y128904048D01*
X-55348571Y128856429D01*
X-55443809Y128808810D01*
X-55824762Y128808810D01*
X-54634286Y129332619D02*
X-54443809Y129332619D01*
X-54348571Y129285000D01*
X-54253333Y129189762D01*
X-54205714Y128999286D01*
X-54205714Y128665952D01*
X-54253333Y128475476D01*
X-54348571Y128380238D01*
X-54443809Y128332619D01*
X-54634286Y128332619D01*
X-54729524Y128380238D01*
X-54824762Y128475476D01*
X-54872381Y128665952D01*
X-54872381Y128999286D01*
X-54824762Y129189762D01*
X-54729524Y129285000D01*
X-54634286Y129332619D01*
X-52539047Y128332619D02*
X-53015238Y128332619D01*
X-53015238Y129332619D01*
X-52253333Y128618333D02*
X-51777142Y128618333D01*
X-52348571Y128332619D02*
X-52015238Y129332619D01*
X-51681904Y128332619D01*
X-51396190Y128380238D02*
X-51253333Y128332619D01*
X-51015237Y128332619D01*
X-50919999Y128380238D01*
X-50872380Y128427857D01*
X-50824761Y128523095D01*
X-50824761Y128618333D01*
X-50872380Y128713571D01*
X-50919999Y128761190D01*
X-51015237Y128808810D01*
X-51205714Y128856429D01*
X-51300952Y128904048D01*
X-51348571Y128951667D01*
X-51396190Y129046905D01*
X-51396190Y129142143D01*
X-51348571Y129237381D01*
X-51300952Y129285000D01*
X-51205714Y129332619D01*
X-50967618Y129332619D01*
X-50824761Y129285000D01*
X-50539047Y129332619D02*
X-49967618Y129332619D01*
X-50253333Y128332619D02*
X-50253333Y129332619D01*
X-68729524Y126582619D02*
X-68729524Y127582619D01*
X-68253334Y126582619D02*
X-68253334Y127582619D01*
X-67681905Y126582619D01*
X-67681905Y127582619D01*
X-67253334Y126630238D02*
X-67110477Y126582619D01*
X-66872381Y126582619D01*
X-66777143Y126630238D01*
X-66729524Y126677857D01*
X-66681905Y126773095D01*
X-66681905Y126868333D01*
X-66729524Y126963571D01*
X-66777143Y127011190D01*
X-66872381Y127058810D01*
X-67062858Y127106429D01*
X-67158096Y127154048D01*
X-67205715Y127201667D01*
X-67253334Y127296905D01*
X-67253334Y127392143D01*
X-67205715Y127487381D01*
X-67158096Y127535000D01*
X-67062858Y127582619D01*
X-66824762Y127582619D01*
X-66681905Y127535000D01*
X-66396191Y127582619D02*
X-65824762Y127582619D01*
X-66110477Y126582619D02*
X-66110477Y127582619D01*
X-65539048Y126868333D02*
X-65062857Y126868333D01*
X-65634286Y126582619D02*
X-65300953Y127582619D01*
X-64967619Y126582619D01*
X-64158095Y126582619D02*
X-64634286Y126582619D01*
X-64634286Y127582619D01*
X-63348571Y126582619D02*
X-63824762Y126582619D01*
X-63824762Y127582619D01*
X-62253333Y126582619D02*
X-62253333Y127582619D01*
X-61872380Y127582619D01*
X-61777142Y127535000D01*
X-61729523Y127487381D01*
X-61681904Y127392143D01*
X-61681904Y127249286D01*
X-61729523Y127154048D01*
X-61777142Y127106429D01*
X-61872380Y127058810D01*
X-62253333Y127058810D01*
X-60681904Y126582619D02*
X-61015238Y127058810D01*
X-61253333Y126582619D02*
X-61253333Y127582619D01*
X-60872380Y127582619D01*
X-60777142Y127535000D01*
X-60729523Y127487381D01*
X-60681904Y127392143D01*
X-60681904Y127249286D01*
X-60729523Y127154048D01*
X-60777142Y127106429D01*
X-60872380Y127058810D01*
X-61253333Y127058810D01*
X-60062857Y127582619D02*
X-59872380Y127582619D01*
X-59777142Y127535000D01*
X-59681904Y127439762D01*
X-59634285Y127249286D01*
X-59634285Y126915952D01*
X-59681904Y126725476D01*
X-59777142Y126630238D01*
X-59872380Y126582619D01*
X-60062857Y126582619D01*
X-60158095Y126630238D01*
X-60253333Y126725476D01*
X-60300952Y126915952D01*
X-60300952Y127249286D01*
X-60253333Y127439762D01*
X-60158095Y127535000D01*
X-60062857Y127582619D01*
X-58443809Y126582619D02*
X-58443809Y127582619D01*
X-58110475Y126868333D01*
X-57777142Y127582619D01*
X-57777142Y126582619D01*
X-57300952Y126582619D02*
X-57300952Y127582619D01*
X-56253333Y126677857D02*
X-56300952Y126630238D01*
X-56443809Y126582619D01*
X-56539047Y126582619D01*
X-56681905Y126630238D01*
X-56777143Y126725476D01*
X-56824762Y126820714D01*
X-56872381Y127011190D01*
X-56872381Y127154048D01*
X-56824762Y127344524D01*
X-56777143Y127439762D01*
X-56681905Y127535000D01*
X-56539047Y127582619D01*
X-56443809Y127582619D01*
X-56300952Y127535000D01*
X-56253333Y127487381D01*
X-55253333Y126582619D02*
X-55586667Y127058810D01*
X-55824762Y126582619D02*
X-55824762Y127582619D01*
X-55443809Y127582619D01*
X-55348571Y127535000D01*
X-55300952Y127487381D01*
X-55253333Y127392143D01*
X-55253333Y127249286D01*
X-55300952Y127154048D01*
X-55348571Y127106429D01*
X-55443809Y127058810D01*
X-55824762Y127058810D01*
X-54634286Y127582619D02*
X-54443809Y127582619D01*
X-54348571Y127535000D01*
X-54253333Y127439762D01*
X-54205714Y127249286D01*
X-54205714Y126915952D01*
X-54253333Y126725476D01*
X-54348571Y126630238D01*
X-54443809Y126582619D01*
X-54634286Y126582619D01*
X-54729524Y126630238D01*
X-54824762Y126725476D01*
X-54872381Y126915952D01*
X-54872381Y127249286D01*
X-54824762Y127439762D01*
X-54729524Y127535000D01*
X-54634286Y127582619D01*
X-52539047Y126582619D02*
X-53015238Y126582619D01*
X-53015238Y127582619D01*
X-52253333Y126868333D02*
X-51777142Y126868333D01*
X-52348571Y126582619D02*
X-52015238Y127582619D01*
X-51681904Y126582619D01*
X-51396190Y126630238D02*
X-51253333Y126582619D01*
X-51015237Y126582619D01*
X-50919999Y126630238D01*
X-50872380Y126677857D01*
X-50824761Y126773095D01*
X-50824761Y126868333D01*
X-50872380Y126963571D01*
X-50919999Y127011190D01*
X-51015237Y127058810D01*
X-51205714Y127106429D01*
X-51300952Y127154048D01*
X-51348571Y127201667D01*
X-51396190Y127296905D01*
X-51396190Y127392143D01*
X-51348571Y127487381D01*
X-51300952Y127535000D01*
X-51205714Y127582619D01*
X-50967618Y127582619D01*
X-50824761Y127535000D01*
X-50539047Y127582619D02*
X-49967618Y127582619D01*
X-50253333Y126582619D02*
X-50253333Y127582619D01*
X-68729524Y124832619D02*
X-68729524Y125832619D01*
X-68253334Y124832619D02*
X-68253334Y125832619D01*
X-67681905Y124832619D01*
X-67681905Y125832619D01*
X-67253334Y124880238D02*
X-67110477Y124832619D01*
X-66872381Y124832619D01*
X-66777143Y124880238D01*
X-66729524Y124927857D01*
X-66681905Y125023095D01*
X-66681905Y125118333D01*
X-66729524Y125213571D01*
X-66777143Y125261190D01*
X-66872381Y125308810D01*
X-67062858Y125356429D01*
X-67158096Y125404048D01*
X-67205715Y125451667D01*
X-67253334Y125546905D01*
X-67253334Y125642143D01*
X-67205715Y125737381D01*
X-67158096Y125785000D01*
X-67062858Y125832619D01*
X-66824762Y125832619D01*
X-66681905Y125785000D01*
X-66396191Y125832619D02*
X-65824762Y125832619D01*
X-66110477Y124832619D02*
X-66110477Y125832619D01*
X-65539048Y125118333D02*
X-65062857Y125118333D01*
X-65634286Y124832619D02*
X-65300953Y125832619D01*
X-64967619Y124832619D01*
X-64158095Y124832619D02*
X-64634286Y124832619D01*
X-64634286Y125832619D01*
X-63348571Y124832619D02*
X-63824762Y124832619D01*
X-63824762Y125832619D01*
X-62253333Y124832619D02*
X-62253333Y125832619D01*
X-61872380Y125832619D01*
X-61777142Y125785000D01*
X-61729523Y125737381D01*
X-61681904Y125642143D01*
X-61681904Y125499286D01*
X-61729523Y125404048D01*
X-61777142Y125356429D01*
X-61872380Y125308810D01*
X-62253333Y125308810D01*
X-60681904Y124832619D02*
X-61015238Y125308810D01*
X-61253333Y124832619D02*
X-61253333Y125832619D01*
X-60872380Y125832619D01*
X-60777142Y125785000D01*
X-60729523Y125737381D01*
X-60681904Y125642143D01*
X-60681904Y125499286D01*
X-60729523Y125404048D01*
X-60777142Y125356429D01*
X-60872380Y125308810D01*
X-61253333Y125308810D01*
X-60062857Y125832619D02*
X-59872380Y125832619D01*
X-59777142Y125785000D01*
X-59681904Y125689762D01*
X-59634285Y125499286D01*
X-59634285Y125165952D01*
X-59681904Y124975476D01*
X-59777142Y124880238D01*
X-59872380Y124832619D01*
X-60062857Y124832619D01*
X-60158095Y124880238D01*
X-60253333Y124975476D01*
X-60300952Y125165952D01*
X-60300952Y125499286D01*
X-60253333Y125689762D01*
X-60158095Y125785000D01*
X-60062857Y125832619D01*
X-58443809Y124832619D02*
X-58443809Y125832619D01*
X-58110475Y125118333D01*
X-57777142Y125832619D01*
X-57777142Y124832619D01*
X-57300952Y124832619D02*
X-57300952Y125832619D01*
X-56253333Y124927857D02*
X-56300952Y124880238D01*
X-56443809Y124832619D01*
X-56539047Y124832619D01*
X-56681905Y124880238D01*
X-56777143Y124975476D01*
X-56824762Y125070714D01*
X-56872381Y125261190D01*
X-56872381Y125404048D01*
X-56824762Y125594524D01*
X-56777143Y125689762D01*
X-56681905Y125785000D01*
X-56539047Y125832619D01*
X-56443809Y125832619D01*
X-56300952Y125785000D01*
X-56253333Y125737381D01*
X-55253333Y124832619D02*
X-55586667Y125308810D01*
X-55824762Y124832619D02*
X-55824762Y125832619D01*
X-55443809Y125832619D01*
X-55348571Y125785000D01*
X-55300952Y125737381D01*
X-55253333Y125642143D01*
X-55253333Y125499286D01*
X-55300952Y125404048D01*
X-55348571Y125356429D01*
X-55443809Y125308810D01*
X-55824762Y125308810D01*
X-54634286Y125832619D02*
X-54443809Y125832619D01*
X-54348571Y125785000D01*
X-54253333Y125689762D01*
X-54205714Y125499286D01*
X-54205714Y125165952D01*
X-54253333Y124975476D01*
X-54348571Y124880238D01*
X-54443809Y124832619D01*
X-54634286Y124832619D01*
X-54729524Y124880238D01*
X-54824762Y124975476D01*
X-54872381Y125165952D01*
X-54872381Y125499286D01*
X-54824762Y125689762D01*
X-54729524Y125785000D01*
X-54634286Y125832619D01*
X-52539047Y124832619D02*
X-53015238Y124832619D01*
X-53015238Y125832619D01*
X-52253333Y125118333D02*
X-51777142Y125118333D01*
X-52348571Y124832619D02*
X-52015238Y125832619D01*
X-51681904Y124832619D01*
X-51396190Y124880238D02*
X-51253333Y124832619D01*
X-51015237Y124832619D01*
X-50919999Y124880238D01*
X-50872380Y124927857D01*
X-50824761Y125023095D01*
X-50824761Y125118333D01*
X-50872380Y125213571D01*
X-50919999Y125261190D01*
X-51015237Y125308810D01*
X-51205714Y125356429D01*
X-51300952Y125404048D01*
X-51348571Y125451667D01*
X-51396190Y125546905D01*
X-51396190Y125642143D01*
X-51348571Y125737381D01*
X-51300952Y125785000D01*
X-51205714Y125832619D01*
X-50967618Y125832619D01*
X-50824761Y125785000D01*
X-50539047Y125832619D02*
X-49967618Y125832619D01*
X-50253333Y124832619D02*
X-50253333Y125832619D01*
X-68729524Y123082619D02*
X-68729524Y124082619D01*
X-68253334Y123082619D02*
X-68253334Y124082619D01*
X-67681905Y123082619D01*
X-67681905Y124082619D01*
X-67253334Y123130238D02*
X-67110477Y123082619D01*
X-66872381Y123082619D01*
X-66777143Y123130238D01*
X-66729524Y123177857D01*
X-66681905Y123273095D01*
X-66681905Y123368333D01*
X-66729524Y123463571D01*
X-66777143Y123511190D01*
X-66872381Y123558810D01*
X-67062858Y123606429D01*
X-67158096Y123654048D01*
X-67205715Y123701667D01*
X-67253334Y123796905D01*
X-67253334Y123892143D01*
X-67205715Y123987381D01*
X-67158096Y124035000D01*
X-67062858Y124082619D01*
X-66824762Y124082619D01*
X-66681905Y124035000D01*
X-66396191Y124082619D02*
X-65824762Y124082619D01*
X-66110477Y123082619D02*
X-66110477Y124082619D01*
X-65539048Y123368333D02*
X-65062857Y123368333D01*
X-65634286Y123082619D02*
X-65300953Y124082619D01*
X-64967619Y123082619D01*
X-64158095Y123082619D02*
X-64634286Y123082619D01*
X-64634286Y124082619D01*
X-63348571Y123082619D02*
X-63824762Y123082619D01*
X-63824762Y124082619D01*
X-62253333Y123082619D02*
X-62253333Y124082619D01*
X-61872380Y124082619D01*
X-61777142Y124035000D01*
X-61729523Y123987381D01*
X-61681904Y123892143D01*
X-61681904Y123749286D01*
X-61729523Y123654048D01*
X-61777142Y123606429D01*
X-61872380Y123558810D01*
X-62253333Y123558810D01*
X-60681904Y123082619D02*
X-61015238Y123558810D01*
X-61253333Y123082619D02*
X-61253333Y124082619D01*
X-60872380Y124082619D01*
X-60777142Y124035000D01*
X-60729523Y123987381D01*
X-60681904Y123892143D01*
X-60681904Y123749286D01*
X-60729523Y123654048D01*
X-60777142Y123606429D01*
X-60872380Y123558810D01*
X-61253333Y123558810D01*
X-60062857Y124082619D02*
X-59872380Y124082619D01*
X-59777142Y124035000D01*
X-59681904Y123939762D01*
X-59634285Y123749286D01*
X-59634285Y123415952D01*
X-59681904Y123225476D01*
X-59777142Y123130238D01*
X-59872380Y123082619D01*
X-60062857Y123082619D01*
X-60158095Y123130238D01*
X-60253333Y123225476D01*
X-60300952Y123415952D01*
X-60300952Y123749286D01*
X-60253333Y123939762D01*
X-60158095Y124035000D01*
X-60062857Y124082619D01*
X-58443809Y123082619D02*
X-58443809Y124082619D01*
X-58110475Y123368333D01*
X-57777142Y124082619D01*
X-57777142Y123082619D01*
X-57300952Y123082619D02*
X-57300952Y124082619D01*
X-56253333Y123177857D02*
X-56300952Y123130238D01*
X-56443809Y123082619D01*
X-56539047Y123082619D01*
X-56681905Y123130238D01*
X-56777143Y123225476D01*
X-56824762Y123320714D01*
X-56872381Y123511190D01*
X-56872381Y123654048D01*
X-56824762Y123844524D01*
X-56777143Y123939762D01*
X-56681905Y124035000D01*
X-56539047Y124082619D01*
X-56443809Y124082619D01*
X-56300952Y124035000D01*
X-56253333Y123987381D01*
X-55253333Y123082619D02*
X-55586667Y123558810D01*
X-55824762Y123082619D02*
X-55824762Y124082619D01*
X-55443809Y124082619D01*
X-55348571Y124035000D01*
X-55300952Y123987381D01*
X-55253333Y123892143D01*
X-55253333Y123749286D01*
X-55300952Y123654048D01*
X-55348571Y123606429D01*
X-55443809Y123558810D01*
X-55824762Y123558810D01*
X-54634286Y124082619D02*
X-54443809Y124082619D01*
X-54348571Y124035000D01*
X-54253333Y123939762D01*
X-54205714Y123749286D01*
X-54205714Y123415952D01*
X-54253333Y123225476D01*
X-54348571Y123130238D01*
X-54443809Y123082619D01*
X-54634286Y123082619D01*
X-54729524Y123130238D01*
X-54824762Y123225476D01*
X-54872381Y123415952D01*
X-54872381Y123749286D01*
X-54824762Y123939762D01*
X-54729524Y124035000D01*
X-54634286Y124082619D01*
X-52539047Y123082619D02*
X-53015238Y123082619D01*
X-53015238Y124082619D01*
X-52253333Y123368333D02*
X-51777142Y123368333D01*
X-52348571Y123082619D02*
X-52015238Y124082619D01*
X-51681904Y123082619D01*
X-51396190Y123130238D02*
X-51253333Y123082619D01*
X-51015237Y123082619D01*
X-50919999Y123130238D01*
X-50872380Y123177857D01*
X-50824761Y123273095D01*
X-50824761Y123368333D01*
X-50872380Y123463571D01*
X-50919999Y123511190D01*
X-51015237Y123558810D01*
X-51205714Y123606429D01*
X-51300952Y123654048D01*
X-51348571Y123701667D01*
X-51396190Y123796905D01*
X-51396190Y123892143D01*
X-51348571Y123987381D01*
X-51300952Y124035000D01*
X-51205714Y124082619D01*
X-50967618Y124082619D01*
X-50824761Y124035000D01*
X-50539047Y124082619D02*
X-49967618Y124082619D01*
X-50253333Y123082619D02*
X-50253333Y124082619D01*
D12*
X-66911429Y146476429D02*
X-67768572Y146476429D01*
X-67340000Y146476429D02*
X-67340000Y147976429D01*
X-67482857Y147762143D01*
X-67625715Y147619286D01*
X-67768572Y147547857D01*
X-66268572Y146619286D02*
X-66197144Y146547857D01*
X-66268572Y146476429D01*
X-66340001Y146547857D01*
X-66268572Y146619286D01*
X-66268572Y146476429D01*
X-64411429Y146476429D02*
X-64411429Y147976429D01*
X-63697143Y147476429D02*
X-63697143Y146476429D01*
X-63697143Y147333571D02*
X-63625715Y147405000D01*
X-63482857Y147476429D01*
X-63268572Y147476429D01*
X-63125715Y147405000D01*
X-63054286Y147262143D01*
X-63054286Y146476429D01*
X-62411429Y146547857D02*
X-62268572Y146476429D01*
X-61982857Y146476429D01*
X-61840000Y146547857D01*
X-61768572Y146690714D01*
X-61768572Y146762143D01*
X-61840000Y146905000D01*
X-61982857Y146976429D01*
X-62197143Y146976429D01*
X-62340000Y147047857D01*
X-62411429Y147190714D01*
X-62411429Y147262143D01*
X-62340000Y147405000D01*
X-62197143Y147476429D01*
X-61982857Y147476429D01*
X-61840000Y147405000D01*
X-61340000Y147476429D02*
X-60768571Y147476429D01*
X-61125714Y147976429D02*
X-61125714Y146690714D01*
X-61054286Y146547857D01*
X-60911428Y146476429D01*
X-60768571Y146476429D01*
X-59625714Y146476429D02*
X-59625714Y147262143D01*
X-59697143Y147405000D01*
X-59840000Y147476429D01*
X-60125714Y147476429D01*
X-60268571Y147405000D01*
X-59625714Y146547857D02*
X-59768571Y146476429D01*
X-60125714Y146476429D01*
X-60268571Y146547857D01*
X-60340000Y146690714D01*
X-60340000Y146833571D01*
X-60268571Y146976429D01*
X-60125714Y147047857D01*
X-59768571Y147047857D01*
X-59625714Y147119286D01*
X-58697142Y146476429D02*
X-58840000Y146547857D01*
X-58911428Y146690714D01*
X-58911428Y147976429D01*
X-57911428Y146476429D02*
X-58054286Y146547857D01*
X-58125714Y146690714D01*
X-58125714Y147976429D01*
X-56197143Y146476429D02*
X-56197143Y147976429D01*
X-55840000Y147976429D01*
X-55625715Y147905000D01*
X-55482857Y147762143D01*
X-55411429Y147619286D01*
X-55340000Y147333571D01*
X-55340000Y147119286D01*
X-55411429Y146833571D01*
X-55482857Y146690714D01*
X-55625715Y146547857D01*
X-55840000Y146476429D01*
X-56197143Y146476429D01*
X-54697143Y146476429D02*
X-54697143Y147476429D01*
X-54697143Y147976429D02*
X-54768572Y147905000D01*
X-54697143Y147833571D01*
X-54625715Y147905000D01*
X-54697143Y147976429D01*
X-54697143Y147833571D01*
X-53768571Y146476429D02*
X-53911429Y146547857D01*
X-53982857Y146619286D01*
X-54054286Y146762143D01*
X-54054286Y147190714D01*
X-53982857Y147333571D01*
X-53911429Y147405000D01*
X-53768571Y147476429D01*
X-53554286Y147476429D01*
X-53411429Y147405000D01*
X-53340000Y147333571D01*
X-53268571Y147190714D01*
X-53268571Y146762143D01*
X-53340000Y146619286D01*
X-53411429Y146547857D01*
X-53554286Y146476429D01*
X-53768571Y146476429D01*
X-51982857Y146476429D02*
X-51982857Y147976429D01*
X-51982857Y146547857D02*
X-52125714Y146476429D01*
X-52411428Y146476429D01*
X-52554286Y146547857D01*
X-52625714Y146619286D01*
X-52697143Y146762143D01*
X-52697143Y147190714D01*
X-52625714Y147333571D01*
X-52554286Y147405000D01*
X-52411428Y147476429D01*
X-52125714Y147476429D01*
X-51982857Y147405000D01*
X-50697143Y146547857D02*
X-50840000Y146476429D01*
X-51125714Y146476429D01*
X-51268571Y146547857D01*
X-51340000Y146690714D01*
X-51340000Y147262143D01*
X-51268571Y147405000D01*
X-51125714Y147476429D01*
X-50840000Y147476429D01*
X-50697143Y147405000D01*
X-50625714Y147262143D01*
X-50625714Y147119286D01*
X-51340000Y146976429D01*
X-50054286Y146547857D02*
X-49911429Y146476429D01*
X-49625714Y146476429D01*
X-49482857Y146547857D01*
X-49411429Y146690714D01*
X-49411429Y146762143D01*
X-49482857Y146905000D01*
X-49625714Y146976429D01*
X-49840000Y146976429D01*
X-49982857Y147047857D01*
X-50054286Y147190714D01*
X-50054286Y147262143D01*
X-49982857Y147405000D01*
X-49840000Y147476429D01*
X-49625714Y147476429D01*
X-49482857Y147405000D01*
X-70090000Y145283571D02*
X-70018571Y145355000D01*
X-69875714Y145426429D01*
X-69518571Y145426429D01*
X-69375714Y145355000D01*
X-69304285Y145283571D01*
X-69232857Y145140714D01*
X-69232857Y144997857D01*
X-69304285Y144783571D01*
X-70161428Y143926429D01*
X-69232857Y143926429D01*
X-68590000Y144069286D02*
X-68518572Y143997857D01*
X-68590000Y143926429D01*
X-68661429Y143997857D01*
X-68590000Y144069286D01*
X-68590000Y143926429D01*
X-66732857Y143926429D02*
X-66732857Y145426429D01*
X-66018571Y144926429D02*
X-66018571Y143926429D01*
X-66018571Y144783571D02*
X-65947143Y144855000D01*
X-65804285Y144926429D01*
X-65590000Y144926429D01*
X-65447143Y144855000D01*
X-65375714Y144712143D01*
X-65375714Y143926429D01*
X-64732857Y143997857D02*
X-64590000Y143926429D01*
X-64304285Y143926429D01*
X-64161428Y143997857D01*
X-64090000Y144140714D01*
X-64090000Y144212143D01*
X-64161428Y144355000D01*
X-64304285Y144426429D01*
X-64518571Y144426429D01*
X-64661428Y144497857D01*
X-64732857Y144640714D01*
X-64732857Y144712143D01*
X-64661428Y144855000D01*
X-64518571Y144926429D01*
X-64304285Y144926429D01*
X-64161428Y144855000D01*
X-63661428Y144926429D02*
X-63089999Y144926429D01*
X-63447142Y145426429D02*
X-63447142Y144140714D01*
X-63375714Y143997857D01*
X-63232856Y143926429D01*
X-63089999Y143926429D01*
X-61947142Y143926429D02*
X-61947142Y144712143D01*
X-62018571Y144855000D01*
X-62161428Y144926429D01*
X-62447142Y144926429D01*
X-62589999Y144855000D01*
X-61947142Y143997857D02*
X-62089999Y143926429D01*
X-62447142Y143926429D01*
X-62589999Y143997857D01*
X-62661428Y144140714D01*
X-62661428Y144283571D01*
X-62589999Y144426429D01*
X-62447142Y144497857D01*
X-62089999Y144497857D01*
X-61947142Y144569286D01*
X-61018570Y143926429D02*
X-61161428Y143997857D01*
X-61232856Y144140714D01*
X-61232856Y145426429D01*
X-60232856Y143926429D02*
X-60375714Y143997857D01*
X-60447142Y144140714D01*
X-60447142Y145426429D01*
X-58518571Y143926429D02*
X-58518571Y145426429D01*
X-57947143Y145426429D01*
X-57804285Y145355000D01*
X-57732857Y145283571D01*
X-57661428Y145140714D01*
X-57661428Y144926429D01*
X-57732857Y144783571D01*
X-57804285Y144712143D01*
X-57947143Y144640714D01*
X-58518571Y144640714D01*
X-57018571Y143926429D02*
X-57018571Y144926429D01*
X-57018571Y144640714D02*
X-56947143Y144783571D01*
X-56875714Y144855000D01*
X-56732857Y144926429D01*
X-56590000Y144926429D01*
X-55875714Y143926429D02*
X-56018572Y143997857D01*
X-56090000Y144069286D01*
X-56161429Y144212143D01*
X-56161429Y144640714D01*
X-56090000Y144783571D01*
X-56018572Y144855000D01*
X-55875714Y144926429D01*
X-55661429Y144926429D01*
X-55518572Y144855000D01*
X-55447143Y144783571D01*
X-55375714Y144640714D01*
X-55375714Y144212143D01*
X-55447143Y144069286D01*
X-55518572Y143997857D01*
X-55661429Y143926429D01*
X-55875714Y143926429D01*
X-53590000Y143926429D02*
X-53590000Y145426429D01*
X-53090000Y144355000D01*
X-52590000Y145426429D01*
X-52590000Y143926429D01*
X-51875714Y143926429D02*
X-51875714Y144926429D01*
X-51875714Y145426429D02*
X-51947143Y145355000D01*
X-51875714Y145283571D01*
X-51804286Y145355000D01*
X-51875714Y145426429D01*
X-51875714Y145283571D01*
X-50518571Y143997857D02*
X-50661428Y143926429D01*
X-50947142Y143926429D01*
X-51090000Y143997857D01*
X-51161428Y144069286D01*
X-51232857Y144212143D01*
X-51232857Y144640714D01*
X-51161428Y144783571D01*
X-51090000Y144855000D01*
X-50947142Y144926429D01*
X-50661428Y144926429D01*
X-50518571Y144855000D01*
X-49875714Y143926429D02*
X-49875714Y144926429D01*
X-49875714Y144640714D02*
X-49804286Y144783571D01*
X-49732857Y144855000D01*
X-49590000Y144926429D01*
X-49447143Y144926429D01*
X-48732857Y143926429D02*
X-48875715Y143997857D01*
X-48947143Y144069286D01*
X-49018572Y144212143D01*
X-49018572Y144640714D01*
X-48947143Y144783571D01*
X-48875715Y144855000D01*
X-48732857Y144926429D01*
X-48518572Y144926429D01*
X-48375715Y144855000D01*
X-48304286Y144783571D01*
X-48232857Y144640714D01*
X-48232857Y144212143D01*
X-48304286Y144069286D01*
X-48375715Y143997857D01*
X-48518572Y143926429D01*
X-48732857Y143926429D01*
X-62732857Y141376429D02*
X-62732857Y142876429D01*
X-62732857Y142162143D02*
X-61875714Y142162143D01*
X-61875714Y141376429D02*
X-61875714Y142876429D01*
X-60590000Y141447857D02*
X-60732857Y141376429D01*
X-61018571Y141376429D01*
X-61161428Y141447857D01*
X-61232857Y141590714D01*
X-61232857Y142162143D01*
X-61161428Y142305000D01*
X-61018571Y142376429D01*
X-60732857Y142376429D01*
X-60590000Y142305000D01*
X-60518571Y142162143D01*
X-60518571Y142019286D01*
X-61232857Y141876429D01*
X-59232857Y141376429D02*
X-59232857Y142162143D01*
X-59304286Y142305000D01*
X-59447143Y142376429D01*
X-59732857Y142376429D01*
X-59875714Y142305000D01*
X-59232857Y141447857D02*
X-59375714Y141376429D01*
X-59732857Y141376429D01*
X-59875714Y141447857D01*
X-59947143Y141590714D01*
X-59947143Y141733571D01*
X-59875714Y141876429D01*
X-59732857Y141947857D01*
X-59375714Y141947857D01*
X-59232857Y142019286D01*
X-57875714Y141376429D02*
X-57875714Y142876429D01*
X-57875714Y141447857D02*
X-58018571Y141376429D01*
X-58304285Y141376429D01*
X-58447143Y141447857D01*
X-58518571Y141519286D01*
X-58590000Y141662143D01*
X-58590000Y142090714D01*
X-58518571Y142233571D01*
X-58447143Y142305000D01*
X-58304285Y142376429D01*
X-58018571Y142376429D01*
X-57875714Y142305000D01*
X-56590000Y141447857D02*
X-56732857Y141376429D01*
X-57018571Y141376429D01*
X-57161428Y141447857D01*
X-57232857Y141590714D01*
X-57232857Y142162143D01*
X-57161428Y142305000D01*
X-57018571Y142376429D01*
X-56732857Y142376429D01*
X-56590000Y142305000D01*
X-56518571Y142162143D01*
X-56518571Y142019286D01*
X-57232857Y141876429D01*
X-55875714Y141376429D02*
X-55875714Y142376429D01*
X-55875714Y142090714D02*
X-55804286Y142233571D01*
X-55732857Y142305000D01*
X-55590000Y142376429D01*
X-55447143Y142376429D01*
X-55018572Y141447857D02*
X-54875715Y141376429D01*
X-54590000Y141376429D01*
X-54447143Y141447857D01*
X-54375715Y141590714D01*
X-54375715Y141662143D01*
X-54447143Y141805000D01*
X-54590000Y141876429D01*
X-54804286Y141876429D01*
X-54947143Y141947857D01*
X-55018572Y142090714D01*
X-55018572Y142162143D01*
X-54947143Y142305000D01*
X-54804286Y142376429D01*
X-54590000Y142376429D01*
X-54447143Y142305000D01*
X-69804285Y139826429D02*
X-69804285Y138826429D01*
X-70161428Y140397857D02*
X-70518571Y139326429D01*
X-69589999Y139326429D01*
X-69018571Y138969286D02*
X-68947143Y138897857D01*
X-69018571Y138826429D01*
X-69090000Y138897857D01*
X-69018571Y138969286D01*
X-69018571Y138826429D01*
X-67161428Y138826429D02*
X-67161428Y140326429D01*
X-66447142Y139826429D02*
X-66447142Y138826429D01*
X-66447142Y139683571D02*
X-66375714Y139755000D01*
X-66232856Y139826429D01*
X-66018571Y139826429D01*
X-65875714Y139755000D01*
X-65804285Y139612143D01*
X-65804285Y138826429D01*
X-65161428Y138897857D02*
X-65018571Y138826429D01*
X-64732856Y138826429D01*
X-64589999Y138897857D01*
X-64518571Y139040714D01*
X-64518571Y139112143D01*
X-64589999Y139255000D01*
X-64732856Y139326429D01*
X-64947142Y139326429D01*
X-65089999Y139397857D01*
X-65161428Y139540714D01*
X-65161428Y139612143D01*
X-65089999Y139755000D01*
X-64947142Y139826429D01*
X-64732856Y139826429D01*
X-64589999Y139755000D01*
X-64089999Y139826429D02*
X-63518570Y139826429D01*
X-63875713Y140326429D02*
X-63875713Y139040714D01*
X-63804285Y138897857D01*
X-63661427Y138826429D01*
X-63518570Y138826429D01*
X-62375713Y138826429D02*
X-62375713Y139612143D01*
X-62447142Y139755000D01*
X-62589999Y139826429D01*
X-62875713Y139826429D01*
X-63018570Y139755000D01*
X-62375713Y138897857D02*
X-62518570Y138826429D01*
X-62875713Y138826429D01*
X-63018570Y138897857D01*
X-63089999Y139040714D01*
X-63089999Y139183571D01*
X-63018570Y139326429D01*
X-62875713Y139397857D01*
X-62518570Y139397857D01*
X-62375713Y139469286D01*
X-61447141Y138826429D02*
X-61589999Y138897857D01*
X-61661427Y139040714D01*
X-61661427Y140326429D01*
X-60661427Y138826429D02*
X-60804285Y138897857D01*
X-60875713Y139040714D01*
X-60875713Y140326429D01*
X-59161428Y140326429D02*
X-58304285Y140326429D01*
X-58732856Y138826429D02*
X-58732856Y140326429D01*
X-56947142Y138826429D02*
X-57447142Y139540714D01*
X-57804285Y138826429D02*
X-57804285Y140326429D01*
X-57232857Y140326429D01*
X-57089999Y140255000D01*
X-57018571Y140183571D01*
X-56947142Y140040714D01*
X-56947142Y139826429D01*
X-57018571Y139683571D01*
X-57089999Y139612143D01*
X-57232857Y139540714D01*
X-57804285Y139540714D01*
X-55447142Y138826429D02*
X-55947142Y139540714D01*
X-56304285Y138826429D02*
X-56304285Y140326429D01*
X-55732857Y140326429D01*
X-55589999Y140255000D01*
X-55518571Y140183571D01*
X-55447142Y140040714D01*
X-55447142Y139826429D01*
X-55518571Y139683571D01*
X-55589999Y139612143D01*
X-55732857Y139540714D01*
X-56304285Y139540714D01*
X-54875714Y138897857D02*
X-54661428Y138826429D01*
X-54304285Y138826429D01*
X-54161428Y138897857D01*
X-54089999Y138969286D01*
X-54018571Y139112143D01*
X-54018571Y139255000D01*
X-54089999Y139397857D01*
X-54161428Y139469286D01*
X-54304285Y139540714D01*
X-54589999Y139612143D01*
X-54732857Y139683571D01*
X-54804285Y139755000D01*
X-54875714Y139897857D01*
X-54875714Y140040714D01*
X-54804285Y140183571D01*
X-54732857Y140255000D01*
X-54589999Y140326429D01*
X-54232857Y140326429D01*
X-54018571Y140255000D01*
X-51804286Y140326429D02*
X-51804286Y139255000D01*
X-51875714Y139040714D01*
X-52018571Y138897857D01*
X-52232857Y138826429D01*
X-52375714Y138826429D01*
X-50447143Y138826429D02*
X-50447143Y139612143D01*
X-50518572Y139755000D01*
X-50661429Y139826429D01*
X-50947143Y139826429D01*
X-51090000Y139755000D01*
X-50447143Y138897857D02*
X-50590000Y138826429D01*
X-50947143Y138826429D01*
X-51090000Y138897857D01*
X-51161429Y139040714D01*
X-51161429Y139183571D01*
X-51090000Y139326429D01*
X-50947143Y139397857D01*
X-50590000Y139397857D01*
X-50447143Y139469286D01*
X-49090000Y138897857D02*
X-49232857Y138826429D01*
X-49518571Y138826429D01*
X-49661429Y138897857D01*
X-49732857Y138969286D01*
X-49804286Y139112143D01*
X-49804286Y139540714D01*
X-49732857Y139683571D01*
X-49661429Y139755000D01*
X-49518571Y139826429D01*
X-49232857Y139826429D01*
X-49090000Y139755000D01*
X-48447143Y138826429D02*
X-48447143Y140326429D01*
X-48304286Y139397857D02*
X-47875715Y138826429D01*
X-47875715Y139826429D02*
X-48447143Y139255000D01*
X-47304286Y138897857D02*
X-47161429Y138826429D01*
X-46875714Y138826429D01*
X-46732857Y138897857D01*
X-46661429Y139040714D01*
X-46661429Y139112143D01*
X-46732857Y139255000D01*
X-46875714Y139326429D01*
X-47090000Y139326429D01*
X-47232857Y139397857D01*
X-47304286Y139540714D01*
X-47304286Y139612143D01*
X-47232857Y139755000D01*
X-47090000Y139826429D01*
X-46875714Y139826429D01*
X-46732857Y139755000D01*
X-68125714Y137776429D02*
X-68840000Y137776429D01*
X-68911429Y137062143D01*
X-68840000Y137133571D01*
X-68697143Y137205000D01*
X-68340000Y137205000D01*
X-68197143Y137133571D01*
X-68125714Y137062143D01*
X-68054286Y136919286D01*
X-68054286Y136562143D01*
X-68125714Y136419286D01*
X-68197143Y136347857D01*
X-68340000Y136276429D01*
X-68697143Y136276429D01*
X-68840000Y136347857D01*
X-68911429Y136419286D01*
X-67411429Y136419286D02*
X-67340001Y136347857D01*
X-67411429Y136276429D01*
X-67482858Y136347857D01*
X-67411429Y136419286D01*
X-67411429Y136276429D01*
X-65554286Y136276429D02*
X-65554286Y137776429D01*
X-64840000Y137276429D02*
X-64840000Y136276429D01*
X-64840000Y137133571D02*
X-64768572Y137205000D01*
X-64625714Y137276429D01*
X-64411429Y137276429D01*
X-64268572Y137205000D01*
X-64197143Y137062143D01*
X-64197143Y136276429D01*
X-63554286Y136347857D02*
X-63411429Y136276429D01*
X-63125714Y136276429D01*
X-62982857Y136347857D01*
X-62911429Y136490714D01*
X-62911429Y136562143D01*
X-62982857Y136705000D01*
X-63125714Y136776429D01*
X-63340000Y136776429D01*
X-63482857Y136847857D01*
X-63554286Y136990714D01*
X-63554286Y137062143D01*
X-63482857Y137205000D01*
X-63340000Y137276429D01*
X-63125714Y137276429D01*
X-62982857Y137205000D01*
X-62482857Y137276429D02*
X-61911428Y137276429D01*
X-62268571Y137776429D02*
X-62268571Y136490714D01*
X-62197143Y136347857D01*
X-62054285Y136276429D01*
X-61911428Y136276429D01*
X-60768571Y136276429D02*
X-60768571Y137062143D01*
X-60840000Y137205000D01*
X-60982857Y137276429D01*
X-61268571Y137276429D01*
X-61411428Y137205000D01*
X-60768571Y136347857D02*
X-60911428Y136276429D01*
X-61268571Y136276429D01*
X-61411428Y136347857D01*
X-61482857Y136490714D01*
X-61482857Y136633571D01*
X-61411428Y136776429D01*
X-61268571Y136847857D01*
X-60911428Y136847857D01*
X-60768571Y136919286D01*
X-59839999Y136276429D02*
X-59982857Y136347857D01*
X-60054285Y136490714D01*
X-60054285Y137776429D01*
X-59054285Y136276429D02*
X-59197143Y136347857D01*
X-59268571Y136490714D01*
X-59268571Y137776429D01*
X-57411429Y136347857D02*
X-57197143Y136276429D01*
X-56840000Y136276429D01*
X-56697143Y136347857D01*
X-56625714Y136419286D01*
X-56554286Y136562143D01*
X-56554286Y136705000D01*
X-56625714Y136847857D01*
X-56697143Y136919286D01*
X-56840000Y136990714D01*
X-57125714Y137062143D01*
X-57268572Y137133571D01*
X-57340000Y137205000D01*
X-57411429Y137347857D01*
X-57411429Y137490714D01*
X-57340000Y137633571D01*
X-57268572Y137705000D01*
X-57125714Y137776429D01*
X-56768572Y137776429D01*
X-56554286Y137705000D01*
X-56054286Y137276429D02*
X-55768572Y136276429D01*
X-55482858Y136990714D01*
X-55197143Y136276429D01*
X-54911429Y137276429D01*
X-54340000Y136276429D02*
X-54340000Y137276429D01*
X-54340000Y137776429D02*
X-54411429Y137705000D01*
X-54340000Y137633571D01*
X-54268572Y137705000D01*
X-54340000Y137776429D01*
X-54340000Y137633571D01*
X-53840000Y137276429D02*
X-53268571Y137276429D01*
X-53625714Y137776429D02*
X-53625714Y136490714D01*
X-53554286Y136347857D01*
X-53411428Y136276429D01*
X-53268571Y136276429D01*
X-52125714Y136347857D02*
X-52268571Y136276429D01*
X-52554285Y136276429D01*
X-52697143Y136347857D01*
X-52768571Y136419286D01*
X-52840000Y136562143D01*
X-52840000Y136990714D01*
X-52768571Y137133571D01*
X-52697143Y137205000D01*
X-52554285Y137276429D01*
X-52268571Y137276429D01*
X-52125714Y137205000D01*
X-51482857Y136276429D02*
X-51482857Y137776429D01*
X-50840000Y136276429D02*
X-50840000Y137062143D01*
X-50911429Y137205000D01*
X-51054286Y137276429D01*
X-51268571Y137276429D01*
X-51411429Y137205000D01*
X-51482857Y137133571D01*
X-49554286Y136347857D02*
X-49697143Y136276429D01*
X-49982857Y136276429D01*
X-50125714Y136347857D01*
X-50197143Y136490714D01*
X-50197143Y137062143D01*
X-50125714Y137205000D01*
X-49982857Y137276429D01*
X-49697143Y137276429D01*
X-49554286Y137205000D01*
X-49482857Y137062143D01*
X-49482857Y136919286D01*
X-50197143Y136776429D01*
X-48911429Y136347857D02*
X-48768572Y136276429D01*
X-48482857Y136276429D01*
X-48340000Y136347857D01*
X-48268572Y136490714D01*
X-48268572Y136562143D01*
X-48340000Y136705000D01*
X-48482857Y136776429D01*
X-48697143Y136776429D01*
X-48840000Y136847857D01*
X-48911429Y136990714D01*
X-48911429Y137062143D01*
X-48840000Y137205000D01*
X-48697143Y137276429D01*
X-48482857Y137276429D01*
X-48340000Y137205000D01*
X-68804285Y135226429D02*
X-69089999Y135226429D01*
X-69232856Y135155000D01*
X-69304285Y135083571D01*
X-69447142Y134869286D01*
X-69518571Y134583571D01*
X-69518571Y134012143D01*
X-69447142Y133869286D01*
X-69375714Y133797857D01*
X-69232856Y133726429D01*
X-68947142Y133726429D01*
X-68804285Y133797857D01*
X-68732856Y133869286D01*
X-68661428Y134012143D01*
X-68661428Y134369286D01*
X-68732856Y134512143D01*
X-68804285Y134583571D01*
X-68947142Y134655000D01*
X-69232856Y134655000D01*
X-69375714Y134583571D01*
X-69447142Y134512143D01*
X-69518571Y134369286D01*
X-68018571Y133869286D02*
X-67947143Y133797857D01*
X-68018571Y133726429D01*
X-68090000Y133797857D01*
X-68018571Y133869286D01*
X-68018571Y133726429D01*
X-66161428Y133726429D02*
X-66161428Y135226429D01*
X-65447142Y134726429D02*
X-65447142Y133726429D01*
X-65447142Y134583571D02*
X-65375714Y134655000D01*
X-65232856Y134726429D01*
X-65018571Y134726429D01*
X-64875714Y134655000D01*
X-64804285Y134512143D01*
X-64804285Y133726429D01*
X-64161428Y133797857D02*
X-64018571Y133726429D01*
X-63732856Y133726429D01*
X-63589999Y133797857D01*
X-63518571Y133940714D01*
X-63518571Y134012143D01*
X-63589999Y134155000D01*
X-63732856Y134226429D01*
X-63947142Y134226429D01*
X-64089999Y134297857D01*
X-64161428Y134440714D01*
X-64161428Y134512143D01*
X-64089999Y134655000D01*
X-63947142Y134726429D01*
X-63732856Y134726429D01*
X-63589999Y134655000D01*
X-63089999Y134726429D02*
X-62518570Y134726429D01*
X-62875713Y135226429D02*
X-62875713Y133940714D01*
X-62804285Y133797857D01*
X-62661427Y133726429D01*
X-62518570Y133726429D01*
X-61375713Y133726429D02*
X-61375713Y134512143D01*
X-61447142Y134655000D01*
X-61589999Y134726429D01*
X-61875713Y134726429D01*
X-62018570Y134655000D01*
X-61375713Y133797857D02*
X-61518570Y133726429D01*
X-61875713Y133726429D01*
X-62018570Y133797857D01*
X-62089999Y133940714D01*
X-62089999Y134083571D01*
X-62018570Y134226429D01*
X-61875713Y134297857D01*
X-61518570Y134297857D01*
X-61375713Y134369286D01*
X-60447141Y133726429D02*
X-60589999Y133797857D01*
X-60661427Y133940714D01*
X-60661427Y135226429D01*
X-59661427Y133726429D02*
X-59804285Y133797857D01*
X-59875713Y133940714D01*
X-59875713Y135226429D01*
X-57947142Y133726429D02*
X-57947142Y135226429D01*
X-57375714Y135226429D01*
X-57232856Y135155000D01*
X-57161428Y135083571D01*
X-57089999Y134940714D01*
X-57089999Y134726429D01*
X-57161428Y134583571D01*
X-57232856Y134512143D01*
X-57375714Y134440714D01*
X-57947142Y134440714D01*
X-56447142Y133726429D02*
X-56447142Y134726429D01*
X-56447142Y134440714D02*
X-56375714Y134583571D01*
X-56304285Y134655000D01*
X-56161428Y134726429D01*
X-56018571Y134726429D01*
X-55304285Y133726429D02*
X-55447143Y133797857D01*
X-55518571Y133869286D01*
X-55590000Y134012143D01*
X-55590000Y134440714D01*
X-55518571Y134583571D01*
X-55447143Y134655000D01*
X-55304285Y134726429D01*
X-55090000Y134726429D01*
X-54947143Y134655000D01*
X-54875714Y134583571D01*
X-54804285Y134440714D01*
X-54804285Y134012143D01*
X-54875714Y133869286D01*
X-54947143Y133797857D01*
X-55090000Y133726429D01*
X-55304285Y133726429D01*
X-53018571Y133726429D02*
X-53018571Y135226429D01*
X-52518571Y134155000D01*
X-52018571Y135226429D01*
X-52018571Y133726429D01*
X-51304285Y133726429D02*
X-51304285Y134726429D01*
X-51304285Y135226429D02*
X-51375714Y135155000D01*
X-51304285Y135083571D01*
X-51232857Y135155000D01*
X-51304285Y135226429D01*
X-51304285Y135083571D01*
X-49947142Y133797857D02*
X-50089999Y133726429D01*
X-50375713Y133726429D01*
X-50518571Y133797857D01*
X-50589999Y133869286D01*
X-50661428Y134012143D01*
X-50661428Y134440714D01*
X-50589999Y134583571D01*
X-50518571Y134655000D01*
X-50375713Y134726429D01*
X-50089999Y134726429D01*
X-49947142Y134655000D01*
X-49304285Y133726429D02*
X-49304285Y134726429D01*
X-49304285Y134440714D02*
X-49232857Y134583571D01*
X-49161428Y134655000D01*
X-49018571Y134726429D01*
X-48875714Y134726429D01*
X-48161428Y133726429D02*
X-48304286Y133797857D01*
X-48375714Y133869286D01*
X-48447143Y134012143D01*
X-48447143Y134440714D01*
X-48375714Y134583571D01*
X-48304286Y134655000D01*
X-48161428Y134726429D01*
X-47947143Y134726429D01*
X-47804286Y134655000D01*
X-47732857Y134583571D01*
X-47661428Y134440714D01*
X-47661428Y134012143D01*
X-47732857Y133869286D01*
X-47804286Y133797857D01*
X-47947143Y133726429D01*
X-48161428Y133726429D01*
X-31471429Y55982144D02*
X-31471429Y55125001D01*
X-31471429Y55553573D02*
X-32971429Y55553573D01*
X-32757143Y55410716D01*
X-32614286Y55267858D01*
X-32542857Y55125001D01*
X-31614286Y56625001D02*
X-31542857Y56696429D01*
X-31471429Y56625001D01*
X-31542857Y56553572D01*
X-31614286Y56625001D01*
X-31471429Y56625001D01*
X-32971429Y57196430D02*
X-32971429Y58196430D01*
X-31471429Y57553573D01*
X-32971429Y59482144D02*
X-32971429Y58767858D01*
X-32257143Y58696429D01*
X-32328571Y58767858D01*
X-32400000Y58910715D01*
X-32400000Y59267858D01*
X-32328571Y59410715D01*
X-32257143Y59482144D01*
X-32114286Y59553572D01*
X-31757143Y59553572D01*
X-31614286Y59482144D01*
X-31542857Y59410715D01*
X-31471429Y59267858D01*
X-31471429Y58910715D01*
X-31542857Y58767858D01*
X-31614286Y58696429D01*
X-32971429Y60482143D02*
X-32971429Y60625000D01*
X-32900000Y60767857D01*
X-32828571Y60839286D01*
X-32685714Y60910715D01*
X-32400000Y60982143D01*
X-32042857Y60982143D01*
X-31757143Y60910715D01*
X-31614286Y60839286D01*
X-31542857Y60767857D01*
X-31471429Y60625000D01*
X-31471429Y60482143D01*
X-31542857Y60339286D01*
X-31614286Y60267857D01*
X-31757143Y60196429D01*
X-32042857Y60125000D01*
X-32400000Y60125000D01*
X-32685714Y60196429D01*
X-32828571Y60267857D01*
X-32900000Y60339286D01*
X-32971429Y60482143D01*
X-31471429Y62767857D02*
X-32471429Y62767857D01*
X-32328571Y62767857D02*
X-32400000Y62839285D01*
X-32471429Y62982143D01*
X-32471429Y63196428D01*
X-32400000Y63339285D01*
X-32257143Y63410714D01*
X-31471429Y63410714D01*
X-32257143Y63410714D02*
X-32400000Y63482143D01*
X-32471429Y63625000D01*
X-32471429Y63839285D01*
X-32400000Y63982143D01*
X-32257143Y64053571D01*
X-31471429Y64053571D01*
X-31471429Y64767857D02*
X-32471429Y64767857D01*
X-32328571Y64767857D02*
X-32400000Y64839285D01*
X-32471429Y64982143D01*
X-32471429Y65196428D01*
X-32400000Y65339285D01*
X-32257143Y65410714D01*
X-31471429Y65410714D01*
X-32257143Y65410714D02*
X-32400000Y65482143D01*
X-32471429Y65625000D01*
X-32471429Y65839285D01*
X-32400000Y65982143D01*
X-32257143Y66053571D01*
X-31471429Y66053571D01*
X-33500000Y59750000D02*
X-33500000Y61500000D01*
X-42000000Y59750000D02*
X-30800000Y59750000D01*
X-42000000Y61500000D02*
X-30800000Y61500000D01*
X-33500000Y61500000D02*
X-32913579Y60373496D01*
X-33500000Y61500000D02*
X-34086421Y60373496D01*
X-33500000Y59750000D02*
X-32913579Y60876504D01*
X-33500000Y59750000D02*
X-34086421Y60876504D01*
X-16571427Y51621429D02*
X-16571427Y53121429D01*
X-16214284Y53121429D01*
X-15999999Y53050000D01*
X-15857141Y52907143D01*
X-15785713Y52764286D01*
X-15714284Y52478571D01*
X-15714284Y52264286D01*
X-15785713Y51978571D01*
X-15857141Y51835714D01*
X-15999999Y51692857D01*
X-16214284Y51621429D01*
X-16571427Y51621429D01*
X-14499999Y51692857D02*
X-14642856Y51621429D01*
X-14928570Y51621429D01*
X-15071427Y51692857D01*
X-15142856Y51835714D01*
X-15142856Y52407143D01*
X-15071427Y52550000D01*
X-14928570Y52621429D01*
X-14642856Y52621429D01*
X-14499999Y52550000D01*
X-14428570Y52407143D01*
X-14428570Y52264286D01*
X-15142856Y52121429D01*
X-13571427Y51621429D02*
X-13714285Y51692857D01*
X-13785713Y51835714D01*
X-13785713Y53121429D01*
X-13214285Y52621429D02*
X-12642856Y52621429D01*
X-12999999Y53121429D02*
X-12999999Y51835714D01*
X-12928571Y51692857D01*
X-12785713Y51621429D01*
X-12642856Y51621429D01*
X-11499999Y51621429D02*
X-11499999Y52407143D01*
X-11571428Y52550000D01*
X-11714285Y52621429D01*
X-11999999Y52621429D01*
X-12142856Y52550000D01*
X-11499999Y51692857D02*
X-11642856Y51621429D01*
X-11999999Y51621429D01*
X-12142856Y51692857D01*
X-12214285Y51835714D01*
X-12214285Y51978571D01*
X-12142856Y52121429D01*
X-11999999Y52192857D01*
X-11642856Y52192857D01*
X-11499999Y52264286D01*
X-10857142Y51692857D02*
X-10642856Y51621429D01*
X-10285713Y51621429D01*
X-10142856Y51692857D01*
X-10071427Y51764286D01*
X-9999999Y51907143D01*
X-9999999Y52050000D01*
X-10071427Y52192857D01*
X-10142856Y52264286D01*
X-10285713Y52335714D01*
X-10571427Y52407143D01*
X-10714285Y52478571D01*
X-10785713Y52550000D01*
X-10857142Y52692857D01*
X-10857142Y52835714D01*
X-10785713Y52978571D01*
X-10714285Y53050000D01*
X-10571427Y53121429D01*
X-10214285Y53121429D01*
X-9999999Y53050000D01*
X-9357142Y52621429D02*
X-9357142Y51121429D01*
X-9357142Y52550000D02*
X-9214285Y52621429D01*
X-8928571Y52621429D01*
X-8785714Y52550000D01*
X-8714285Y52478571D01*
X-8642856Y52335714D01*
X-8642856Y51907143D01*
X-8714285Y51764286D01*
X-8785714Y51692857D01*
X-8928571Y51621429D01*
X-9214285Y51621429D01*
X-9357142Y51692857D01*
X-7785713Y51621429D02*
X-7928571Y51692857D01*
X-7999999Y51835714D01*
X-7999999Y53121429D01*
X-7214285Y51621429D02*
X-7214285Y52621429D01*
X-7214285Y53121429D02*
X-7285714Y53050000D01*
X-7214285Y52978571D01*
X-7142857Y53050000D01*
X-7214285Y53121429D01*
X-7214285Y52978571D01*
X-6714285Y52621429D02*
X-6142856Y52621429D01*
X-6499999Y53121429D02*
X-6499999Y51835714D01*
X-6428571Y51692857D01*
X-6285713Y51621429D01*
X-6142856Y51621429D01*
X-5785713Y53121429D02*
X-4785713Y53121429D01*
X-5428570Y51621429D01*
X-3499999Y53121429D02*
X-4214285Y53121429D01*
X-4285714Y52407143D01*
X-4214285Y52478571D01*
X-4071428Y52550000D01*
X-3714285Y52550000D01*
X-3571428Y52478571D01*
X-3499999Y52407143D01*
X-3428571Y52264286D01*
X-3428571Y51907143D01*
X-3499999Y51764286D01*
X-3571428Y51692857D01*
X-3714285Y51621429D01*
X-4071428Y51621429D01*
X-4214285Y51692857D01*
X-4285714Y51764286D01*
X-785714Y51621429D02*
X-1285714Y52335714D01*
X-1642857Y51621429D02*
X-1642857Y53121429D01*
X-1071429Y53121429D01*
X-928571Y53050000D01*
X-857143Y52978571D01*
X-785714Y52835714D01*
X-785714Y52621429D01*
X-857143Y52478571D01*
X-928571Y52407143D01*
X-1071429Y52335714D01*
X-1642857Y52335714D01*
X-214286Y52978571D02*
X-142857Y53050000D01*
X0Y53121429D01*
X357143Y53121429D01*
X500000Y53050000D01*
X571429Y52978571D01*
X642857Y52835714D01*
X642857Y52692857D01*
X571429Y52478571D01*
X-285714Y51621429D01*
X642857Y51621429D01*
X-13714285Y49071429D02*
X-12928571Y50071429D01*
X-13714285Y50071429D02*
X-12928571Y49071429D01*
X-12499999Y50071429D02*
X-12142856Y49071429D01*
X-11785714Y50071429D02*
X-12142856Y49071429D01*
X-12285714Y48714286D01*
X-12357142Y48642857D01*
X-12499999Y48571429D01*
X-11357142Y49071429D02*
X-10571428Y50071429D01*
X-11357142Y50071429D02*
X-10571428Y49071429D01*
X-9999999Y50071429D02*
X-9999999Y48785714D01*
X-10071428Y48642857D01*
X-10214285Y48571429D01*
X-10285713Y48571429D01*
X-9999999Y50571429D02*
X-10071428Y50500000D01*
X-9999999Y50428571D01*
X-9928571Y50500000D01*
X-9999999Y50571429D01*
X-9999999Y50428571D01*
X-9285713Y50071429D02*
X-9285713Y48785714D01*
X-9357142Y48642857D01*
X-9499999Y48571429D01*
X-9571427Y48571429D01*
X-9285713Y50571429D02*
X-9357142Y50500000D01*
X-9285713Y50428571D01*
X-9214285Y50500000D01*
X-9285713Y50571429D01*
X-9285713Y50428571D01*
X-7499999Y50428571D02*
X-7428570Y50500000D01*
X-7285713Y50571429D01*
X-6928570Y50571429D01*
X-6785713Y50500000D01*
X-6714284Y50428571D01*
X-6642856Y50285714D01*
X-6642856Y50142857D01*
X-6714284Y49928571D01*
X-7571427Y49071429D01*
X-6642856Y49071429D01*
X-5714285Y50571429D02*
X-5571428Y50571429D01*
X-5428571Y50500000D01*
X-5357142Y50428571D01*
X-5285713Y50285714D01*
X-5214285Y50000000D01*
X-5214285Y49642857D01*
X-5285713Y49357143D01*
X-5357142Y49214286D01*
X-5428571Y49142857D01*
X-5571428Y49071429D01*
X-5714285Y49071429D01*
X-5857142Y49142857D01*
X-5928571Y49214286D01*
X-5999999Y49357143D01*
X-6071428Y49642857D01*
X-6071428Y50000000D01*
X-5999999Y50285714D01*
X-5928571Y50428571D01*
X-5857142Y50500000D01*
X-5714285Y50571429D01*
X-3785714Y49071429D02*
X-4642857Y49071429D01*
X-4214285Y49071429D02*
X-4214285Y50571429D01*
X-4357142Y50357143D01*
X-4500000Y50214286D01*
X-4642857Y50142857D01*
X-3285714Y50571429D02*
X-2285714Y50571429D01*
X-2928571Y49071429D01*
X-9678571Y46521429D02*
X-10178571Y47235714D01*
X-10535714Y46521429D02*
X-10535714Y48021429D01*
X-9964286Y48021429D01*
X-9821428Y47950000D01*
X-9750000Y47878571D01*
X-9678571Y47735714D01*
X-9678571Y47521429D01*
X-9750000Y47378571D01*
X-9821428Y47307143D01*
X-9964286Y47235714D01*
X-10535714Y47235714D01*
X-9035714Y46521429D02*
X-9035714Y47521429D01*
X-9035714Y48021429D02*
X-9107143Y47950000D01*
X-9035714Y47878571D01*
X-8964286Y47950000D01*
X-9035714Y48021429D01*
X-9035714Y47878571D01*
X-7678571Y47521429D02*
X-7678571Y46307143D01*
X-7750000Y46164286D01*
X-7821428Y46092857D01*
X-7964285Y46021429D01*
X-8178571Y46021429D01*
X-8321428Y46092857D01*
X-7678571Y46592857D02*
X-7821428Y46521429D01*
X-8107142Y46521429D01*
X-8250000Y46592857D01*
X-8321428Y46664286D01*
X-8392857Y46807143D01*
X-8392857Y47235714D01*
X-8321428Y47378571D01*
X-8250000Y47450000D01*
X-8107142Y47521429D01*
X-7821428Y47521429D01*
X-7678571Y47450000D01*
X-6964285Y46521429D02*
X-6964285Y48021429D01*
X-6321428Y46521429D02*
X-6321428Y47307143D01*
X-6392857Y47450000D01*
X-6535714Y47521429D01*
X-6749999Y47521429D01*
X-6892857Y47450000D01*
X-6964285Y47378571D01*
X-5821428Y47521429D02*
X-5249999Y47521429D01*
X-5607142Y48021429D02*
X-5607142Y46735714D01*
X-5535714Y46592857D01*
X-5392856Y46521429D01*
X-5249999Y46521429D01*
X-137071427Y50621429D02*
X-137071427Y52121429D01*
X-136714284Y52121429D01*
X-136499999Y52050000D01*
X-136357141Y51907143D01*
X-136285713Y51764286D01*
X-136214284Y51478571D01*
X-136214284Y51264286D01*
X-136285713Y50978571D01*
X-136357141Y50835714D01*
X-136499999Y50692857D01*
X-136714284Y50621429D01*
X-137071427Y50621429D01*
X-134999999Y50692857D02*
X-135142856Y50621429D01*
X-135428570Y50621429D01*
X-135571427Y50692857D01*
X-135642856Y50835714D01*
X-135642856Y51407143D01*
X-135571427Y51550000D01*
X-135428570Y51621429D01*
X-135142856Y51621429D01*
X-134999999Y51550000D01*
X-134928570Y51407143D01*
X-134928570Y51264286D01*
X-135642856Y51121429D01*
X-134071427Y50621429D02*
X-134214285Y50692857D01*
X-134285713Y50835714D01*
X-134285713Y52121429D01*
X-133714285Y51621429D02*
X-133142856Y51621429D01*
X-133499999Y52121429D02*
X-133499999Y50835714D01*
X-133428571Y50692857D01*
X-133285713Y50621429D01*
X-133142856Y50621429D01*
X-131999999Y50621429D02*
X-131999999Y51407143D01*
X-132071428Y51550000D01*
X-132214285Y51621429D01*
X-132499999Y51621429D01*
X-132642856Y51550000D01*
X-131999999Y50692857D02*
X-132142856Y50621429D01*
X-132499999Y50621429D01*
X-132642856Y50692857D01*
X-132714285Y50835714D01*
X-132714285Y50978571D01*
X-132642856Y51121429D01*
X-132499999Y51192857D01*
X-132142856Y51192857D01*
X-131999999Y51264286D01*
X-131357142Y50692857D02*
X-131142856Y50621429D01*
X-130785713Y50621429D01*
X-130642856Y50692857D01*
X-130571427Y50764286D01*
X-130499999Y50907143D01*
X-130499999Y51050000D01*
X-130571427Y51192857D01*
X-130642856Y51264286D01*
X-130785713Y51335714D01*
X-131071427Y51407143D01*
X-131214285Y51478571D01*
X-131285713Y51550000D01*
X-131357142Y51692857D01*
X-131357142Y51835714D01*
X-131285713Y51978571D01*
X-131214285Y52050000D01*
X-131071427Y52121429D01*
X-130714285Y52121429D01*
X-130499999Y52050000D01*
X-129857142Y51621429D02*
X-129857142Y50121429D01*
X-129857142Y51550000D02*
X-129714285Y51621429D01*
X-129428571Y51621429D01*
X-129285714Y51550000D01*
X-129214285Y51478571D01*
X-129142856Y51335714D01*
X-129142856Y50907143D01*
X-129214285Y50764286D01*
X-129285714Y50692857D01*
X-129428571Y50621429D01*
X-129714285Y50621429D01*
X-129857142Y50692857D01*
X-128285713Y50621429D02*
X-128428571Y50692857D01*
X-128499999Y50835714D01*
X-128499999Y52121429D01*
X-127714285Y50621429D02*
X-127714285Y51621429D01*
X-127714285Y52121429D02*
X-127785714Y52050000D01*
X-127714285Y51978571D01*
X-127642857Y52050000D01*
X-127714285Y52121429D01*
X-127714285Y51978571D01*
X-127214285Y51621429D02*
X-126642856Y51621429D01*
X-126999999Y52121429D02*
X-126999999Y50835714D01*
X-126928571Y50692857D01*
X-126785713Y50621429D01*
X-126642856Y50621429D01*
X-126285713Y52121429D02*
X-125285713Y52121429D01*
X-125928570Y50621429D01*
X-123999999Y52121429D02*
X-124714285Y52121429D01*
X-124785714Y51407143D01*
X-124714285Y51478571D01*
X-124571428Y51550000D01*
X-124214285Y51550000D01*
X-124071428Y51478571D01*
X-123999999Y51407143D01*
X-123928571Y51264286D01*
X-123928571Y50907143D01*
X-123999999Y50764286D01*
X-124071428Y50692857D01*
X-124214285Y50621429D01*
X-124571428Y50621429D01*
X-124714285Y50692857D01*
X-124785714Y50764286D01*
X-121285714Y50621429D02*
X-121785714Y51335714D01*
X-122142857Y50621429D02*
X-122142857Y52121429D01*
X-121571429Y52121429D01*
X-121428571Y52050000D01*
X-121357143Y51978571D01*
X-121285714Y51835714D01*
X-121285714Y51621429D01*
X-121357143Y51478571D01*
X-121428571Y51407143D01*
X-121571429Y51335714D01*
X-122142857Y51335714D01*
X-120714286Y51978571D02*
X-120642857Y52050000D01*
X-120500000Y52121429D01*
X-120142857Y52121429D01*
X-120000000Y52050000D01*
X-119928571Y51978571D01*
X-119857143Y51835714D01*
X-119857143Y51692857D01*
X-119928571Y51478571D01*
X-120785714Y50621429D01*
X-119857143Y50621429D01*
X-134214285Y48071429D02*
X-133428571Y49071429D01*
X-134214285Y49071429D02*
X-133428571Y48071429D01*
X-132999999Y49071429D02*
X-132642856Y48071429D01*
X-132285714Y49071429D02*
X-132642856Y48071429D01*
X-132785714Y47714286D01*
X-132857142Y47642857D01*
X-132999999Y47571429D01*
X-131857142Y48071429D02*
X-131071428Y49071429D01*
X-131857142Y49071429D02*
X-131071428Y48071429D01*
X-130499999Y49071429D02*
X-130499999Y47785714D01*
X-130571428Y47642857D01*
X-130714285Y47571429D01*
X-130785713Y47571429D01*
X-130499999Y49571429D02*
X-130571428Y49500000D01*
X-130499999Y49428571D01*
X-130428571Y49500000D01*
X-130499999Y49571429D01*
X-130499999Y49428571D01*
X-129785713Y49071429D02*
X-129785713Y47785714D01*
X-129857142Y47642857D01*
X-129999999Y47571429D01*
X-130071427Y47571429D01*
X-129785713Y49571429D02*
X-129857142Y49500000D01*
X-129785713Y49428571D01*
X-129714285Y49500000D01*
X-129785713Y49571429D01*
X-129785713Y49428571D01*
X-127999999Y49428571D02*
X-127928570Y49500000D01*
X-127785713Y49571429D01*
X-127428570Y49571429D01*
X-127285713Y49500000D01*
X-127214284Y49428571D01*
X-127142856Y49285714D01*
X-127142856Y49142857D01*
X-127214284Y48928571D01*
X-128071427Y48071429D01*
X-127142856Y48071429D01*
X-126214285Y49571429D02*
X-126071428Y49571429D01*
X-125928571Y49500000D01*
X-125857142Y49428571D01*
X-125785713Y49285714D01*
X-125714285Y49000000D01*
X-125714285Y48642857D01*
X-125785713Y48357143D01*
X-125857142Y48214286D01*
X-125928571Y48142857D01*
X-126071428Y48071429D01*
X-126214285Y48071429D01*
X-126357142Y48142857D01*
X-126428571Y48214286D01*
X-126499999Y48357143D01*
X-126571428Y48642857D01*
X-126571428Y49000000D01*
X-126499999Y49285714D01*
X-126428571Y49428571D01*
X-126357142Y49500000D01*
X-126214285Y49571429D01*
X-124285714Y48071429D02*
X-125142857Y48071429D01*
X-124714285Y48071429D02*
X-124714285Y49571429D01*
X-124857142Y49357143D01*
X-125000000Y49214286D01*
X-125142857Y49142857D01*
X-123785714Y49571429D02*
X-122785714Y49571429D01*
X-123428571Y48071429D01*
X-129535714Y45521429D02*
X-130250000Y45521429D01*
X-130250000Y47021429D01*
X-128464286Y45592857D02*
X-128607143Y45521429D01*
X-128892857Y45521429D01*
X-129035714Y45592857D01*
X-129107143Y45735714D01*
X-129107143Y46307143D01*
X-129035714Y46450000D01*
X-128892857Y46521429D01*
X-128607143Y46521429D01*
X-128464286Y46450000D01*
X-128392857Y46307143D01*
X-128392857Y46164286D01*
X-129107143Y46021429D01*
X-127964286Y46521429D02*
X-127392857Y46521429D01*
X-127750000Y45521429D02*
X-127750000Y46807143D01*
X-127678572Y46950000D01*
X-127535714Y47021429D01*
X-127392857Y47021429D01*
X-127107143Y46521429D02*
X-126535714Y46521429D01*
X-126892857Y47021429D02*
X-126892857Y45735714D01*
X-126821429Y45592857D01*
X-126678571Y45521429D01*
X-126535714Y45521429D01*
D13*
X-124504688Y131745312D02*
X-122726688Y131745312D01*
X-113582688Y131745312D02*
X-111804688Y131745312D01*
X-111804688Y131745312D02*
X-111804688Y129967312D01*
X-111804688Y120823312D02*
X-111804688Y119045312D01*
X-111804688Y119045312D02*
X-113582688Y119045312D01*
X-122726688Y119045312D02*
X-124504688Y119045312D01*
X-124504688Y119045312D02*
X-124504688Y120823312D01*
X-124504688Y129967312D02*
X-124504688Y131745312D01*
X-119742187Y74595312D02*
X-117964187Y74595312D01*
X-108820187Y74595312D02*
X-107042187Y74595312D01*
X-107042187Y74595312D02*
X-107042187Y72817312D01*
X-107042187Y63673312D02*
X-107042187Y61895312D01*
X-107042187Y61895312D02*
X-108820187Y61895312D01*
X-117964187Y61895312D02*
X-119742187Y61895312D01*
X-119742187Y61895312D02*
X-119742187Y63673312D01*
X-119742187Y72817312D02*
X-119742187Y74595312D01*
X-100692187Y74595312D02*
X-98914187Y74595312D01*
X-89770187Y74595312D02*
X-87992187Y74595312D01*
X-87992187Y74595312D02*
X-87992187Y72817312D01*
X-87992187Y63673312D02*
X-87992187Y61895312D01*
X-87992187Y61895312D02*
X-89770187Y61895312D01*
X-98914187Y61895312D02*
X-100692187Y61895312D01*
X-100692187Y61895312D02*
X-100692187Y63673312D01*
X-100692187Y72817312D02*
X-100692187Y74595312D01*
X-114979687Y112695312D02*
X-113201687Y112695312D01*
X-104057687Y112695312D02*
X-102279687Y112695312D01*
X-102279687Y112695312D02*
X-102279687Y110917312D01*
X-102279687Y101773312D02*
X-102279687Y99995312D01*
X-102279687Y99995312D02*
X-104057687Y99995312D01*
X-113201687Y99995312D02*
X-114979687Y99995312D01*
X-114979687Y99995312D02*
X-114979687Y101773312D01*
X-114979687Y110917312D02*
X-114979687Y112695312D01*
X-174510937Y55545312D02*
X-172732937Y55545312D01*
X-163588937Y55545312D02*
X-161810937Y55545312D01*
X-161810937Y55545312D02*
X-161810937Y53767312D01*
X-161810937Y44623312D02*
X-161810937Y42845312D01*
X-161810937Y42845312D02*
X-163588937Y42845312D01*
X-172732937Y42845312D02*
X-174510937Y42845312D01*
X-174510937Y42845312D02*
X-174510937Y44623312D01*
X-174510937Y53767312D02*
X-174510937Y55545312D01*
D14*
X48260000Y161163125D02*
X48260000Y128143125D01*
X48260000Y128143125D02*
X66040000Y128143125D01*
X66040000Y128143125D02*
X66040000Y161163125D01*
X66040000Y161163125D02*
X48260000Y161163125D01*
X53340000Y161163125D02*
X53340000Y162433125D01*
X53340000Y162433125D02*
X60960000Y162433125D01*
X60960000Y162433125D02*
X60960000Y161163125D01*
D13*
X-103829087Y156421875D02*
X-103829087Y144356875D01*
X-103829087Y144356875D02*
X-113430287Y144356875D01*
X-113430287Y144356875D02*
X-113430287Y156421875D01*
X-4850964Y156421875D02*
X-4850964Y144356875D01*
X-4850964Y144356875D02*
X-14452164Y144356875D01*
X-14452164Y144356875D02*
X-14452164Y156421875D01*
X-198323437Y74595312D02*
X-196545437Y74595312D01*
X-187401437Y74595312D02*
X-185623437Y74595312D01*
X-185623437Y74595312D02*
X-185623437Y72817312D01*
X-185623437Y63673312D02*
X-185623437Y61895312D01*
X-185623437Y61895312D02*
X-187401437Y61895312D01*
X-196545437Y61895312D02*
X-198323437Y61895312D01*
X-198323437Y61895312D02*
X-198323437Y63673312D01*
X-198323437Y72817312D02*
X-198323437Y74595312D01*
X99080074Y90445312D02*
X97302074Y90445312D01*
X88158074Y90445312D02*
X86380074Y90445312D01*
X86380074Y90445312D02*
X86380074Y92223312D01*
X86380074Y101367312D02*
X86380074Y103145312D01*
X86380074Y103145312D02*
X88158074Y103145312D01*
X97302074Y103145312D02*
X99080074Y103145312D01*
X99080074Y103145312D02*
X99080074Y101367312D01*
X99080074Y92223312D02*
X99080074Y90445312D01*
X86392186Y103170312D02*
X88170186Y103170312D01*
X97314186Y103170312D02*
X99092186Y103170312D01*
X99092186Y103170312D02*
X99092186Y101392312D01*
X99092186Y92248312D02*
X99092186Y90470312D01*
X99092186Y90470312D02*
X97314186Y90470312D01*
X88170186Y90470312D02*
X86392186Y90470312D01*
X86392186Y90470312D02*
X86392186Y92248312D01*
X86392186Y101392312D02*
X86392186Y103170312D01*
X-176892187Y74595312D02*
X-175114187Y74595312D01*
X-165970187Y74595312D02*
X-164192187Y74595312D01*
X-164192187Y74595312D02*
X-164192187Y72817312D01*
X-164192187Y63673312D02*
X-164192187Y61895312D01*
X-164192187Y61895312D02*
X-165970187Y61895312D01*
X-175114187Y61895312D02*
X-176892187Y61895312D01*
X-176892187Y61895312D02*
X-176892187Y63673312D01*
X-176892187Y72817312D02*
X-176892187Y74595312D01*
X64960936Y93645312D02*
X66738936Y93645312D01*
X75882936Y93645312D02*
X77660936Y93645312D01*
X77660936Y93645312D02*
X77660936Y91867312D01*
X77660936Y82723312D02*
X77660936Y80945312D01*
X77660936Y80945312D02*
X75882936Y80945312D01*
X66738936Y80945312D02*
X64960936Y80945312D01*
X64960936Y80945312D02*
X64960936Y82723312D01*
X64960936Y91867312D02*
X64960936Y93645312D01*
X69723436Y150795312D02*
X71501436Y150795312D01*
X80645436Y150795312D02*
X82423436Y150795312D01*
X82423436Y150795312D02*
X82423436Y149017312D01*
X82423436Y139873312D02*
X82423436Y138095312D01*
X82423436Y138095312D02*
X80645436Y138095312D01*
X71501436Y138095312D02*
X69723436Y138095312D01*
X69723436Y138095312D02*
X69723436Y139873312D01*
X69723436Y149017312D02*
X69723436Y150795312D01*
X88773436Y150795312D02*
X90551436Y150795312D01*
X99695436Y150795312D02*
X101473436Y150795312D01*
X101473436Y150795312D02*
X101473436Y149017312D01*
X101473436Y139873312D02*
X101473436Y138095312D01*
X101473436Y138095312D02*
X99695436Y138095312D01*
X90551436Y138095312D02*
X88773436Y138095312D01*
X88773436Y138095312D02*
X88773436Y139873312D01*
X88773436Y149017312D02*
X88773436Y150795312D01*
X60198436Y112695312D02*
X61976436Y112695312D01*
X71120436Y112695312D02*
X72898436Y112695312D01*
X72898436Y112695312D02*
X72898436Y110917312D01*
X72898436Y101773312D02*
X72898436Y99995312D01*
X72898436Y99995312D02*
X71120436Y99995312D01*
X61976436Y99995312D02*
X60198436Y99995312D01*
X60198436Y99995312D02*
X60198436Y101773312D01*
X60198436Y110917312D02*
X60198436Y112695312D01*
X26860936Y55545312D02*
X28638936Y55545312D01*
X37782936Y55545312D02*
X39560936Y55545312D01*
X39560936Y55545312D02*
X39560936Y53767312D01*
X39560936Y44623312D02*
X39560936Y42845312D01*
X39560936Y42845312D02*
X37782936Y42845312D01*
X28638936Y42845312D02*
X26860936Y42845312D01*
X26860936Y42845312D02*
X26860936Y44623312D01*
X26860936Y53767312D02*
X26860936Y55545312D01*
X88773436Y74595312D02*
X90551436Y74595312D01*
X99695436Y74595312D02*
X101473436Y74595312D01*
X101473436Y74595312D02*
X101473436Y72817312D01*
X101473436Y63673312D02*
X101473436Y61895312D01*
X101473436Y61895312D02*
X99695436Y61895312D01*
X90551436Y61895312D02*
X88773436Y61895312D01*
X88773436Y61895312D02*
X88773436Y63673312D01*
X88773436Y72817312D02*
X88773436Y74595312D01*
X-35051564Y112695312D02*
X-33273564Y112695312D01*
X-24129564Y112695312D02*
X-22351564Y112695312D01*
X-22351564Y112695312D02*
X-22351564Y110917312D01*
X-22351564Y101773312D02*
X-22351564Y99995312D01*
X-22351564Y99995312D02*
X-24129564Y99995312D01*
X-33273564Y99995312D02*
X-35051564Y99995312D01*
X-35051564Y99995312D02*
X-35051564Y101773312D01*
X-35051564Y110917312D02*
X-35051564Y112695312D01*
X107823436Y131745312D02*
X109601436Y131745312D01*
X118745436Y131745312D02*
X120523436Y131745312D01*
X120523436Y131745312D02*
X120523436Y129967312D01*
X120523436Y120823312D02*
X120523436Y119045312D01*
X120523436Y119045312D02*
X118745436Y119045312D01*
X109601436Y119045312D02*
X107823436Y119045312D01*
X107823436Y119045312D02*
X107823436Y120823312D01*
X107823436Y129967312D02*
X107823436Y131745312D01*
X107823436Y93645312D02*
X109601436Y93645312D01*
X118745436Y93645312D02*
X120523436Y93645312D01*
X120523436Y93645312D02*
X120523436Y91867312D01*
X120523436Y82723312D02*
X120523436Y80945312D01*
X120523436Y80945312D02*
X118745436Y80945312D01*
X109601436Y80945312D02*
X107823436Y80945312D01*
X107823436Y80945312D02*
X107823436Y82723312D01*
X107823436Y91867312D02*
X107823436Y93645312D01*
X107823436Y74595312D02*
X109601436Y74595312D01*
X118745436Y74595312D02*
X120523436Y74595312D01*
X120523436Y74595312D02*
X120523436Y72817312D01*
X120523436Y63673312D02*
X120523436Y61895312D01*
X120523436Y61895312D02*
X118745436Y61895312D01*
X109601436Y61895312D02*
X107823436Y61895312D01*
X107823436Y61895312D02*
X107823436Y63673312D01*
X107823436Y72817312D02*
X107823436Y74595312D01*
X107823436Y112695312D02*
X109601436Y112695312D01*
X118745436Y112695312D02*
X120523436Y112695312D01*
X120523436Y112695312D02*
X120523436Y110917312D01*
X120523436Y101773312D02*
X120523436Y99995312D01*
X120523436Y99995312D02*
X118745436Y99995312D01*
X109601436Y99995312D02*
X107823436Y99995312D01*
X107823436Y99995312D02*
X107823436Y101773312D01*
X107823436Y110917312D02*
X107823436Y112695312D01*
X22098436Y112695312D02*
X23876436Y112695312D01*
X33020436Y112695312D02*
X34798436Y112695312D01*
X34798436Y112695312D02*
X34798436Y110917312D01*
X34798436Y101773312D02*
X34798436Y99995312D01*
X34798436Y99995312D02*
X33020436Y99995312D01*
X23876436Y99995312D02*
X22098436Y99995312D01*
X22098436Y99995312D02*
X22098436Y101773312D01*
X22098436Y110917312D02*
X22098436Y112695312D01*
X3048436Y112695312D02*
X4826436Y112695312D01*
X13970436Y112695312D02*
X15748436Y112695312D01*
X15748436Y112695312D02*
X15748436Y110917312D01*
X15748436Y101773312D02*
X15748436Y99995312D01*
X15748436Y99995312D02*
X13970436Y99995312D01*
X4826436Y99995312D02*
X3048436Y99995312D01*
X3048436Y99995312D02*
X3048436Y101773312D01*
X3048436Y110917312D02*
X3048436Y112695312D01*
X-39814064Y74595312D02*
X-38036064Y74595312D01*
X-28892064Y74595312D02*
X-27114064Y74595312D01*
X-27114064Y74595312D02*
X-27114064Y72817312D01*
X-27114064Y63673312D02*
X-27114064Y61895312D01*
X-27114064Y61895312D02*
X-28892064Y61895312D01*
X-38036064Y61895312D02*
X-39814064Y61895312D01*
X-39814064Y61895312D02*
X-39814064Y63673312D01*
X-39814064Y72817312D02*
X-39814064Y74595312D01*
X-20764064Y74595312D02*
X-18986064Y74595312D01*
X-9842064Y74595312D02*
X-8064064Y74595312D01*
X-8064064Y74595312D02*
X-8064064Y72817312D01*
X-8064064Y63673312D02*
X-8064064Y61895312D01*
X-8064064Y61895312D02*
X-9842064Y61895312D01*
X-18986064Y61895312D02*
X-20764064Y61895312D01*
X-20764064Y61895312D02*
X-20764064Y63673312D01*
X-20764064Y72817312D02*
X-20764064Y74595312D01*
X69723436Y55545312D02*
X71501436Y55545312D01*
X80645436Y55545312D02*
X82423436Y55545312D01*
X82423436Y55545312D02*
X82423436Y53767312D01*
X82423436Y44623312D02*
X82423436Y42845312D01*
X82423436Y42845312D02*
X80645436Y42845312D01*
X71501436Y42845312D02*
X69723436Y42845312D01*
X69723436Y42845312D02*
X69723436Y44623312D01*
X69723436Y53767312D02*
X69723436Y55545312D01*
X7810936Y93645312D02*
X9588936Y93645312D01*
X18732936Y93645312D02*
X20510936Y93645312D01*
X20510936Y93645312D02*
X20510936Y91867312D01*
X20510936Y82723312D02*
X20510936Y80945312D01*
X20510936Y80945312D02*
X18732936Y80945312D01*
X9588936Y80945312D02*
X7810936Y80945312D01*
X7810936Y80945312D02*
X7810936Y82723312D01*
X7810936Y91867312D02*
X7810936Y93645312D01*
X-11239064Y93645312D02*
X-9461064Y93645312D01*
X-317064Y93645312D02*
X1460936Y93645312D01*
X1460936Y93645312D02*
X1460936Y91867312D01*
X1460936Y82723312D02*
X1460936Y80945312D01*
X1460936Y80945312D02*
X-317064Y80945312D01*
X-9461064Y80945312D02*
X-11239064Y80945312D01*
X-11239064Y80945312D02*
X-11239064Y82723312D01*
X-11239064Y91867312D02*
X-11239064Y93645312D01*
X-6476564Y131745312D02*
X-4698564Y131745312D01*
X4445436Y131745312D02*
X6223436Y131745312D01*
X6223436Y131745312D02*
X6223436Y129967312D01*
X6223436Y120823312D02*
X6223436Y119045312D01*
X6223436Y119045312D02*
X4445436Y119045312D01*
X-4698564Y119045312D02*
X-6476564Y119045312D01*
X-6476564Y119045312D02*
X-6476564Y120823312D01*
X-6476564Y129967312D02*
X-6476564Y131745312D01*
X-25526564Y131745312D02*
X-23748564Y131745312D01*
X-14604564Y131745312D02*
X-12826564Y131745312D01*
X-12826564Y131745312D02*
X-12826564Y129967312D01*
X-12826564Y120823312D02*
X-12826564Y119045312D01*
X-12826564Y119045312D02*
X-14604564Y119045312D01*
X-23748564Y119045312D02*
X-25526564Y119045312D01*
X-25526564Y119045312D02*
X-25526564Y120823312D01*
X-25526564Y129967312D02*
X-25526564Y131745312D01*
X12573436Y131745312D02*
X14351436Y131745312D01*
X23495436Y131745312D02*
X25273436Y131745312D01*
X25273436Y131745312D02*
X25273436Y129967312D01*
X25273436Y120823312D02*
X25273436Y119045312D01*
X25273436Y119045312D02*
X23495436Y119045312D01*
X14351436Y119045312D02*
X12573436Y119045312D01*
X12573436Y119045312D02*
X12573436Y120823312D01*
X12573436Y129967312D02*
X12573436Y131745312D01*
X31623436Y131745312D02*
X33401436Y131745312D01*
X42545436Y131745312D02*
X44323436Y131745312D01*
X44323436Y131745312D02*
X44323436Y129967312D01*
X44323436Y120823312D02*
X44323436Y119045312D01*
X44323436Y119045312D02*
X42545436Y119045312D01*
X33401436Y119045312D02*
X31623436Y119045312D01*
X31623436Y119045312D02*
X31623436Y120823312D01*
X31623436Y129967312D02*
X31623436Y131745312D01*
X-30289064Y93645312D02*
X-28511064Y93645312D01*
X-19367064Y93645312D02*
X-17589064Y93645312D01*
X-17589064Y93645312D02*
X-17589064Y91867312D01*
X-17589064Y82723312D02*
X-17589064Y80945312D01*
X-17589064Y80945312D02*
X-19367064Y80945312D01*
X-28511064Y80945312D02*
X-30289064Y80945312D01*
X-30289064Y80945312D02*
X-30289064Y82723312D01*
X-30289064Y91867312D02*
X-30289064Y93645312D01*
X-16001564Y112695312D02*
X-14223564Y112695312D01*
X-5079564Y112695312D02*
X-3301564Y112695312D01*
X-3301564Y112695312D02*
X-3301564Y110917312D01*
X-3301564Y101773312D02*
X-3301564Y99995312D01*
X-3301564Y99995312D02*
X-5079564Y99995312D01*
X-14223564Y99995312D02*
X-16001564Y99995312D01*
X-16001564Y99995312D02*
X-16001564Y101773312D01*
X-16001564Y110917312D02*
X-16001564Y112695312D01*
X-49339064Y93645312D02*
X-47561064Y93645312D01*
X-38417064Y93645312D02*
X-36639064Y93645312D01*
X-36639064Y93645312D02*
X-36639064Y91867312D01*
X-36639064Y82723312D02*
X-36639064Y80945312D01*
X-36639064Y80945312D02*
X-38417064Y80945312D01*
X-47561064Y80945312D02*
X-49339064Y80945312D01*
X-49339064Y80945312D02*
X-49339064Y82723312D01*
X-49339064Y91867312D02*
X-49339064Y93645312D01*
X31623436Y150795312D02*
X33401436Y150795312D01*
X42545436Y150795312D02*
X44323436Y150795312D01*
X44323436Y150795312D02*
X44323436Y149017312D01*
X44323436Y139873312D02*
X44323436Y138095312D01*
X44323436Y138095312D02*
X42545436Y138095312D01*
X33401436Y138095312D02*
X31623436Y138095312D01*
X31623436Y138095312D02*
X31623436Y139873312D01*
X31623436Y149017312D02*
X31623436Y150795312D01*
X12573436Y150795312D02*
X14351436Y150795312D01*
X23495436Y150795312D02*
X25273436Y150795312D01*
X25273436Y150795312D02*
X25273436Y149017312D01*
X25273436Y139873312D02*
X25273436Y138095312D01*
X25273436Y138095312D02*
X23495436Y138095312D01*
X14351436Y138095312D02*
X12573436Y138095312D01*
X12573436Y138095312D02*
X12573436Y139873312D01*
X12573436Y149017312D02*
X12573436Y150795312D01*
X-6476564Y150795312D02*
X-4698564Y150795312D01*
X4445436Y150795312D02*
X6223436Y150795312D01*
X6223436Y150795312D02*
X6223436Y149017312D01*
X6223436Y139873312D02*
X6223436Y138095312D01*
X6223436Y138095312D02*
X4445436Y138095312D01*
X-4698564Y138095312D02*
X-6476564Y138095312D01*
X-6476564Y138095312D02*
X-6476564Y139873312D01*
X-6476564Y149017312D02*
X-6476564Y150795312D01*
X-25526564Y150795312D02*
X-23748564Y150795312D01*
X-14604564Y150795312D02*
X-12826564Y150795312D01*
X-12826564Y150795312D02*
X-12826564Y149017312D01*
X-12826564Y139873312D02*
X-12826564Y138095312D01*
X-12826564Y138095312D02*
X-14604564Y138095312D01*
X-23748564Y138095312D02*
X-25526564Y138095312D01*
X-25526564Y138095312D02*
X-25526564Y139873312D01*
X-25526564Y149017312D02*
X-25526564Y150795312D01*
X-44576564Y150795312D02*
X-42798564Y150795312D01*
X-33654564Y150795312D02*
X-31876564Y150795312D01*
X-31876564Y150795312D02*
X-31876564Y149017312D01*
X-31876564Y139873312D02*
X-31876564Y138095312D01*
X-31876564Y138095312D02*
X-33654564Y138095312D01*
X-42798564Y138095312D02*
X-44576564Y138095312D01*
X-44576564Y138095312D02*
X-44576564Y139873312D01*
X-44576564Y149017312D02*
X-44576564Y150795312D01*
X88773436Y55545312D02*
X90551436Y55545312D01*
X99695436Y55545312D02*
X101473436Y55545312D01*
X101473436Y55545312D02*
X101473436Y53767312D01*
X101473436Y44623312D02*
X101473436Y42845312D01*
X101473436Y42845312D02*
X99695436Y42845312D01*
X90551436Y42845312D02*
X88773436Y42845312D01*
X88773436Y42845312D02*
X88773436Y44623312D01*
X88773436Y53767312D02*
X88773436Y55545312D01*
X107823436Y150795312D02*
X109601436Y150795312D01*
X118745436Y150795312D02*
X120523436Y150795312D01*
X120523436Y150795312D02*
X120523436Y149017312D01*
X120523436Y139873312D02*
X120523436Y138095312D01*
X120523436Y138095312D02*
X118745436Y138095312D01*
X109601436Y138095312D02*
X107823436Y138095312D01*
X107823436Y138095312D02*
X107823436Y139873312D01*
X107823436Y149017312D02*
X107823436Y150795312D01*
X17335936Y74595312D02*
X19113936Y74595312D01*
X28257936Y74595312D02*
X30035936Y74595312D01*
X30035936Y74595312D02*
X30035936Y72817312D01*
X30035936Y63673312D02*
X30035936Y61895312D01*
X30035936Y61895312D02*
X28257936Y61895312D01*
X19113936Y61895312D02*
X17335936Y61895312D01*
X17335936Y61895312D02*
X17335936Y63673312D01*
X17335936Y72817312D02*
X17335936Y74595312D01*
X-1714064Y74595312D02*
X63936Y74595312D01*
X9207936Y74595312D02*
X10985936Y74595312D01*
X10985936Y74595312D02*
X10985936Y72817312D01*
X10985936Y63673312D02*
X10985936Y61895312D01*
X10985936Y61895312D02*
X9207936Y61895312D01*
X63936Y61895312D02*
X-1714064Y61895312D01*
X-1714064Y61895312D02*
X-1714064Y63673312D01*
X-1714064Y72817312D02*
X-1714064Y74595312D01*
X26860936Y93645312D02*
X28638936Y93645312D01*
X37782936Y93645312D02*
X39560936Y93645312D01*
X39560936Y93645312D02*
X39560936Y91867312D01*
X39560936Y82723312D02*
X39560936Y80945312D01*
X39560936Y80945312D02*
X37782936Y80945312D01*
X28638936Y80945312D02*
X26860936Y80945312D01*
X26860936Y80945312D02*
X26860936Y82723312D01*
X26860936Y91867312D02*
X26860936Y93645312D01*
X36385936Y74595312D02*
X38163936Y74595312D01*
X47307936Y74595312D02*
X49085936Y74595312D01*
X49085936Y74595312D02*
X49085936Y72817312D01*
X49085936Y63673312D02*
X49085936Y61895312D01*
X49085936Y61895312D02*
X47307936Y61895312D01*
X38163936Y61895312D02*
X36385936Y61895312D01*
X36385936Y61895312D02*
X36385936Y63673312D01*
X36385936Y72817312D02*
X36385936Y74595312D01*
X45910936Y93645312D02*
X47688936Y93645312D01*
X56832936Y93645312D02*
X58610936Y93645312D01*
X58610936Y93645312D02*
X58610936Y91867312D01*
X58610936Y82723312D02*
X58610936Y80945312D01*
X58610936Y80945312D02*
X56832936Y80945312D01*
X47688936Y80945312D02*
X45910936Y80945312D01*
X45910936Y80945312D02*
X45910936Y82723312D01*
X45910936Y91867312D02*
X45910936Y93645312D01*
X-157842187Y74595312D02*
X-156064187Y74595312D01*
X-146920187Y74595312D02*
X-145142187Y74595312D01*
X-145142187Y74595312D02*
X-145142187Y72817312D01*
X-145142187Y63673312D02*
X-145142187Y61895312D01*
X-145142187Y61895312D02*
X-146920187Y61895312D01*
X-156064187Y61895312D02*
X-157842187Y61895312D01*
X-157842187Y61895312D02*
X-157842187Y63673312D01*
X-157842187Y72817312D02*
X-157842187Y74595312D01*
X-138792187Y74595312D02*
X-137014187Y74595312D01*
X-127870187Y74595312D02*
X-126092187Y74595312D01*
X-126092187Y74595312D02*
X-126092187Y72817312D01*
X-126092187Y63673312D02*
X-126092187Y61895312D01*
X-126092187Y61895312D02*
X-127870187Y61895312D01*
X-137014187Y61895312D02*
X-138792187Y61895312D01*
X-138792187Y61895312D02*
X-138792187Y63673312D01*
X-138792187Y72817312D02*
X-138792187Y74595312D01*
X-176892187Y55545312D02*
X-175114187Y55545312D01*
X-165970187Y55545312D02*
X-164192187Y55545312D01*
X-164192187Y55545312D02*
X-164192187Y53767312D01*
X-164192187Y44623312D02*
X-164192187Y42845312D01*
X-164192187Y42845312D02*
X-165970187Y42845312D01*
X-175114187Y42845312D02*
X-176892187Y42845312D01*
X-176892187Y42845312D02*
X-176892187Y44623312D01*
X-176892187Y53767312D02*
X-176892187Y55545312D01*
X-153079687Y112695312D02*
X-151301687Y112695312D01*
X-142157687Y112695312D02*
X-140379687Y112695312D01*
X-140379687Y112695312D02*
X-140379687Y110917312D01*
X-140379687Y101773312D02*
X-140379687Y99995312D01*
X-140379687Y99995312D02*
X-142157687Y99995312D01*
X-151301687Y99995312D02*
X-153079687Y99995312D01*
X-153079687Y99995312D02*
X-153079687Y101773312D01*
X-153079687Y110917312D02*
X-153079687Y112695312D01*
X-200704687Y131745312D02*
X-198926687Y131745312D01*
X-189782687Y131745312D02*
X-188004687Y131745312D01*
X-188004687Y131745312D02*
X-188004687Y129967312D01*
X-188004687Y120823312D02*
X-188004687Y119045312D01*
X-188004687Y119045312D02*
X-189782687Y119045312D01*
X-198926687Y119045312D02*
X-200704687Y119045312D01*
X-200704687Y119045312D02*
X-200704687Y120823312D01*
X-200704687Y129967312D02*
X-200704687Y131745312D01*
X-148317187Y93645312D02*
X-146539187Y93645312D01*
X-137395187Y93645312D02*
X-135617187Y93645312D01*
X-135617187Y93645312D02*
X-135617187Y91867312D01*
X-135617187Y82723312D02*
X-135617187Y80945312D01*
X-135617187Y80945312D02*
X-137395187Y80945312D01*
X-146539187Y80945312D02*
X-148317187Y80945312D01*
X-148317187Y80945312D02*
X-148317187Y82723312D01*
X-148317187Y91867312D02*
X-148317187Y93645312D01*
X-172129687Y112695312D02*
X-170351687Y112695312D01*
X-161207687Y112695312D02*
X-159429687Y112695312D01*
X-159429687Y112695312D02*
X-159429687Y110917312D01*
X-159429687Y101773312D02*
X-159429687Y99995312D01*
X-159429687Y99995312D02*
X-161207687Y99995312D01*
X-170351687Y99995312D02*
X-172129687Y99995312D01*
X-172129687Y99995312D02*
X-172129687Y101773312D01*
X-172129687Y110917312D02*
X-172129687Y112695312D01*
X-105454688Y131745312D02*
X-103676688Y131745312D01*
X-94532688Y131745312D02*
X-92754688Y131745312D01*
X-92754688Y131745312D02*
X-92754688Y129967312D01*
X-92754688Y120823312D02*
X-92754688Y119045312D01*
X-92754688Y119045312D02*
X-94532688Y119045312D01*
X-103676688Y119045312D02*
X-105454688Y119045312D01*
X-105454688Y119045312D02*
X-105454688Y120823312D01*
X-105454688Y129967312D02*
X-105454688Y131745312D01*
X-143554687Y131745312D02*
X-141776687Y131745312D01*
X-132632687Y131745312D02*
X-130854687Y131745312D01*
X-130854687Y131745312D02*
X-130854687Y129967312D01*
X-130854687Y120823312D02*
X-130854687Y119045312D01*
X-130854687Y119045312D02*
X-132632687Y119045312D01*
X-141776687Y119045312D02*
X-143554687Y119045312D01*
X-143554687Y119045312D02*
X-143554687Y120823312D01*
X-143554687Y129967312D02*
X-143554687Y131745312D01*
X-162604687Y131745312D02*
X-160826687Y131745312D01*
X-151682687Y131745312D02*
X-149904687Y131745312D01*
X-149904687Y131745312D02*
X-149904687Y129967312D01*
X-149904687Y120823312D02*
X-149904687Y119045312D01*
X-149904687Y119045312D02*
X-151682687Y119045312D01*
X-160826687Y119045312D02*
X-162604687Y119045312D01*
X-162604687Y119045312D02*
X-162604687Y120823312D01*
X-162604687Y129967312D02*
X-162604687Y131745312D01*
X-181654687Y131745312D02*
X-179876687Y131745312D01*
X-170732687Y131745312D02*
X-168954687Y131745312D01*
X-168954687Y131745312D02*
X-168954687Y129967312D01*
X-168954687Y120823312D02*
X-168954687Y119045312D01*
X-168954687Y119045312D02*
X-170732687Y119045312D01*
X-179876687Y119045312D02*
X-181654687Y119045312D01*
X-181654687Y119045312D02*
X-181654687Y120823312D01*
X-181654687Y129967312D02*
X-181654687Y131745312D01*
X-110217187Y93645312D02*
X-108439187Y93645312D01*
X-99295187Y93645312D02*
X-97517187Y93645312D01*
X-97517187Y93645312D02*
X-97517187Y91867312D01*
X-97517187Y82723312D02*
X-97517187Y80945312D01*
X-97517187Y80945312D02*
X-99295187Y80945312D01*
X-108439187Y80945312D02*
X-110217187Y80945312D01*
X-110217187Y80945312D02*
X-110217187Y82723312D01*
X-110217187Y91867312D02*
X-110217187Y93645312D01*
X-105454687Y150795312D02*
X-103676687Y150795312D01*
X-94532687Y150795312D02*
X-92754687Y150795312D01*
X-92754687Y150795312D02*
X-92754687Y149017312D01*
X-92754687Y139873312D02*
X-92754687Y138095312D01*
X-92754687Y138095312D02*
X-94532687Y138095312D01*
X-103676687Y138095312D02*
X-105454687Y138095312D01*
X-105454687Y138095312D02*
X-105454687Y139873312D01*
X-105454687Y149017312D02*
X-105454687Y150795312D01*
X-124504688Y150795312D02*
X-122726688Y150795312D01*
X-113582688Y150795312D02*
X-111804688Y150795312D01*
X-111804688Y150795312D02*
X-111804688Y149017312D01*
X-111804688Y139873312D02*
X-111804688Y138095312D01*
X-111804688Y138095312D02*
X-113582688Y138095312D01*
X-122726688Y138095312D02*
X-124504688Y138095312D01*
X-124504688Y138095312D02*
X-124504688Y139873312D01*
X-124504688Y149017312D02*
X-124504688Y150795312D01*
X-143554687Y150795312D02*
X-141776687Y150795312D01*
X-132632687Y150795312D02*
X-130854687Y150795312D01*
X-130854687Y150795312D02*
X-130854687Y149017312D01*
X-130854687Y139873312D02*
X-130854687Y138095312D01*
X-130854687Y138095312D02*
X-132632687Y138095312D01*
X-141776687Y138095312D02*
X-143554687Y138095312D01*
X-143554687Y138095312D02*
X-143554687Y139873312D01*
X-143554687Y149017312D02*
X-143554687Y150795312D01*
X-162604687Y150795312D02*
X-160826687Y150795312D01*
X-151682687Y150795312D02*
X-149904687Y150795312D01*
X-149904687Y150795312D02*
X-149904687Y149017312D01*
X-149904687Y139873312D02*
X-149904687Y138095312D01*
X-149904687Y138095312D02*
X-151682687Y138095312D01*
X-160826687Y138095312D02*
X-162604687Y138095312D01*
X-162604687Y138095312D02*
X-162604687Y139873312D01*
X-162604687Y149017312D02*
X-162604687Y150795312D01*
X-181654687Y150795312D02*
X-179876687Y150795312D01*
X-170732687Y150795312D02*
X-168954687Y150795312D01*
X-168954687Y150795312D02*
X-168954687Y149017312D01*
X-168954687Y139873312D02*
X-168954687Y138095312D01*
X-168954687Y138095312D02*
X-170732687Y138095312D01*
X-179876687Y138095312D02*
X-181654687Y138095312D01*
X-181654687Y138095312D02*
X-181654687Y139873312D01*
X-181654687Y149017312D02*
X-181654687Y150795312D01*
X-134029687Y112695312D02*
X-132251687Y112695312D01*
X-123107687Y112695312D02*
X-121329687Y112695312D01*
X-121329687Y112695312D02*
X-121329687Y110917312D01*
X-121329687Y101773312D02*
X-121329687Y99995312D01*
X-121329687Y99995312D02*
X-123107687Y99995312D01*
X-132251687Y99995312D02*
X-134029687Y99995312D01*
X-134029687Y99995312D02*
X-134029687Y101773312D01*
X-134029687Y110917312D02*
X-134029687Y112695312D01*
X-129267187Y93645312D02*
X-127489187Y93645312D01*
X-118345187Y93645312D02*
X-116567187Y93645312D01*
X-116567187Y93645312D02*
X-116567187Y91867312D01*
X-116567187Y82723312D02*
X-116567187Y80945312D01*
X-116567187Y80945312D02*
X-118345187Y80945312D01*
X-127489187Y80945312D02*
X-129267187Y80945312D01*
X-129267187Y80945312D02*
X-129267187Y82723312D01*
X-129267187Y91867312D02*
X-129267187Y93645312D01*
X-167367187Y93645312D02*
X-165589187Y93645312D01*
X-156445187Y93645312D02*
X-154667187Y93645312D01*
X-154667187Y93645312D02*
X-154667187Y91867312D01*
X-154667187Y82723312D02*
X-154667187Y80945312D01*
X-154667187Y80945312D02*
X-156445187Y80945312D01*
X-165589187Y80945312D02*
X-167367187Y80945312D01*
X-167367187Y80945312D02*
X-167367187Y82723312D01*
X-167367187Y91867312D02*
X-167367187Y93645312D01*
X-200704687Y150795312D02*
X-198926687Y150795312D01*
X-189782687Y150795312D02*
X-188004687Y150795312D01*
X-188004687Y150795312D02*
X-188004687Y149017312D01*
X-188004687Y139873312D02*
X-188004687Y138095312D01*
X-188004687Y138095312D02*
X-189782687Y138095312D01*
X-198926687Y138095312D02*
X-200704687Y138095312D01*
X-200704687Y138095312D02*
X-200704687Y139873312D01*
X-200704687Y149017312D02*
X-200704687Y150795312D01*
X-86404688Y150795312D02*
X-84626688Y150795312D01*
X-75482688Y150795312D02*
X-73704688Y150795312D01*
X-73704688Y150795312D02*
X-73704688Y149017312D01*
X-73704688Y139873312D02*
X-73704688Y138095312D01*
X-73704688Y138095312D02*
X-75482688Y138095312D01*
X-84626688Y138095312D02*
X-86404688Y138095312D01*
X-86404688Y138095312D02*
X-86404688Y139873312D01*
X-86404688Y149017312D02*
X-86404688Y150795312D01*
X-95929687Y112695312D02*
X-94151687Y112695312D01*
X-85007687Y112695312D02*
X-83229687Y112695312D01*
X-83229687Y112695312D02*
X-83229687Y110917312D01*
X-83229687Y101773312D02*
X-83229687Y99995312D01*
X-83229687Y99995312D02*
X-85007687Y99995312D01*
X-94151687Y99995312D02*
X-95929687Y99995312D01*
X-95929687Y99995312D02*
X-95929687Y101773312D01*
X-95929687Y110917312D02*
X-95929687Y112695312D01*
X-54101564Y112695312D02*
X-52323564Y112695312D01*
X-43179564Y112695312D02*
X-41401564Y112695312D01*
X-41401564Y112695312D02*
X-41401564Y110917312D01*
X-41401564Y101773312D02*
X-41401564Y99995312D01*
X-41401564Y99995312D02*
X-43179564Y99995312D01*
X-52323564Y99995312D02*
X-54101564Y99995312D01*
X-54101564Y99995312D02*
X-54101564Y101773312D01*
X-54101564Y110917312D02*
X-54101564Y112695312D01*
X-44576564Y131745312D02*
X-42798564Y131745312D01*
X-33654564Y131745312D02*
X-31876564Y131745312D01*
X-31876564Y131745312D02*
X-31876564Y129967312D01*
X-31876564Y120823312D02*
X-31876564Y119045312D01*
X-31876564Y119045312D02*
X-33654564Y119045312D01*
X-42798564Y119045312D02*
X-44576564Y119045312D01*
X-44576564Y119045312D02*
X-44576564Y120823312D01*
X-44576564Y129967312D02*
X-44576564Y131745312D01*
X107823436Y55545312D02*
X109601436Y55545312D01*
X118745436Y55545312D02*
X120523436Y55545312D01*
X120523436Y55545312D02*
X120523436Y53767312D01*
X120523436Y44623312D02*
X120523436Y42845312D01*
X120523436Y42845312D02*
X118745436Y42845312D01*
X109601436Y42845312D02*
X107823436Y42845312D01*
X107823436Y42845312D02*
X107823436Y44623312D01*
X107823436Y53767312D02*
X107823436Y55545312D01*
X50673436Y131745312D02*
X52451436Y131745312D01*
X61595436Y131745312D02*
X63373436Y131745312D01*
X63373436Y131745312D02*
X63373436Y129967312D01*
X63373436Y120823312D02*
X63373436Y119045312D01*
X63373436Y119045312D02*
X61595436Y119045312D01*
X52451436Y119045312D02*
X50673436Y119045312D01*
X50673436Y119045312D02*
X50673436Y120823312D01*
X50673436Y129967312D02*
X50673436Y131745312D01*
X41148436Y112695312D02*
X42926436Y112695312D01*
X52070436Y112695312D02*
X53848436Y112695312D01*
X53848436Y112695312D02*
X53848436Y110917312D01*
X53848436Y101773312D02*
X53848436Y99995312D01*
X53848436Y99995312D02*
X52070436Y99995312D01*
X42926436Y99995312D02*
X41148436Y99995312D01*
X41148436Y99995312D02*
X41148436Y101773312D01*
X41148436Y110917312D02*
X41148436Y112695312D01*
X69723436Y131745312D02*
X71501436Y131745312D01*
X80645436Y131745312D02*
X82423436Y131745312D01*
X82423436Y131745312D02*
X82423436Y129967312D01*
X82423436Y120823312D02*
X82423436Y119045312D01*
X82423436Y119045312D02*
X80645436Y119045312D01*
X71501436Y119045312D02*
X69723436Y119045312D01*
X69723436Y119045312D02*
X69723436Y120823312D01*
X69723436Y129967312D02*
X69723436Y131745312D01*
X50673436Y150795312D02*
X52451436Y150795312D01*
X61595436Y150795312D02*
X63373436Y150795312D01*
X63373436Y150795312D02*
X63373436Y149017312D01*
X63373436Y139873312D02*
X63373436Y138095312D01*
X63373436Y138095312D02*
X61595436Y138095312D01*
X52451436Y138095312D02*
X50673436Y138095312D01*
X50673436Y138095312D02*
X50673436Y139873312D01*
X50673436Y149017312D02*
X50673436Y150795312D01*
X-91167187Y55545312D02*
X-89389187Y55545312D01*
X-80245187Y55545312D02*
X-78467187Y55545312D01*
X-78467187Y55545312D02*
X-78467187Y53767312D01*
X-78467187Y44623312D02*
X-78467187Y42845312D01*
X-78467187Y42845312D02*
X-80245187Y42845312D01*
X-89389187Y42845312D02*
X-91167187Y42845312D01*
X-91167187Y42845312D02*
X-91167187Y44623312D01*
X-91167187Y53767312D02*
X-91167187Y55545312D01*
X-86404688Y131745312D02*
X-84626688Y131745312D01*
X-75482688Y131745312D02*
X-73704688Y131745312D01*
X-73704688Y131745312D02*
X-73704688Y129967312D01*
X-73704688Y120823312D02*
X-73704688Y119045312D01*
X-73704688Y119045312D02*
X-75482688Y119045312D01*
X-84626688Y119045312D02*
X-86404688Y119045312D01*
X-86404688Y119045312D02*
X-86404688Y120823312D01*
X-86404688Y129967312D02*
X-86404688Y131745312D01*
X-91167187Y93645312D02*
X-89389187Y93645312D01*
X-80245187Y93645312D02*
X-78467187Y93645312D01*
X-78467187Y93645312D02*
X-78467187Y91867312D01*
X-78467187Y82723312D02*
X-78467187Y80945312D01*
X-78467187Y80945312D02*
X-80245187Y80945312D01*
X-89389187Y80945312D02*
X-91167187Y80945312D01*
X-91167187Y80945312D02*
X-91167187Y82723312D01*
X-91167187Y91867312D02*
X-91167187Y93645312D01*
X-58864064Y74595312D02*
X-57086064Y74595312D01*
X-47942064Y74595312D02*
X-46164064Y74595312D01*
X-46164064Y74595312D02*
X-46164064Y72817312D01*
X-46164064Y63673312D02*
X-46164064Y61895312D01*
X-46164064Y61895312D02*
X-47942064Y61895312D01*
X-57086064Y61895312D02*
X-58864064Y61895312D01*
X-58864064Y61895312D02*
X-58864064Y63673312D01*
X-58864064Y72817312D02*
X-58864064Y74595312D01*
X-81642187Y74595312D02*
X-79864187Y74595312D01*
X-70720187Y74595312D02*
X-68942187Y74595312D01*
X-68942187Y74595312D02*
X-68942187Y72817312D01*
X-68942187Y63673312D02*
X-68942187Y61895312D01*
X-68942187Y61895312D02*
X-70720187Y61895312D01*
X-79864187Y61895312D02*
X-81642187Y61895312D01*
X-81642187Y61895312D02*
X-81642187Y63673312D01*
X-81642187Y72817312D02*
X-81642187Y74595312D01*
X88773436Y131745312D02*
X90551436Y131745312D01*
X99695436Y131745312D02*
X101473436Y131745312D01*
X101473436Y131745312D02*
X101473436Y129967312D01*
X101473436Y120823312D02*
X101473436Y119045312D01*
X101473436Y119045312D02*
X99695436Y119045312D01*
X90551436Y119045312D02*
X88773436Y119045312D01*
X88773436Y119045312D02*
X88773436Y120823312D01*
X88773436Y129967312D02*
X88773436Y131745312D01*
X62579686Y74595312D02*
X64357686Y74595312D01*
X73501686Y74595312D02*
X75279686Y74595312D01*
X75279686Y74595312D02*
X75279686Y72817312D01*
X75279686Y63673312D02*
X75279686Y61895312D01*
X75279686Y61895312D02*
X73501686Y61895312D01*
X64357686Y61895312D02*
X62579686Y61895312D01*
X62579686Y61895312D02*
X62579686Y63673312D01*
X62579686Y72817312D02*
X62579686Y74595312D01*
X-193560937Y93645312D02*
X-191782937Y93645312D01*
X-182638937Y93645312D02*
X-180860937Y93645312D01*
X-180860937Y93645312D02*
X-180860937Y91867312D01*
X-180860937Y82723312D02*
X-180860937Y80945312D01*
X-180860937Y80945312D02*
X-182638937Y80945312D01*
X-191782937Y80945312D02*
X-193560937Y80945312D01*
X-193560937Y80945312D02*
X-193560937Y82723312D01*
X-193560937Y91867312D02*
X-193560937Y93645312D01*
X5429686Y55545312D02*
X7207686Y55545312D01*
X16351686Y55545312D02*
X18129686Y55545312D01*
X18129686Y55545312D02*
X18129686Y53767312D01*
X18129686Y44623312D02*
X18129686Y42845312D01*
X18129686Y42845312D02*
X16351686Y42845312D01*
X7207686Y42845312D02*
X5429686Y42845312D01*
X5429686Y42845312D02*
X5429686Y44623312D01*
X5429686Y53767312D02*
X5429686Y55545312D01*
X48292186Y55545312D02*
X50070186Y55545312D01*
X59214186Y55545312D02*
X60992186Y55545312D01*
X60992186Y55545312D02*
X60992186Y53767312D01*
X60992186Y44623312D02*
X60992186Y42845312D01*
X60992186Y42845312D02*
X59214186Y42845312D01*
X50070186Y42845312D02*
X48292186Y42845312D01*
X48292186Y42845312D02*
X48292186Y44623312D01*
X48292186Y53767312D02*
X48292186Y55545312D01*
X-198323437Y55545312D02*
X-196545437Y55545312D01*
X-187401437Y55545312D02*
X-185623437Y55545312D01*
X-185623437Y55545312D02*
X-185623437Y53767312D01*
X-185623437Y44623312D02*
X-185623437Y42845312D01*
X-185623437Y42845312D02*
X-187401437Y42845312D01*
X-196545437Y42845312D02*
X-198323437Y42845312D01*
X-198323437Y42845312D02*
X-198323437Y44623312D01*
X-198323437Y53767312D02*
X-198323437Y55545312D01*
X-150698437Y55545312D02*
X-148920437Y55545312D01*
X-139776437Y55545312D02*
X-137998437Y55545312D01*
X-137998437Y55545312D02*
X-137998437Y53767312D01*
X-137998437Y44623312D02*
X-137998437Y42845312D01*
X-137998437Y42845312D02*
X-139776437Y42845312D01*
X-148920437Y42845312D02*
X-150698437Y42845312D01*
X-150698437Y42845312D02*
X-150698437Y44623312D01*
X-150698437Y53767312D02*
X-150698437Y55545312D01*
X-198323437Y93645312D02*
X-196545437Y93645312D01*
X-187401437Y93645312D02*
X-185623437Y93645312D01*
X-185623437Y93645312D02*
X-185623437Y91867312D01*
X-185623437Y82723312D02*
X-185623437Y80945312D01*
X-185623437Y80945312D02*
X-187401437Y80945312D01*
X-196545437Y80945312D02*
X-198323437Y80945312D01*
X-198323437Y80945312D02*
X-198323437Y82723312D01*
X-198323437Y91867312D02*
X-198323437Y93645312D01*
X36385936Y55545312D02*
X38163936Y55545312D01*
X47307936Y55545312D02*
X49085936Y55545312D01*
X49085936Y55545312D02*
X49085936Y53767312D01*
X49085936Y44623312D02*
X49085936Y42845312D01*
X49085936Y42845312D02*
X47307936Y42845312D01*
X38163936Y42845312D02*
X36385936Y42845312D01*
X36385936Y42845312D02*
X36385936Y44623312D01*
X36385936Y53767312D02*
X36385936Y55545312D01*
X7810936Y55545312D02*
X9588936Y55545312D01*
X18732936Y55545312D02*
X20510936Y55545312D01*
X20510936Y55545312D02*
X20510936Y53767312D01*
X20510936Y44623312D02*
X20510936Y42845312D01*
X20510936Y42845312D02*
X18732936Y42845312D01*
X9588936Y42845312D02*
X7810936Y42845312D01*
X7810936Y42845312D02*
X7810936Y44623312D01*
X7810936Y53767312D02*
X7810936Y55545312D01*
X45910936Y55545312D02*
X47688936Y55545312D01*
X56832936Y55545312D02*
X58610936Y55545312D01*
X58610936Y55545312D02*
X58610936Y53767312D01*
X58610936Y44623312D02*
X58610936Y42845312D01*
X58610936Y42845312D02*
X56832936Y42845312D01*
X47688936Y42845312D02*
X45910936Y42845312D01*
X45910936Y42845312D02*
X45910936Y44623312D01*
X45910936Y53767312D02*
X45910936Y55545312D01*
X84010936Y112695312D02*
X85788936Y112695312D01*
X94932936Y112695312D02*
X96710936Y112695312D01*
X96710936Y112695312D02*
X96710936Y110917312D01*
X96710936Y101773312D02*
X96710936Y99995312D01*
X96710936Y99995312D02*
X94932936Y99995312D01*
X85788936Y99995312D02*
X84010936Y99995312D01*
X84010936Y99995312D02*
X84010936Y101773312D01*
X84010936Y110917312D02*
X84010936Y112695312D01*
X-195942187Y112695312D02*
X-194164187Y112695312D01*
X-185020187Y112695312D02*
X-183242187Y112695312D01*
X-183242187Y112695312D02*
X-183242187Y110917312D01*
X-183242187Y101773312D02*
X-183242187Y99995312D01*
X-183242187Y99995312D02*
X-185020187Y99995312D01*
X-194164187Y99995312D02*
X-195942187Y99995312D01*
X-195942187Y99995312D02*
X-195942187Y101773312D01*
X-195942187Y110917312D02*
X-195942187Y112695312D01*
X-153079687Y55545312D02*
X-151301687Y55545312D01*
X-142157687Y55545312D02*
X-140379687Y55545312D01*
X-140379687Y55545312D02*
X-140379687Y53767312D01*
X-140379687Y44623312D02*
X-140379687Y42845312D01*
X-140379687Y42845312D02*
X-142157687Y42845312D01*
X-151301687Y42845312D02*
X-153079687Y42845312D01*
X-153079687Y42845312D02*
X-153079687Y44623312D01*
X-153079687Y53767312D02*
X-153079687Y55545312D01*
X-195942187Y55545312D02*
X-194164187Y55545312D01*
X-185020187Y55545312D02*
X-183242187Y55545312D01*
X-183242187Y55545312D02*
X-183242187Y53767312D01*
X-183242187Y44623312D02*
X-183242187Y42845312D01*
X-183242187Y42845312D02*
X-185020187Y42845312D01*
X-194164187Y42845312D02*
X-195942187Y42845312D01*
X-195942187Y42845312D02*
X-195942187Y44623312D01*
X-195942187Y53767312D02*
X-195942187Y55545312D01*
X79236324Y131745312D02*
X81014324Y131745312D01*
X90158324Y131745312D02*
X91936324Y131745312D01*
X91936324Y131745312D02*
X91936324Y129967312D01*
X91936324Y120823312D02*
X91936324Y119045312D01*
X91936324Y119045312D02*
X90158324Y119045312D01*
X81014324Y119045312D02*
X79236324Y119045312D01*
X79236324Y119045312D02*
X79236324Y120823312D01*
X79236324Y129967312D02*
X79236324Y131745312D01*
X-107042187Y42845312D02*
X-108820187Y42845312D01*
X-117964187Y42845312D02*
X-119742187Y42845312D01*
X-119742187Y42845312D02*
X-119742187Y44623312D01*
X-119742187Y53767312D02*
X-119742187Y55545312D01*
X-119742187Y55545312D02*
X-117964187Y55545312D01*
X-108820187Y55545312D02*
X-107042187Y55545312D01*
X-107042187Y55545312D02*
X-107042187Y53767312D01*
X-107042187Y44623312D02*
X-107042187Y42845312D01*
X-19970314Y42845312D02*
X-21748314Y42845312D01*
X-30892314Y42845312D02*
X-32670314Y42845312D01*
X-32670314Y42845312D02*
X-32670314Y44623312D01*
X-32670314Y53767312D02*
X-32670314Y55545312D01*
X-32670314Y55545312D02*
X-30892314Y55545312D01*
X-21748314Y55545312D02*
X-19970314Y55545312D01*
X-19970314Y55545312D02*
X-19970314Y53767312D01*
X-19970314Y44623312D02*
X-19970314Y42845312D01*
X76867186Y93645312D02*
X78645186Y93645312D01*
X87789186Y93645312D02*
X89567186Y93645312D01*
X89567186Y93645312D02*
X89567186Y91867312D01*
X89567186Y82723312D02*
X89567186Y80945312D01*
X89567186Y80945312D02*
X87789186Y80945312D01*
X78645186Y80945312D02*
X76867186Y80945312D01*
X76867186Y80945312D02*
X76867186Y82723312D01*
X76867186Y91867312D02*
X76867186Y93645312D01*
X-188798437Y74595312D02*
X-187020437Y74595312D01*
X-177876437Y74595312D02*
X-176098437Y74595312D01*
X-176098437Y74595312D02*
X-176098437Y72817312D01*
X-176098437Y63673312D02*
X-176098437Y61895312D01*
X-176098437Y61895312D02*
X-177876437Y61895312D01*
X-187020437Y61895312D02*
X-188798437Y61895312D01*
X-188798437Y61895312D02*
X-188798437Y63673312D01*
X-188798437Y72817312D02*
X-188798437Y74595312D01*
X-188004687Y150795312D02*
X-188004687Y149017312D01*
X-188004687Y139873312D02*
X-188004687Y138095312D01*
X-188004687Y138095312D02*
X-189782687Y138095312D01*
X-198926687Y138095312D02*
X-200704687Y138095312D01*
X-200704687Y138095312D02*
X-200704687Y139873312D01*
X-200704687Y149017312D02*
X-200704687Y150795312D01*
X-200704687Y150795312D02*
X-198926687Y150795312D01*
X-189782687Y150795312D02*
X-188004687Y150795312D01*
X-168954687Y150795312D02*
X-168954687Y149017312D01*
X-168954687Y139873312D02*
X-168954687Y138095312D01*
X-168954687Y138095312D02*
X-170732687Y138095312D01*
X-179876687Y138095312D02*
X-181654687Y138095312D01*
X-181654687Y138095312D02*
X-181654687Y139873312D01*
X-181654687Y149017312D02*
X-181654687Y150795312D01*
X-181654687Y150795312D02*
X-179876687Y150795312D01*
X-170732687Y150795312D02*
X-168954687Y150795312D01*
X-149904687Y150795312D02*
X-149904687Y149017312D01*
X-149904687Y139873312D02*
X-149904687Y138095312D01*
X-149904687Y138095312D02*
X-151682687Y138095312D01*
X-160826687Y138095312D02*
X-162604687Y138095312D01*
X-162604687Y138095312D02*
X-162604687Y139873312D01*
X-162604687Y149017312D02*
X-162604687Y150795312D01*
X-162604687Y150795312D02*
X-160826687Y150795312D01*
X-151682687Y150795312D02*
X-149904687Y150795312D01*
X-130854687Y150795312D02*
X-130854687Y149017312D01*
X-130854687Y139873312D02*
X-130854687Y138095312D01*
X-130854687Y138095312D02*
X-132632687Y138095312D01*
X-141776687Y138095312D02*
X-143554687Y138095312D01*
X-143554687Y138095312D02*
X-143554687Y139873312D01*
X-143554687Y149017312D02*
X-143554687Y150795312D01*
X-143554687Y150795312D02*
X-141776687Y150795312D01*
X-132632687Y150795312D02*
X-130854687Y150795312D01*
X-111804687Y150795312D02*
X-111804687Y149017312D01*
X-111804687Y139873312D02*
X-111804687Y138095312D01*
X-111804687Y138095312D02*
X-113582687Y138095312D01*
X-122726687Y138095312D02*
X-124504687Y138095312D01*
X-124504687Y138095312D02*
X-124504687Y139873312D01*
X-124504687Y149017312D02*
X-124504687Y150795312D01*
X-124504687Y150795312D02*
X-122726687Y150795312D01*
X-113582687Y150795312D02*
X-111804687Y150795312D01*
X-92754687Y150795312D02*
X-92754687Y149017312D01*
X-92754687Y139873312D02*
X-92754687Y138095312D01*
X-92754687Y138095312D02*
X-94532687Y138095312D01*
X-103676687Y138095312D02*
X-105454687Y138095312D01*
X-105454687Y138095312D02*
X-105454687Y139873312D01*
X-105454687Y149017312D02*
X-105454687Y150795312D01*
X-105454687Y150795312D02*
X-103676687Y150795312D01*
X-94532687Y150795312D02*
X-92754687Y150795312D01*
X-73704687Y150795312D02*
X-73704687Y149017312D01*
X-73704687Y139873312D02*
X-73704687Y138095312D01*
X-73704687Y138095312D02*
X-75482687Y138095312D01*
X-84626687Y138095312D02*
X-86404687Y138095312D01*
X-86404687Y138095312D02*
X-86404687Y139873312D01*
X-86404687Y149017312D02*
X-86404687Y150795312D01*
X-86404687Y150795312D02*
X-84626687Y150795312D01*
X-75482687Y150795312D02*
X-73704687Y150795312D01*
X-31876564Y150795312D02*
X-31876564Y149017312D01*
X-31876564Y139873312D02*
X-31876564Y138095312D01*
X-31876564Y138095312D02*
X-33654564Y138095312D01*
X-42798564Y138095312D02*
X-44576564Y138095312D01*
X-44576564Y138095312D02*
X-44576564Y139873312D01*
X-44576564Y149017312D02*
X-44576564Y150795312D01*
X-44576564Y150795312D02*
X-42798564Y150795312D01*
X-33654564Y150795312D02*
X-31876564Y150795312D01*
X-12826564Y150795312D02*
X-12826564Y149017312D01*
X-12826564Y139873312D02*
X-12826564Y138095312D01*
X-12826564Y138095312D02*
X-14604564Y138095312D01*
X-23748564Y138095312D02*
X-25526564Y138095312D01*
X-25526564Y138095312D02*
X-25526564Y139873312D01*
X-25526564Y149017312D02*
X-25526564Y150795312D01*
X-25526564Y150795312D02*
X-23748564Y150795312D01*
X-14604564Y150795312D02*
X-12826564Y150795312D01*
X6223436Y150795312D02*
X6223436Y149017312D01*
X6223436Y139873312D02*
X6223436Y138095312D01*
X6223436Y138095312D02*
X4445436Y138095312D01*
X-4698564Y138095312D02*
X-6476564Y138095312D01*
X-6476564Y138095312D02*
X-6476564Y139873312D01*
X-6476564Y149017312D02*
X-6476564Y150795312D01*
X-6476564Y150795312D02*
X-4698564Y150795312D01*
X4445436Y150795312D02*
X6223436Y150795312D01*
X25273436Y150795312D02*
X25273436Y149017312D01*
X25273436Y139873312D02*
X25273436Y138095312D01*
X25273436Y138095312D02*
X23495436Y138095312D01*
X14351436Y138095312D02*
X12573436Y138095312D01*
X12573436Y138095312D02*
X12573436Y139873312D01*
X12573436Y149017312D02*
X12573436Y150795312D01*
X12573436Y150795312D02*
X14351436Y150795312D01*
X23495436Y150795312D02*
X25273436Y150795312D01*
X44323436Y150795312D02*
X44323436Y149017312D01*
X44323436Y139873312D02*
X44323436Y138095312D01*
X44323436Y138095312D02*
X42545436Y138095312D01*
X33401436Y138095312D02*
X31623436Y138095312D01*
X31623436Y138095312D02*
X31623436Y139873312D01*
X31623436Y149017312D02*
X31623436Y150795312D01*
X31623436Y150795312D02*
X33401436Y150795312D01*
X42545436Y150795312D02*
X44323436Y150795312D01*
X63373436Y150795312D02*
X63373436Y149017312D01*
X63373436Y139873312D02*
X63373436Y138095312D01*
X63373436Y138095312D02*
X61595436Y138095312D01*
X52451436Y138095312D02*
X50673436Y138095312D01*
X50673436Y138095312D02*
X50673436Y139873312D01*
X50673436Y149017312D02*
X50673436Y150795312D01*
X50673436Y150795312D02*
X52451436Y150795312D01*
X61595436Y150795312D02*
X63373436Y150795312D01*
X82423436Y150795312D02*
X82423436Y149017312D01*
X82423436Y139873312D02*
X82423436Y138095312D01*
X82423436Y138095312D02*
X80645436Y138095312D01*
X71501436Y138095312D02*
X69723436Y138095312D01*
X69723436Y138095312D02*
X69723436Y139873312D01*
X69723436Y149017312D02*
X69723436Y150795312D01*
X69723436Y150795312D02*
X71501436Y150795312D01*
X80645436Y150795312D02*
X82423436Y150795312D01*
X101473436Y150795312D02*
X101473436Y149017312D01*
X101473436Y139873312D02*
X101473436Y138095312D01*
X101473436Y138095312D02*
X99695436Y138095312D01*
X90551436Y138095312D02*
X88773436Y138095312D01*
X88773436Y138095312D02*
X88773436Y139873312D01*
X88773436Y149017312D02*
X88773436Y150795312D01*
X88773436Y150795312D02*
X90551436Y150795312D01*
X99695436Y150795312D02*
X101473436Y150795312D01*
X120523436Y150795312D02*
X120523436Y149017312D01*
X120523436Y139873312D02*
X120523436Y138095312D01*
X120523436Y138095312D02*
X118745436Y138095312D01*
X109601436Y138095312D02*
X107823436Y138095312D01*
X107823436Y138095312D02*
X107823436Y139873312D01*
X107823436Y149017312D02*
X107823436Y150795312D01*
X107823436Y150795312D02*
X109601436Y150795312D01*
X118745436Y150795312D02*
X120523436Y150795312D01*
D15*
X-119279545Y121645788D02*
X-119279545Y122915788D01*
X-118408688Y121645788D02*
X-119061831Y122371502D01*
X-118408688Y122915788D02*
X-119279545Y122190074D01*
X-117102402Y122492455D02*
X-117102402Y121645788D01*
X-117465259Y122976264D02*
X-117828116Y122069122D01*
X-116884688Y122069122D01*
X-113646187Y64616741D02*
X-113718758Y64556264D01*
X-113936472Y64495788D01*
X-114081615Y64495788D01*
X-114299330Y64556264D01*
X-114444472Y64677217D01*
X-114517044Y64798169D01*
X-114589615Y65040074D01*
X-114589615Y65221502D01*
X-114517044Y65463407D01*
X-114444472Y65584360D01*
X-114299330Y65705312D01*
X-114081615Y65765788D01*
X-113936472Y65765788D01*
X-113718758Y65705312D01*
X-113646187Y65644836D01*
X-112194758Y64495788D02*
X-113065615Y64495788D01*
X-112630187Y64495788D02*
X-112630187Y65765788D01*
X-112775330Y65584360D01*
X-112920472Y65463407D01*
X-113065615Y65402931D01*
X-95575901Y65765788D02*
X-95067901Y64495788D01*
X-94559901Y65765788D01*
X-93253615Y64495788D02*
X-94124472Y64495788D01*
X-93689044Y64495788D02*
X-93689044Y65765788D01*
X-93834187Y65584360D01*
X-93979329Y65463407D01*
X-94124472Y65402931D01*
X-108883687Y102595788D02*
X-109391687Y103200550D01*
X-109754544Y102595788D02*
X-109754544Y103865788D01*
X-109173972Y103865788D01*
X-109028830Y103805312D01*
X-108956258Y103744836D01*
X-108883687Y103623883D01*
X-108883687Y103442455D01*
X-108956258Y103321502D01*
X-109028830Y103261026D01*
X-109173972Y103200550D01*
X-109754544Y103200550D01*
X-107432258Y102595788D02*
X-108303115Y102595788D01*
X-107867687Y102595788D02*
X-107867687Y103865788D01*
X-108012830Y103684360D01*
X-108157972Y103563407D01*
X-108303115Y103502931D01*
D16*
X-175616532Y130743601D02*
X-175616532Y132013601D01*
X-175193199Y131106458D01*
X-174769865Y132013601D01*
X-174769865Y130743601D01*
X-173499865Y130743601D02*
X-174225579Y130743601D01*
X-173862722Y130743601D02*
X-173862722Y132013601D01*
X-173983674Y131832173D01*
X-174104627Y131711220D01*
X-174225579Y131650744D01*
D17*
X-110534687Y151033446D02*
X-110534687Y150017446D01*
X-110958020Y151614018D02*
X-111381353Y150525446D01*
X-110280687Y150525446D01*
X-109603354Y150017446D02*
X-109603354Y151541446D01*
X-108926020Y151541446D01*
X-108756687Y151468875D01*
X-108672020Y151396304D01*
X-108587354Y151251161D01*
X-108587354Y151033446D01*
X-108672020Y150888304D01*
X-108756687Y150815732D01*
X-108926020Y150743161D01*
X-109603354Y150743161D01*
X-107825354Y150017446D02*
X-107825354Y151541446D01*
X-106978687Y150017446D02*
X-106978687Y151541446D01*
X-105962687Y150017446D01*
X-105962687Y151541446D01*
D15*
X-196872008Y64495788D02*
X-196872008Y65765788D01*
X-196218865Y64556264D02*
X-196001151Y64495788D01*
X-195638294Y64495788D01*
X-195493151Y64556264D01*
X-195420580Y64616741D01*
X-195348008Y64737693D01*
X-195348008Y64858645D01*
X-195420580Y64979598D01*
X-195493151Y65040074D01*
X-195638294Y65100550D01*
X-195928580Y65161026D01*
X-196073722Y65221502D01*
X-196146294Y65281979D01*
X-196218865Y65402931D01*
X-196218865Y65523883D01*
X-196146294Y65644836D01*
X-196073722Y65705312D01*
X-195928580Y65765788D01*
X-195565722Y65765788D01*
X-195348008Y65705312D01*
X-194404579Y65765788D02*
X-194114293Y65765788D01*
X-193969151Y65705312D01*
X-193824008Y65584360D01*
X-193751436Y65342455D01*
X-193751436Y64919122D01*
X-193824008Y64677217D01*
X-193969151Y64556264D01*
X-194114293Y64495788D01*
X-194404579Y64495788D01*
X-194549722Y64556264D01*
X-194694865Y64677217D01*
X-194767436Y64919122D01*
X-194767436Y65342455D01*
X-194694865Y65584360D01*
X-194549722Y65705312D01*
X-194404579Y65765788D01*
X-193170865Y64556264D02*
X-192953151Y64495788D01*
X-192590294Y64495788D01*
X-192445151Y64556264D01*
X-192372580Y64616741D01*
X-192300008Y64737693D01*
X-192300008Y64858645D01*
X-192372580Y64979598D01*
X-192445151Y65040074D01*
X-192590294Y65100550D01*
X-192880580Y65161026D01*
X-193025722Y65221502D01*
X-193098294Y65281979D01*
X-193170865Y65402931D01*
X-193170865Y65523883D01*
X-193098294Y65644836D01*
X-193025722Y65705312D01*
X-192880580Y65765788D01*
X-192517722Y65765788D01*
X-192300008Y65705312D01*
X-191646865Y64495788D02*
X-191646865Y65765788D01*
X-190993722Y64495788D02*
X-190993722Y65161026D01*
X-191066293Y65281979D01*
X-191211436Y65342455D01*
X-191429151Y65342455D01*
X-191574293Y65281979D01*
X-191646865Y65221502D01*
X-190268008Y64495788D02*
X-190268008Y65342455D01*
X-190268008Y65765788D02*
X-190340579Y65705312D01*
X-190268008Y65644836D01*
X-190195436Y65705312D01*
X-190268008Y65765788D01*
X-190268008Y65644836D01*
X-189760008Y65342455D02*
X-189179437Y65342455D01*
X-189542294Y64495788D02*
X-189542294Y65584360D01*
X-189469722Y65705312D01*
X-189324580Y65765788D01*
X-189179437Y65765788D01*
X-188889151Y65342455D02*
X-188308580Y65342455D01*
X-188671437Y65765788D02*
X-188671437Y64677217D01*
X-188598865Y64556264D01*
X-188453723Y64495788D01*
X-188308580Y64495788D01*
X-187002294Y64495788D02*
X-187873151Y64495788D01*
X-187437723Y64495788D02*
X-187437723Y65765788D01*
X-187582866Y65584360D01*
X-187728008Y65463407D01*
X-187873151Y65402931D01*
X90129598Y91025884D02*
X88859598Y91025884D01*
X90069122Y91679027D02*
X90129598Y91896741D01*
X90129598Y92259598D01*
X90069122Y92404741D01*
X90008645Y92477312D01*
X89887693Y92549884D01*
X89766741Y92549884D01*
X89645788Y92477312D01*
X89585312Y92404741D01*
X89524836Y92259598D01*
X89464360Y91969312D01*
X89403884Y91824170D01*
X89343407Y91751598D01*
X89222455Y91679027D01*
X89101503Y91679027D01*
X88980550Y91751598D01*
X88920074Y91824170D01*
X88859598Y91969312D01*
X88859598Y92332170D01*
X88920074Y92549884D01*
X88859598Y93493313D02*
X88859598Y93783599D01*
X88920074Y93928741D01*
X89041026Y94073884D01*
X89282931Y94146456D01*
X89706264Y94146456D01*
X89948169Y94073884D01*
X90069122Y93928741D01*
X90129598Y93783599D01*
X90129598Y93493313D01*
X90069122Y93348170D01*
X89948169Y93203027D01*
X89706264Y93130456D01*
X89282931Y93130456D01*
X89041026Y93203027D01*
X88920074Y93348170D01*
X88859598Y93493313D01*
X89464360Y94799598D02*
X89464360Y95307598D01*
X90129598Y95525312D02*
X90129598Y94799598D01*
X88859598Y94799598D01*
X88859598Y95525312D01*
X90129598Y96178455D02*
X88859598Y96178455D01*
X90129598Y97049312D01*
X88859598Y97049312D01*
X88859598Y97557312D02*
X88859598Y98428169D01*
X90129598Y97992740D02*
X88859598Y97992740D01*
X89464360Y98936169D02*
X89464360Y99444169D01*
X90129598Y99661883D02*
X90129598Y98936169D01*
X88859598Y98936169D01*
X88859598Y99661883D01*
X90129598Y101185883D02*
X89524836Y100677883D01*
X90129598Y100315026D02*
X88859598Y100315026D01*
X88859598Y100895598D01*
X88920074Y101040740D01*
X88980550Y101113312D01*
X89101503Y101185883D01*
X89282931Y101185883D01*
X89403884Y101113312D01*
X89464360Y101040740D01*
X89524836Y100895598D01*
X89524836Y100315026D01*
X90129598Y102637312D02*
X90129598Y101766455D01*
X90129598Y102201883D02*
X88859598Y102201883D01*
X89041026Y102056740D01*
X89161979Y101911598D01*
X89222455Y101766455D01*
X86972758Y93070788D02*
X86972758Y94340788D01*
X87625901Y93131264D02*
X87843615Y93070788D01*
X88206472Y93070788D01*
X88351615Y93131264D01*
X88424186Y93191741D01*
X88496758Y93312693D01*
X88496758Y93433645D01*
X88424186Y93554598D01*
X88351615Y93615074D01*
X88206472Y93675550D01*
X87916186Y93736026D01*
X87771044Y93796502D01*
X87698472Y93856979D01*
X87625901Y93977931D01*
X87625901Y94098883D01*
X87698472Y94219836D01*
X87771044Y94280312D01*
X87916186Y94340788D01*
X88279044Y94340788D01*
X88496758Y94280312D01*
X89440187Y94340788D02*
X89730473Y94340788D01*
X89875615Y94280312D01*
X90020758Y94159360D01*
X90093330Y93917455D01*
X90093330Y93494122D01*
X90020758Y93252217D01*
X89875615Y93131264D01*
X89730473Y93070788D01*
X89440187Y93070788D01*
X89295044Y93131264D01*
X89149901Y93252217D01*
X89077330Y93494122D01*
X89077330Y93917455D01*
X89149901Y94159360D01*
X89295044Y94280312D01*
X89440187Y94340788D01*
X90746472Y93736026D02*
X91254472Y93736026D01*
X91472186Y93070788D02*
X90746472Y93070788D01*
X90746472Y94340788D01*
X91472186Y94340788D01*
X92125329Y93070788D02*
X92125329Y94340788D01*
X92996186Y93070788D01*
X92996186Y94340788D01*
X93504186Y94340788D02*
X94375043Y94340788D01*
X93939614Y93070788D02*
X93939614Y94340788D01*
X94883043Y93736026D02*
X95391043Y93736026D01*
X95608757Y93070788D02*
X94883043Y93070788D01*
X94883043Y94340788D01*
X95608757Y94340788D01*
X97132757Y93070788D02*
X96624757Y93675550D01*
X96261900Y93070788D02*
X96261900Y94340788D01*
X96842472Y94340788D01*
X96987614Y94280312D01*
X97060186Y94219836D01*
X97132757Y94098883D01*
X97132757Y93917455D01*
X97060186Y93796502D01*
X96987614Y93736026D01*
X96842472Y93675550D01*
X96261900Y93675550D01*
X97713329Y94219836D02*
X97785900Y94280312D01*
X97931043Y94340788D01*
X98293900Y94340788D01*
X98439043Y94280312D01*
X98511614Y94219836D01*
X98584186Y94098883D01*
X98584186Y93977931D01*
X98511614Y93796502D01*
X97640757Y93070788D01*
X98584186Y93070788D01*
X-174896473Y64495788D02*
X-174896473Y65765788D01*
X-174243330Y64556264D02*
X-174025616Y64495788D01*
X-173662759Y64495788D01*
X-173517616Y64556264D01*
X-173445045Y64616741D01*
X-173372473Y64737693D01*
X-173372473Y64858645D01*
X-173445045Y64979598D01*
X-173517616Y65040074D01*
X-173662759Y65100550D01*
X-173953045Y65161026D01*
X-174098187Y65221502D01*
X-174170759Y65281979D01*
X-174243330Y65402931D01*
X-174243330Y65523883D01*
X-174170759Y65644836D01*
X-174098187Y65705312D01*
X-173953045Y65765788D01*
X-173590187Y65765788D01*
X-173372473Y65705312D01*
X-172429044Y65765788D02*
X-172138758Y65765788D01*
X-171993616Y65705312D01*
X-171848473Y65584360D01*
X-171775901Y65342455D01*
X-171775901Y64919122D01*
X-171848473Y64677217D01*
X-171993616Y64556264D01*
X-172138758Y64495788D01*
X-172429044Y64495788D01*
X-172574187Y64556264D01*
X-172719330Y64677217D01*
X-172791901Y64919122D01*
X-172791901Y65342455D01*
X-172719330Y65584360D01*
X-172574187Y65705312D01*
X-172429044Y65765788D01*
X-170614759Y65161026D02*
X-170397045Y65100550D01*
X-170324473Y65040074D01*
X-170251902Y64919122D01*
X-170251902Y64737693D01*
X-170324473Y64616741D01*
X-170397045Y64556264D01*
X-170542187Y64495788D01*
X-171122759Y64495788D01*
X-171122759Y65765788D01*
X-170614759Y65765788D01*
X-170469616Y65705312D01*
X-170397045Y65644836D01*
X-170324473Y65523883D01*
X-170324473Y65402931D01*
X-170397045Y65281979D01*
X-170469616Y65221502D01*
X-170614759Y65161026D01*
X-171122759Y65161026D01*
X-169671330Y64556264D02*
X-169453616Y64495788D01*
X-169090759Y64495788D01*
X-168945616Y64556264D01*
X-168873045Y64616741D01*
X-168800473Y64737693D01*
X-168800473Y64858645D01*
X-168873045Y64979598D01*
X-168945616Y65040074D01*
X-169090759Y65100550D01*
X-169381045Y65161026D01*
X-169526187Y65221502D01*
X-169598759Y65281979D01*
X-169671330Y65402931D01*
X-169671330Y65523883D01*
X-169598759Y65644836D01*
X-169526187Y65705312D01*
X-169381045Y65765788D01*
X-169018187Y65765788D01*
X-168800473Y65705312D01*
X-167421616Y64495788D02*
X-168147330Y64495788D01*
X-168147330Y65765788D01*
X-166115330Y64495788D02*
X-166986187Y64495788D01*
X-166550759Y64495788D02*
X-166550759Y65765788D01*
X-166695902Y65584360D01*
X-166841044Y65463407D01*
X-166986187Y65402931D01*
X65505222Y84392455D02*
X66085793Y84392455D01*
X65722936Y84815788D02*
X65722936Y83727217D01*
X65795508Y83606264D01*
X65940650Y83545788D01*
X66085793Y83545788D01*
X66593793Y83545788D02*
X66593793Y84392455D01*
X66593793Y84815788D02*
X66521222Y84755312D01*
X66593793Y84694836D01*
X66666365Y84755312D01*
X66593793Y84815788D01*
X66593793Y84694836D01*
X67537221Y83545788D02*
X67392079Y83606264D01*
X67319507Y83727217D01*
X67319507Y84815788D01*
X68770936Y83545788D02*
X68770936Y84815788D01*
X68770936Y83606264D02*
X68625793Y83545788D01*
X68335507Y83545788D01*
X68190365Y83606264D01*
X68117793Y83666741D01*
X68045222Y83787693D01*
X68045222Y84150550D01*
X68117793Y84271502D01*
X68190365Y84331979D01*
X68335507Y84392455D01*
X68625793Y84392455D01*
X68770936Y84331979D01*
X70077222Y83606264D02*
X69932079Y83545788D01*
X69641793Y83545788D01*
X69496650Y83606264D01*
X69424079Y83727217D01*
X69424079Y84211026D01*
X69496650Y84331979D01*
X69641793Y84392455D01*
X69932079Y84392455D01*
X70077222Y84331979D01*
X70149793Y84211026D01*
X70149793Y84090074D01*
X69424079Y83969122D01*
X70802936Y83545788D02*
X70802936Y84815788D01*
X71456079Y83545788D02*
X71456079Y84211026D01*
X71383508Y84331979D01*
X71238365Y84392455D01*
X71020650Y84392455D01*
X70875508Y84331979D01*
X70802936Y84271502D01*
X72834936Y83545788D02*
X72834936Y84211026D01*
X72762365Y84331979D01*
X72617222Y84392455D01*
X72326936Y84392455D01*
X72181793Y84331979D01*
X72834936Y83606264D02*
X72689793Y83545788D01*
X72326936Y83545788D01*
X72181793Y83606264D01*
X72109222Y83727217D01*
X72109222Y83848169D01*
X72181793Y83969122D01*
X72326936Y84029598D01*
X72689793Y84029598D01*
X72834936Y84090074D01*
X73488079Y83606264D02*
X73633222Y83545788D01*
X73923507Y83545788D01*
X74068650Y83606264D01*
X74141222Y83727217D01*
X74141222Y83787693D01*
X74068650Y83908645D01*
X73923507Y83969122D01*
X73705793Y83969122D01*
X73560650Y84029598D01*
X73488079Y84150550D01*
X73488079Y84211026D01*
X73560650Y84331979D01*
X73705793Y84392455D01*
X73923507Y84392455D01*
X74068650Y84331979D01*
X74794364Y83545788D02*
X74794364Y84815788D01*
X75447507Y83545788D02*
X75447507Y84211026D01*
X75374936Y84331979D01*
X75229793Y84392455D01*
X75012078Y84392455D01*
X74866936Y84331979D01*
X74794364Y84271502D01*
X76971507Y83545788D02*
X76100650Y83545788D01*
X76536078Y83545788D02*
X76536078Y84815788D01*
X76390935Y84634360D01*
X76245793Y84513407D01*
X76100650Y84452931D01*
X70920865Y141058645D02*
X71646579Y141058645D01*
X70775722Y140695788D02*
X71283722Y141965788D01*
X71791722Y140695788D01*
X72299722Y141542455D02*
X72299722Y140695788D01*
X72299722Y141421502D02*
X72372294Y141481979D01*
X72517436Y141542455D01*
X72735151Y141542455D01*
X72880294Y141481979D01*
X72952865Y141361026D01*
X72952865Y140695788D01*
X73533436Y141542455D02*
X73896293Y140695788D01*
X74259151Y141542455D02*
X73896293Y140695788D01*
X73751151Y140393407D01*
X73678579Y140332931D01*
X73533436Y140272455D01*
X74839722Y140695788D02*
X74839722Y141965788D01*
X74984865Y141179598D02*
X75420294Y140695788D01*
X75420294Y141542455D02*
X74839722Y141058645D01*
X76654008Y140756264D02*
X76508865Y140695788D01*
X76218579Y140695788D01*
X76073436Y140756264D01*
X76000865Y140877217D01*
X76000865Y141361026D01*
X76073436Y141481979D01*
X76218579Y141542455D01*
X76508865Y141542455D01*
X76654008Y141481979D01*
X76726579Y141361026D01*
X76726579Y141240074D01*
X76000865Y141119122D01*
X77234579Y141542455D02*
X77597436Y140695788D01*
X77960294Y141542455D02*
X77597436Y140695788D01*
X77452294Y140393407D01*
X77379722Y140332931D01*
X77234579Y140272455D01*
X78540865Y141179598D02*
X79702008Y141179598D01*
X81226008Y140695788D02*
X80355151Y140695788D01*
X80790579Y140695788D02*
X80790579Y141965788D01*
X80645436Y141784360D01*
X80500294Y141663407D01*
X80355151Y141602931D01*
X89970865Y141058645D02*
X90696579Y141058645D01*
X89825722Y140695788D02*
X90333722Y141965788D01*
X90841722Y140695788D01*
X91349722Y141542455D02*
X91349722Y140695788D01*
X91349722Y141421502D02*
X91422294Y141481979D01*
X91567436Y141542455D01*
X91785151Y141542455D01*
X91930294Y141481979D01*
X92002865Y141361026D01*
X92002865Y140695788D01*
X92583436Y141542455D02*
X92946293Y140695788D01*
X93309151Y141542455D02*
X92946293Y140695788D01*
X92801151Y140393407D01*
X92728579Y140332931D01*
X92583436Y140272455D01*
X93889722Y140695788D02*
X93889722Y141965788D01*
X94034865Y141179598D02*
X94470294Y140695788D01*
X94470294Y141542455D02*
X93889722Y141058645D01*
X95704008Y140756264D02*
X95558865Y140695788D01*
X95268579Y140695788D01*
X95123436Y140756264D01*
X95050865Y140877217D01*
X95050865Y141361026D01*
X95123436Y141481979D01*
X95268579Y141542455D01*
X95558865Y141542455D01*
X95704008Y141481979D01*
X95776579Y141361026D01*
X95776579Y141240074D01*
X95050865Y141119122D01*
X96284579Y141542455D02*
X96647436Y140695788D01*
X97010294Y141542455D02*
X96647436Y140695788D01*
X96502294Y140393407D01*
X96429722Y140332931D01*
X96284579Y140272455D01*
X97590865Y141179598D02*
X98752008Y141179598D01*
X99405151Y141844836D02*
X99477722Y141905312D01*
X99622865Y141965788D01*
X99985722Y141965788D01*
X100130865Y141905312D01*
X100203436Y141844836D01*
X100276008Y141723883D01*
X100276008Y141602931D01*
X100203436Y141421502D01*
X99332579Y140695788D01*
X100276008Y140695788D01*
X65532436Y102172455D02*
X65895293Y102172455D01*
X65895293Y103986741D01*
X65532436Y103986741D01*
X67491865Y102595788D02*
X66621008Y102595788D01*
X67056436Y102595788D02*
X67056436Y103865788D01*
X66911293Y103684360D01*
X66766151Y103563407D01*
X66621008Y103502931D01*
X30852365Y46292455D02*
X31142651Y45445788D01*
X31432937Y46050550D01*
X31723222Y45445788D01*
X32013508Y46292455D01*
X32594079Y45445788D02*
X32594079Y46292455D01*
X32594079Y46715788D02*
X32521508Y46655312D01*
X32594079Y46594836D01*
X32666651Y46655312D01*
X32594079Y46715788D01*
X32594079Y46594836D01*
X33319793Y46292455D02*
X33319793Y45445788D01*
X33319793Y46171502D02*
X33392365Y46231979D01*
X33537507Y46292455D01*
X33755222Y46292455D01*
X33900365Y46231979D01*
X33972936Y46111026D01*
X33972936Y45445788D01*
X34626079Y46594836D02*
X34698650Y46655312D01*
X34843793Y46715788D01*
X35206650Y46715788D01*
X35351793Y46655312D01*
X35424364Y46594836D01*
X35496936Y46473883D01*
X35496936Y46352931D01*
X35424364Y46171502D01*
X34553507Y45445788D01*
X35496936Y45445788D01*
X93200293Y65765788D02*
X93200293Y64737693D01*
X93272865Y64616741D01*
X93345436Y64556264D01*
X93490579Y64495788D01*
X93780865Y64495788D01*
X93926007Y64556264D01*
X93998579Y64616741D01*
X94071150Y64737693D01*
X94071150Y65765788D01*
X94796864Y64495788D02*
X94796864Y65765788D01*
X95377436Y65765788D01*
X95522578Y65705312D01*
X95595150Y65644836D01*
X95667721Y65523883D01*
X95667721Y65342455D01*
X95595150Y65221502D01*
X95522578Y65161026D01*
X95377436Y65100550D01*
X94796864Y65100550D01*
X97119150Y64495788D02*
X96248293Y64495788D01*
X96683721Y64495788D02*
X96683721Y65765788D01*
X96538578Y65584360D01*
X96393436Y65463407D01*
X96248293Y65402931D01*
X-29862707Y103865788D02*
X-29862707Y102837693D01*
X-29790135Y102716741D01*
X-29717564Y102656264D01*
X-29572421Y102595788D01*
X-29282135Y102595788D01*
X-29136993Y102656264D01*
X-29064421Y102716741D01*
X-28991850Y102837693D01*
X-28991850Y103865788D01*
X-27467850Y102595788D02*
X-28338707Y102595788D01*
X-27903279Y102595788D02*
X-27903279Y103865788D01*
X-28048422Y103684360D01*
X-28193564Y103563407D01*
X-28338707Y103502931D01*
X110036864Y121645788D02*
X110036864Y122915788D01*
X110617436Y122915788D01*
X110762578Y122855312D01*
X110835150Y122794836D01*
X110907721Y122673883D01*
X110907721Y122492455D01*
X110835150Y122371502D01*
X110762578Y122311026D01*
X110617436Y122250550D01*
X110036864Y122250550D01*
X112431721Y121645788D02*
X111923721Y122250550D01*
X111560864Y121645788D02*
X111560864Y122915788D01*
X112141436Y122915788D01*
X112286578Y122855312D01*
X112359150Y122794836D01*
X112431721Y122673883D01*
X112431721Y122492455D01*
X112359150Y122371502D01*
X112286578Y122311026D01*
X112141436Y122250550D01*
X111560864Y122250550D01*
X113012293Y121706264D02*
X113230007Y121645788D01*
X113592864Y121645788D01*
X113738007Y121706264D01*
X113810578Y121766741D01*
X113883150Y121887693D01*
X113883150Y122008645D01*
X113810578Y122129598D01*
X113738007Y122190074D01*
X113592864Y122250550D01*
X113302578Y122311026D01*
X113157436Y122371502D01*
X113084864Y122431979D01*
X113012293Y122552931D01*
X113012293Y122673883D01*
X113084864Y122794836D01*
X113157436Y122855312D01*
X113302578Y122915788D01*
X113665436Y122915788D01*
X113883150Y122855312D01*
X115407150Y121766741D02*
X115334579Y121706264D01*
X115116865Y121645788D01*
X114971722Y121645788D01*
X114754007Y121706264D01*
X114608865Y121827217D01*
X114536293Y121948169D01*
X114463722Y122190074D01*
X114463722Y122371502D01*
X114536293Y122613407D01*
X114608865Y122734360D01*
X114754007Y122855312D01*
X114971722Y122915788D01*
X115116865Y122915788D01*
X115334579Y122855312D01*
X115407150Y122794836D01*
X116931150Y121645788D02*
X116423150Y122250550D01*
X116060293Y121645788D02*
X116060293Y122915788D01*
X116640865Y122915788D01*
X116786007Y122855312D01*
X116858579Y122794836D01*
X116931150Y122673883D01*
X116931150Y122492455D01*
X116858579Y122371502D01*
X116786007Y122311026D01*
X116640865Y122250550D01*
X116060293Y122250550D01*
X118382579Y121645788D02*
X117511722Y121645788D01*
X117947150Y121645788D02*
X117947150Y122915788D01*
X117802007Y122734360D01*
X117656865Y122613407D01*
X117511722Y122552931D01*
X110798865Y83545788D02*
X110798865Y84815788D01*
X111379437Y84815788D01*
X111524579Y84755312D01*
X111597151Y84694836D01*
X111669722Y84573883D01*
X111669722Y84392455D01*
X111597151Y84271502D01*
X111524579Y84211026D01*
X111379437Y84150550D01*
X110798865Y84150550D01*
X112976008Y84392455D02*
X112976008Y83364360D01*
X112903437Y83243407D01*
X112830865Y83182931D01*
X112685722Y83122455D01*
X112468008Y83122455D01*
X112322865Y83182931D01*
X112976008Y83606264D02*
X112830865Y83545788D01*
X112540579Y83545788D01*
X112395437Y83606264D01*
X112322865Y83666741D01*
X112250294Y83787693D01*
X112250294Y84150550D01*
X112322865Y84271502D01*
X112395437Y84331979D01*
X112540579Y84392455D01*
X112830865Y84392455D01*
X112976008Y84331979D01*
X113701722Y84815788D02*
X113701722Y83787693D01*
X113774294Y83666741D01*
X113846865Y83606264D01*
X113992008Y83545788D01*
X114282294Y83545788D01*
X114427436Y83606264D01*
X114500008Y83666741D01*
X114572579Y83787693D01*
X114572579Y84815788D01*
X115298293Y83545788D02*
X115298293Y84815788D01*
X115878865Y84815788D01*
X116024007Y84755312D01*
X116096579Y84694836D01*
X116169150Y84573883D01*
X116169150Y84392455D01*
X116096579Y84271502D01*
X116024007Y84211026D01*
X115878865Y84150550D01*
X115298293Y84150550D01*
X117620579Y83545788D02*
X116749722Y83545788D01*
X117185150Y83545788D02*
X117185150Y84815788D01*
X117040007Y84634360D01*
X116894865Y84513407D01*
X116749722Y84452931D01*
X109347436Y64495788D02*
X109347436Y65765788D01*
X109928008Y65765788D01*
X110073150Y65705312D01*
X110145722Y65644836D01*
X110218293Y65523883D01*
X110218293Y65342455D01*
X110145722Y65221502D01*
X110073150Y65161026D01*
X109928008Y65100550D01*
X109347436Y65100550D01*
X111669722Y65705312D02*
X111524579Y65765788D01*
X111306865Y65765788D01*
X111089150Y65705312D01*
X110944008Y65584360D01*
X110871436Y65463407D01*
X110798865Y65221502D01*
X110798865Y65040074D01*
X110871436Y64798169D01*
X110944008Y64677217D01*
X111089150Y64556264D01*
X111306865Y64495788D01*
X111452008Y64495788D01*
X111669722Y64556264D01*
X111742293Y64616741D01*
X111742293Y65040074D01*
X111452008Y65040074D01*
X112395436Y64495788D02*
X112395436Y65765788D01*
X112758293Y65765788D01*
X112976008Y65705312D01*
X113121150Y65584360D01*
X113193722Y65463407D01*
X113266293Y65221502D01*
X113266293Y65040074D01*
X113193722Y64798169D01*
X113121150Y64677217D01*
X112976008Y64556264D01*
X112758293Y64495788D01*
X112395436Y64495788D01*
X114137150Y64495788D02*
X113992008Y64556264D01*
X113919436Y64616741D01*
X113846865Y64737693D01*
X113846865Y65100550D01*
X113919436Y65221502D01*
X113992008Y65281979D01*
X114137150Y65342455D01*
X114354865Y65342455D01*
X114500008Y65281979D01*
X114572579Y65221502D01*
X114645150Y65100550D01*
X114645150Y64737693D01*
X114572579Y64616741D01*
X114500008Y64556264D01*
X114354865Y64495788D01*
X114137150Y64495788D01*
X115153150Y65342455D02*
X115443436Y64495788D01*
X115733722Y65100550D01*
X116024007Y64495788D01*
X116314293Y65342455D01*
X116894864Y65342455D02*
X116894864Y64495788D01*
X116894864Y65221502D02*
X116967436Y65281979D01*
X117112578Y65342455D01*
X117330293Y65342455D01*
X117475436Y65281979D01*
X117548007Y65161026D01*
X117548007Y64495788D01*
X119072007Y64495788D02*
X118201150Y64495788D01*
X118636578Y64495788D02*
X118636578Y65765788D01*
X118491435Y65584360D01*
X118346293Y65463407D01*
X118201150Y65402931D01*
X110399722Y102595788D02*
X110399722Y103865788D01*
X110980294Y103865788D01*
X111125436Y103805312D01*
X111198008Y103744836D01*
X111270579Y103623883D01*
X111270579Y103442455D01*
X111198008Y103321502D01*
X111125436Y103261026D01*
X110980294Y103200550D01*
X110399722Y103200550D01*
X112576865Y102595788D02*
X112576865Y103261026D01*
X112504294Y103381979D01*
X112359151Y103442455D01*
X112068865Y103442455D01*
X111923722Y103381979D01*
X112576865Y102656264D02*
X112431722Y102595788D01*
X112068865Y102595788D01*
X111923722Y102656264D01*
X111851151Y102777217D01*
X111851151Y102898169D01*
X111923722Y103019122D01*
X112068865Y103079598D01*
X112431722Y103079598D01*
X112576865Y103140074D01*
X113955722Y103442455D02*
X113955722Y102595788D01*
X113302579Y103442455D02*
X113302579Y102777217D01*
X113375151Y102656264D01*
X113520293Y102595788D01*
X113738008Y102595788D01*
X113883151Y102656264D01*
X113955722Y102716741D01*
X114608865Y102656264D02*
X114754008Y102595788D01*
X115044293Y102595788D01*
X115189436Y102656264D01*
X115262008Y102777217D01*
X115262008Y102837693D01*
X115189436Y102958645D01*
X115044293Y103019122D01*
X114826579Y103019122D01*
X114681436Y103079598D01*
X114608865Y103200550D01*
X114608865Y103261026D01*
X114681436Y103381979D01*
X114826579Y103442455D01*
X115044293Y103442455D01*
X115189436Y103381979D01*
X116495722Y102656264D02*
X116350579Y102595788D01*
X116060293Y102595788D01*
X115915150Y102656264D01*
X115842579Y102777217D01*
X115842579Y103261026D01*
X115915150Y103381979D01*
X116060293Y103442455D01*
X116350579Y103442455D01*
X116495722Y103381979D01*
X116568293Y103261026D01*
X116568293Y103140074D01*
X115842579Y103019122D01*
X118019722Y102595788D02*
X117148865Y102595788D01*
X117584293Y102595788D02*
X117584293Y103865788D01*
X117439150Y103684360D01*
X117294008Y103563407D01*
X117148865Y103502931D01*
X27323579Y102595788D02*
X27323579Y103865788D01*
X27904151Y103865788D01*
X28049293Y103805312D01*
X28121865Y103744836D01*
X28194436Y103623883D01*
X28194436Y103442455D01*
X28121865Y103321502D01*
X28049293Y103261026D01*
X27904151Y103200550D01*
X27323579Y103200550D01*
X29645865Y102595788D02*
X28775008Y102595788D01*
X29210436Y102595788D02*
X29210436Y103865788D01*
X29065293Y103684360D01*
X28920151Y103563407D01*
X28775008Y103502931D01*
X8527579Y103865788D02*
X8817865Y103865788D01*
X8963007Y103805312D01*
X9108150Y103684360D01*
X9180722Y103442455D01*
X9180722Y103019122D01*
X9108150Y102777217D01*
X8963007Y102656264D01*
X8817865Y102595788D01*
X8527579Y102595788D01*
X8382436Y102656264D01*
X8237293Y102777217D01*
X8164722Y103019122D01*
X8164722Y103442455D01*
X8237293Y103684360D01*
X8382436Y103805312D01*
X8527579Y103865788D01*
X10632150Y102595788D02*
X9761293Y102595788D01*
X10196721Y102595788D02*
X10196721Y103865788D01*
X10051578Y103684360D01*
X9906436Y103563407D01*
X9761293Y103502931D01*
X-34625207Y64495788D02*
X-34625207Y65765788D01*
X-33754350Y64495788D01*
X-33754350Y65765788D01*
X-32230350Y64495788D02*
X-33101207Y64495788D01*
X-32665779Y64495788D02*
X-32665779Y65765788D01*
X-32810922Y65584360D01*
X-32956064Y65463407D01*
X-33101207Y65402931D01*
X-15647778Y64495788D02*
X-15647778Y65765788D01*
X-15139778Y64858645D01*
X-14631778Y65765788D01*
X-14631778Y64495788D01*
X-13978635Y65644836D02*
X-13906064Y65705312D01*
X-13760921Y65765788D01*
X-13398064Y65765788D01*
X-13252921Y65705312D01*
X-13180350Y65644836D01*
X-13107778Y65523883D01*
X-13107778Y65402931D01*
X-13180350Y65221502D01*
X-14051207Y64495788D01*
X-13107778Y64495788D01*
X73896293Y45445788D02*
X73170579Y45445788D01*
X73170579Y46715788D01*
X74404293Y46111026D02*
X74912293Y46111026D01*
X75130007Y45445788D02*
X74404293Y45445788D01*
X74404293Y46715788D01*
X75130007Y46715788D01*
X76291150Y46111026D02*
X75783150Y46111026D01*
X75783150Y45445788D02*
X75783150Y46715788D01*
X76508864Y46715788D01*
X76871722Y46715788D02*
X77742579Y46715788D01*
X77307150Y45445788D02*
X77307150Y46715788D01*
X79048865Y45445788D02*
X78178008Y45445788D01*
X78613436Y45445788D02*
X78613436Y46715788D01*
X78468293Y46534360D01*
X78323151Y46413407D01*
X78178008Y46352931D01*
X13906936Y83545788D02*
X13181222Y83545788D01*
X13181222Y84815788D01*
X15213222Y83545788D02*
X14342365Y83545788D01*
X14777793Y83545788D02*
X14777793Y84815788D01*
X14632650Y84634360D01*
X14487508Y84513407D01*
X14342365Y84452931D01*
X-6739636Y83545788D02*
X-6739636Y84815788D01*
X-5868779Y83545788D02*
X-6521922Y84271502D01*
X-5868779Y84815788D02*
X-6739636Y84090074D01*
X-4417350Y83545788D02*
X-5288207Y83545788D01*
X-4852779Y83545788D02*
X-4852779Y84815788D01*
X-4997922Y84634360D01*
X-5143064Y84513407D01*
X-5288207Y84452931D01*
X-3473921Y84815788D02*
X-3328778Y84815788D01*
X-3183635Y84755312D01*
X-3111064Y84694836D01*
X-3038493Y84573883D01*
X-2965921Y84331979D01*
X-2965921Y84029598D01*
X-3038493Y83787693D01*
X-3111064Y83666741D01*
X-3183635Y83606264D01*
X-3328778Y83545788D01*
X-3473921Y83545788D01*
X-3619064Y83606264D01*
X-3691635Y83666741D01*
X-3764207Y83787693D01*
X-3836778Y84029598D01*
X-3836778Y84331979D01*
X-3764207Y84573883D01*
X-3691635Y84694836D01*
X-3619064Y84755312D01*
X-3473921Y84815788D01*
X-1251421Y121645788D02*
X-1251421Y122915788D01*
X-380564Y121645788D02*
X-1033707Y122371502D01*
X-380564Y122915788D02*
X-1251421Y122190074D01*
X345151Y121645788D02*
X635436Y121645788D01*
X780579Y121706264D01*
X853151Y121766741D01*
X998293Y121948169D01*
X1070865Y122190074D01*
X1070865Y122673883D01*
X998293Y122794836D01*
X925722Y122855312D01*
X780579Y122915788D01*
X490293Y122915788D01*
X345151Y122855312D01*
X272579Y122794836D01*
X200008Y122673883D01*
X200008Y122371502D01*
X272579Y122250550D01*
X345151Y122190074D01*
X490293Y122129598D01*
X780579Y122129598D01*
X925722Y122190074D01*
X998293Y122250550D01*
X1070865Y122371502D01*
X-20301421Y121645788D02*
X-20301421Y122915788D01*
X-19430564Y121645788D02*
X-20083707Y122371502D01*
X-19430564Y122915788D02*
X-20301421Y122190074D01*
X-18559707Y122371502D02*
X-18704849Y122431979D01*
X-18777421Y122492455D01*
X-18849992Y122613407D01*
X-18849992Y122673883D01*
X-18777421Y122794836D01*
X-18704849Y122855312D01*
X-18559707Y122915788D01*
X-18269421Y122915788D01*
X-18124278Y122855312D01*
X-18051707Y122794836D01*
X-17979135Y122673883D01*
X-17979135Y122613407D01*
X-18051707Y122492455D01*
X-18124278Y122431979D01*
X-18269421Y122371502D01*
X-18559707Y122371502D01*
X-18704849Y122311026D01*
X-18777421Y122250550D01*
X-18849992Y122129598D01*
X-18849992Y121887693D01*
X-18777421Y121766741D01*
X-18704849Y121706264D01*
X-18559707Y121645788D01*
X-18269421Y121645788D01*
X-18124278Y121706264D01*
X-18051707Y121766741D01*
X-17979135Y121887693D01*
X-17979135Y122129598D01*
X-18051707Y122250550D01*
X-18124278Y122311026D01*
X-18269421Y122371502D01*
X17798579Y121645788D02*
X17798579Y122915788D01*
X18669436Y121645788D02*
X18016293Y122371502D01*
X18669436Y122915788D02*
X17798579Y122190074D01*
X19612865Y122915788D02*
X19758008Y122915788D01*
X19903151Y122855312D01*
X19975722Y122794836D01*
X20048293Y122673883D01*
X20120865Y122431979D01*
X20120865Y122129598D01*
X20048293Y121887693D01*
X19975722Y121766741D01*
X19903151Y121706264D01*
X19758008Y121645788D01*
X19612865Y121645788D01*
X19467722Y121706264D01*
X19395151Y121766741D01*
X19322579Y121887693D01*
X19250008Y122129598D01*
X19250008Y122431979D01*
X19322579Y122673883D01*
X19395151Y122794836D01*
X19467722Y122855312D01*
X19612865Y122915788D01*
X33220008Y121645788D02*
X33220008Y122915788D01*
X34090865Y121645788D02*
X33437722Y122371502D01*
X34090865Y122915788D02*
X33220008Y122190074D01*
X34744008Y122129598D02*
X35905151Y122129598D01*
X37284008Y121645788D02*
X37284008Y122915788D01*
X37284008Y121706264D02*
X37138865Y121645788D01*
X36848579Y121645788D01*
X36703437Y121706264D01*
X36630865Y121766741D01*
X36558294Y121887693D01*
X36558294Y122250550D01*
X36630865Y122371502D01*
X36703437Y122431979D01*
X36848579Y122492455D01*
X37138865Y122492455D01*
X37284008Y122431979D01*
X38662865Y121645788D02*
X38662865Y122311026D01*
X38590294Y122431979D01*
X38445151Y122492455D01*
X38154865Y122492455D01*
X38009722Y122431979D01*
X38662865Y121706264D02*
X38517722Y121645788D01*
X38154865Y121645788D01*
X38009722Y121706264D01*
X37937151Y121827217D01*
X37937151Y121948169D01*
X38009722Y122069122D01*
X38154865Y122129598D01*
X38517722Y122129598D01*
X38662865Y122190074D01*
X39316008Y121706264D02*
X39461151Y121645788D01*
X39751436Y121645788D01*
X39896579Y121706264D01*
X39969151Y121827217D01*
X39969151Y121887693D01*
X39896579Y122008645D01*
X39751436Y122069122D01*
X39533722Y122069122D01*
X39388579Y122129598D01*
X39316008Y122250550D01*
X39316008Y122311026D01*
X39388579Y122431979D01*
X39533722Y122492455D01*
X39751436Y122492455D01*
X39896579Y122431979D01*
X40622293Y121645788D02*
X40622293Y122915788D01*
X41275436Y121645788D02*
X41275436Y122311026D01*
X41202865Y122431979D01*
X41057722Y122492455D01*
X40840007Y122492455D01*
X40694865Y122431979D01*
X40622293Y122371502D01*
X42799436Y121645788D02*
X41928579Y121645788D01*
X42364007Y121645788D02*
X42364007Y122915788D01*
X42218864Y122734360D01*
X42073722Y122613407D01*
X41928579Y122552931D01*
X-24447064Y84815788D02*
X-24447064Y83908645D01*
X-24519636Y83727217D01*
X-24664779Y83606264D01*
X-24882493Y83545788D01*
X-25027636Y83545788D01*
X-23793921Y84694836D02*
X-23721350Y84755312D01*
X-23576207Y84815788D01*
X-23213350Y84815788D01*
X-23068207Y84755312D01*
X-22995636Y84694836D01*
X-22923064Y84573883D01*
X-22923064Y84452931D01*
X-22995636Y84271502D01*
X-23866493Y83545788D01*
X-22923064Y83545788D01*
X-10377278Y102595788D02*
X-10377278Y103865788D01*
X-8853278Y102595788D02*
X-9724135Y102595788D01*
X-9288707Y102595788D02*
X-9288707Y103865788D01*
X-9433850Y103684360D01*
X-9578992Y103563407D01*
X-9724135Y103502931D01*
X-44150207Y83545788D02*
X-44150207Y84815788D01*
X-44150207Y84211026D02*
X-43279350Y84211026D01*
X-43279350Y83545788D02*
X-43279350Y84815788D01*
X-41755350Y83545788D02*
X-42626207Y83545788D01*
X-42190779Y83545788D02*
X-42190779Y84815788D01*
X-42335922Y84634360D01*
X-42481064Y84513407D01*
X-42626207Y84452931D01*
X36739721Y141361026D02*
X36231721Y141361026D01*
X36231721Y140695788D02*
X36231721Y141965788D01*
X36957435Y141965788D01*
X38336293Y140695788D02*
X37465436Y140695788D01*
X37900864Y140695788D02*
X37900864Y141965788D01*
X37755721Y141784360D01*
X37610579Y141663407D01*
X37465436Y141602931D01*
X39787722Y140695788D02*
X38916865Y140695788D01*
X39352293Y140695788D02*
X39352293Y141965788D01*
X39207150Y141784360D01*
X39062008Y141663407D01*
X38916865Y141602931D01*
X17689721Y141361026D02*
X17181721Y141361026D01*
X17181721Y140695788D02*
X17181721Y141965788D01*
X17907435Y141965788D01*
X19286293Y140695788D02*
X18415436Y140695788D01*
X18850864Y140695788D02*
X18850864Y141965788D01*
X18705721Y141784360D01*
X18560579Y141663407D01*
X18415436Y141602931D01*
X20229722Y141965788D02*
X20374865Y141965788D01*
X20520008Y141905312D01*
X20592579Y141844836D01*
X20665150Y141723883D01*
X20737722Y141481979D01*
X20737722Y141179598D01*
X20665150Y140937693D01*
X20592579Y140816741D01*
X20520008Y140756264D01*
X20374865Y140695788D01*
X20229722Y140695788D01*
X20084579Y140756264D01*
X20012008Y140816741D01*
X19939436Y140937693D01*
X19866865Y141179598D01*
X19866865Y141481979D01*
X19939436Y141723883D01*
X20012008Y141844836D01*
X20084579Y141905312D01*
X20229722Y141965788D01*
X-634564Y141361026D02*
X-1142564Y141361026D01*
X-1142564Y140695788D02*
X-1142564Y141965788D01*
X-416850Y141965788D01*
X236294Y140695788D02*
X526579Y140695788D01*
X671722Y140756264D01*
X744294Y140816741D01*
X889436Y140998169D01*
X962008Y141240074D01*
X962008Y141723883D01*
X889436Y141844836D01*
X816865Y141905312D01*
X671722Y141965788D01*
X381436Y141965788D01*
X236294Y141905312D01*
X163722Y141844836D01*
X91151Y141723883D01*
X91151Y141421502D01*
X163722Y141300550D01*
X236294Y141240074D01*
X381436Y141179598D01*
X671722Y141179598D01*
X816865Y141240074D01*
X889436Y141300550D01*
X962008Y141421502D01*
X-19684564Y141361026D02*
X-20192564Y141361026D01*
X-20192564Y140695788D02*
X-20192564Y141965788D01*
X-19466850Y141965788D01*
X-18668564Y141421502D02*
X-18813706Y141481979D01*
X-18886278Y141542455D01*
X-18958849Y141663407D01*
X-18958849Y141723883D01*
X-18886278Y141844836D01*
X-18813706Y141905312D01*
X-18668564Y141965788D01*
X-18378278Y141965788D01*
X-18233135Y141905312D01*
X-18160564Y141844836D01*
X-18087992Y141723883D01*
X-18087992Y141663407D01*
X-18160564Y141542455D01*
X-18233135Y141481979D01*
X-18378278Y141421502D01*
X-18668564Y141421502D01*
X-18813706Y141361026D01*
X-18886278Y141300550D01*
X-18958849Y141179598D01*
X-18958849Y140937693D01*
X-18886278Y140816741D01*
X-18813706Y140756264D01*
X-18668564Y140695788D01*
X-18378278Y140695788D01*
X-18233135Y140756264D01*
X-18160564Y140816741D01*
X-18087992Y140937693D01*
X-18087992Y141179598D01*
X-18160564Y141300550D01*
X-18233135Y141361026D01*
X-18378278Y141421502D01*
X-38734564Y141361026D02*
X-39242564Y141361026D01*
X-39242564Y140695788D02*
X-39242564Y141965788D01*
X-38516850Y141965788D01*
X-38081421Y141965788D02*
X-37065421Y141965788D01*
X-37718564Y140695788D01*
X91531151Y45445788D02*
X91531151Y46715788D01*
X91894008Y46715788D01*
X92111723Y46655312D01*
X92256865Y46534360D01*
X92329437Y46413407D01*
X92402008Y46171502D01*
X92402008Y45990074D01*
X92329437Y45748169D01*
X92256865Y45627217D01*
X92111723Y45506264D01*
X91894008Y45445788D01*
X91531151Y45445788D01*
X93345437Y46715788D02*
X93635723Y46715788D01*
X93780865Y46655312D01*
X93926008Y46534360D01*
X93998580Y46292455D01*
X93998580Y45869122D01*
X93926008Y45627217D01*
X93780865Y45506264D01*
X93635723Y45445788D01*
X93345437Y45445788D01*
X93200294Y45506264D01*
X93055151Y45627217D01*
X92982580Y45869122D01*
X92982580Y46292455D01*
X93055151Y46534360D01*
X93200294Y46655312D01*
X93345437Y46715788D01*
X94506579Y46715788D02*
X94869436Y45445788D01*
X95159722Y46352931D01*
X95450008Y45445788D01*
X95812865Y46715788D01*
X96393436Y45445788D02*
X96393436Y46715788D01*
X97264293Y45445788D01*
X97264293Y46715788D01*
X98788293Y45445788D02*
X97917436Y45445788D01*
X98352864Y45445788D02*
X98352864Y46715788D01*
X98207721Y46534360D01*
X98062579Y46413407D01*
X97917436Y46352931D01*
X109020865Y141058645D02*
X109746579Y141058645D01*
X108875722Y140695788D02*
X109383722Y141965788D01*
X109891722Y140695788D01*
X110399722Y141542455D02*
X110399722Y140695788D01*
X110399722Y141421502D02*
X110472294Y141481979D01*
X110617436Y141542455D01*
X110835151Y141542455D01*
X110980294Y141481979D01*
X111052865Y141361026D01*
X111052865Y140695788D01*
X111633436Y141542455D02*
X111996293Y140695788D01*
X112359151Y141542455D02*
X111996293Y140695788D01*
X111851151Y140393407D01*
X111778579Y140332931D01*
X111633436Y140272455D01*
X112939722Y140695788D02*
X112939722Y141965788D01*
X113084865Y141179598D02*
X113520294Y140695788D01*
X113520294Y141542455D02*
X112939722Y141058645D01*
X114754008Y140756264D02*
X114608865Y140695788D01*
X114318579Y140695788D01*
X114173436Y140756264D01*
X114100865Y140877217D01*
X114100865Y141361026D01*
X114173436Y141481979D01*
X114318579Y141542455D01*
X114608865Y141542455D01*
X114754008Y141481979D01*
X114826579Y141361026D01*
X114826579Y141240074D01*
X114100865Y141119122D01*
X115334579Y141542455D02*
X115697436Y140695788D01*
X116060294Y141542455D02*
X115697436Y140695788D01*
X115552294Y140393407D01*
X115479722Y140332931D01*
X115334579Y140272455D01*
X116640865Y141179598D02*
X117802008Y141179598D01*
X118382579Y141965788D02*
X119326008Y141965788D01*
X118818008Y141481979D01*
X119035722Y141481979D01*
X119180865Y141421502D01*
X119253436Y141361026D01*
X119326008Y141240074D01*
X119326008Y140937693D01*
X119253436Y140816741D01*
X119180865Y140756264D01*
X119035722Y140695788D01*
X118600294Y140695788D01*
X118455151Y140756264D01*
X118382579Y140816741D01*
X22379650Y65342455D02*
X23540793Y64979598D01*
X22379650Y64616741D01*
X25064793Y64495788D02*
X24193936Y64495788D01*
X24629364Y64495788D02*
X24629364Y65765788D01*
X24484221Y65584360D01*
X24339079Y65463407D01*
X24193936Y65402931D01*
X4490793Y65342455D02*
X3329650Y64979598D01*
X4490793Y64616741D01*
X6014793Y64495788D02*
X5143936Y64495788D01*
X5579364Y64495788D02*
X5579364Y65765788D01*
X5434221Y65584360D01*
X5289079Y65463407D01*
X5143936Y65402931D01*
X32557794Y83606264D02*
X32557794Y83545788D01*
X32485222Y83424836D01*
X32412651Y83364360D01*
X32485222Y84331979D02*
X32557794Y84271502D01*
X32485222Y84211026D01*
X32412651Y84271502D01*
X32485222Y84331979D01*
X32485222Y84211026D01*
X34009222Y83545788D02*
X33138365Y83545788D01*
X33573793Y83545788D02*
X33573793Y84815788D01*
X33428650Y84634360D01*
X33283508Y84513407D01*
X33138365Y84452931D01*
X42663365Y65826264D02*
X41357079Y64193407D01*
X43969650Y64495788D02*
X43098793Y64495788D01*
X43534221Y64495788D02*
X43534221Y65765788D01*
X43389078Y65584360D01*
X43243936Y65463407D01*
X43098793Y65402931D01*
X51607794Y84815788D02*
X51462651Y84573883D01*
X53059222Y83545788D02*
X52188365Y83545788D01*
X52623793Y83545788D02*
X52623793Y84815788D01*
X52478650Y84634360D01*
X52333508Y84513407D01*
X52188365Y84452931D01*
X-152725902Y65765788D02*
X-151709902Y65765788D01*
X-152725902Y64495788D01*
X-151709902Y64495788D01*
X-150331044Y64495788D02*
X-151201901Y64495788D01*
X-150766473Y64495788D02*
X-150766473Y65765788D01*
X-150911616Y65584360D01*
X-151056758Y65463407D01*
X-151201901Y65402931D01*
X-133675902Y65765788D02*
X-132659902Y64495788D01*
X-132659902Y65765788D02*
X-133675902Y64495788D01*
X-131281044Y64495788D02*
X-132151901Y64495788D01*
X-131716473Y64495788D02*
X-131716473Y65765788D01*
X-131861616Y65584360D01*
X-132006758Y65463407D01*
X-132151901Y65402931D01*
X-172175044Y46292455D02*
X-171884758Y45445788D01*
X-171594472Y46050550D01*
X-171304187Y45445788D01*
X-171013901Y46292455D01*
X-170433330Y45445788D02*
X-170433330Y46292455D01*
X-170433330Y46715788D02*
X-170505901Y46655312D01*
X-170433330Y46594836D01*
X-170360758Y46655312D01*
X-170433330Y46715788D01*
X-170433330Y46594836D01*
X-169707616Y46292455D02*
X-169707616Y45445788D01*
X-169707616Y46171502D02*
X-169635044Y46231979D01*
X-169489902Y46292455D01*
X-169272187Y46292455D01*
X-169127044Y46231979D01*
X-169054473Y46111026D01*
X-169054473Y45445788D01*
X-148108544Y103865788D02*
X-147745687Y102595788D01*
X-147455401Y103502931D01*
X-147165115Y102595788D01*
X-146802258Y103865788D01*
X-145423401Y102595788D02*
X-146294258Y102595788D01*
X-145858830Y102595788D02*
X-145858830Y103865788D01*
X-146003973Y103684360D01*
X-146149115Y103563407D01*
X-146294258Y103502931D01*
X-197475258Y122492455D02*
X-196894687Y122492455D01*
X-197257544Y122915788D02*
X-197257544Y121827217D01*
X-197184972Y121706264D01*
X-197039830Y121645788D01*
X-196894687Y121645788D01*
X-196386687Y121645788D02*
X-196386687Y122492455D01*
X-196386687Y122915788D02*
X-196459258Y122855312D01*
X-196386687Y122794836D01*
X-196314115Y122855312D01*
X-196386687Y122915788D01*
X-196386687Y122794836D01*
X-195443259Y121645788D02*
X-195588401Y121706264D01*
X-195660973Y121827217D01*
X-195660973Y122915788D01*
X-194209544Y121645788D02*
X-194209544Y122915788D01*
X-194209544Y121706264D02*
X-194354687Y121645788D01*
X-194644973Y121645788D01*
X-194790115Y121706264D01*
X-194862687Y121766741D01*
X-194935258Y121887693D01*
X-194935258Y122250550D01*
X-194862687Y122371502D01*
X-194790115Y122431979D01*
X-194644973Y122492455D01*
X-194354687Y122492455D01*
X-194209544Y122431979D01*
X-192903258Y121706264D02*
X-193048401Y121645788D01*
X-193338687Y121645788D01*
X-193483830Y121706264D01*
X-193556401Y121827217D01*
X-193556401Y122311026D01*
X-193483830Y122431979D01*
X-193338687Y122492455D01*
X-193048401Y122492455D01*
X-192903258Y122431979D01*
X-192830687Y122311026D01*
X-192830687Y122190074D01*
X-193556401Y122069122D01*
X-191379258Y121645788D02*
X-192250115Y121645788D01*
X-191814687Y121645788D02*
X-191814687Y122915788D01*
X-191959830Y122734360D01*
X-192104972Y122613407D01*
X-192250115Y122552931D01*
X-143128330Y83606264D02*
X-142910616Y83545788D01*
X-142547759Y83545788D01*
X-142402616Y83606264D01*
X-142330045Y83666741D01*
X-142257473Y83787693D01*
X-142257473Y83908645D01*
X-142330045Y84029598D01*
X-142402616Y84090074D01*
X-142547759Y84150550D01*
X-142838045Y84211026D01*
X-142983187Y84271502D01*
X-143055759Y84331979D01*
X-143128330Y84452931D01*
X-143128330Y84573883D01*
X-143055759Y84694836D01*
X-142983187Y84755312D01*
X-142838045Y84815788D01*
X-142475187Y84815788D01*
X-142257473Y84755312D01*
X-140806044Y83545788D02*
X-141676901Y83545788D01*
X-141241473Y83545788D02*
X-141241473Y84815788D01*
X-141386616Y84634360D01*
X-141531758Y84513407D01*
X-141676901Y84452931D01*
X-165924830Y102474836D02*
X-166069973Y102535312D01*
X-166215116Y102656264D01*
X-166432830Y102837693D01*
X-166577973Y102898169D01*
X-166723116Y102898169D01*
X-166650544Y102595788D02*
X-166795687Y102656264D01*
X-166940830Y102777217D01*
X-167013401Y103019122D01*
X-167013401Y103442455D01*
X-166940830Y103684360D01*
X-166795687Y103805312D01*
X-166650544Y103865788D01*
X-166360258Y103865788D01*
X-166215116Y103805312D01*
X-166069973Y103684360D01*
X-165997401Y103442455D01*
X-165997401Y103019122D01*
X-166069973Y102777217D01*
X-166215116Y102656264D01*
X-166360258Y102595788D01*
X-166650544Y102595788D01*
X-164545973Y102595788D02*
X-165416830Y102595788D01*
X-164981402Y102595788D02*
X-164981402Y103865788D01*
X-165126545Y103684360D01*
X-165271687Y103563407D01*
X-165416830Y103502931D01*
X-100229545Y121645788D02*
X-100229545Y122915788D01*
X-99358688Y121645788D02*
X-100011831Y122371502D01*
X-99358688Y122915788D02*
X-100229545Y122190074D01*
X-97979831Y122915788D02*
X-98705545Y122915788D01*
X-98778116Y122311026D01*
X-98705545Y122371502D01*
X-98560402Y122431979D01*
X-98197545Y122431979D01*
X-98052402Y122371502D01*
X-97979831Y122311026D01*
X-97907259Y122190074D01*
X-97907259Y121887693D01*
X-97979831Y121766741D01*
X-98052402Y121706264D01*
X-98197545Y121645788D01*
X-98560402Y121645788D01*
X-98705545Y121706264D01*
X-98778116Y121766741D01*
X-138329544Y121645788D02*
X-138329544Y122915788D01*
X-137458687Y121645788D02*
X-138111830Y122371502D01*
X-137458687Y122915788D02*
X-138329544Y122190074D01*
X-136950687Y122915788D02*
X-136007258Y122915788D01*
X-136515258Y122431979D01*
X-136297544Y122431979D01*
X-136152401Y122371502D01*
X-136079830Y122311026D01*
X-136007258Y122190074D01*
X-136007258Y121887693D01*
X-136079830Y121766741D01*
X-136152401Y121706264D01*
X-136297544Y121645788D01*
X-136732972Y121645788D01*
X-136878115Y121706264D01*
X-136950687Y121766741D01*
X-157379544Y121645788D02*
X-157379544Y122915788D01*
X-156508687Y121645788D02*
X-157161830Y122371502D01*
X-156508687Y122915788D02*
X-157379544Y122190074D01*
X-155928115Y122794836D02*
X-155855544Y122855312D01*
X-155710401Y122915788D01*
X-155347544Y122915788D01*
X-155202401Y122855312D01*
X-155129830Y122794836D01*
X-155057258Y122673883D01*
X-155057258Y122552931D01*
X-155129830Y122371502D01*
X-156000687Y121645788D01*
X-155057258Y121645788D01*
X-176429544Y121645788D02*
X-176429544Y122915788D01*
X-175558687Y121645788D02*
X-176211830Y122371502D01*
X-175558687Y122915788D02*
X-176429544Y122190074D01*
X-174107258Y121645788D02*
X-174978115Y121645788D01*
X-174542687Y121645788D02*
X-174542687Y122915788D01*
X-174687830Y122734360D01*
X-174832972Y122613407D01*
X-174978115Y122552931D01*
X-105028330Y84211026D02*
X-105536330Y84211026D01*
X-105536330Y83545788D02*
X-105536330Y84815788D01*
X-104810616Y84815788D01*
X-103722044Y84211026D02*
X-104230044Y84211026D01*
X-104230044Y83545788D02*
X-104230044Y84815788D01*
X-103504330Y84815788D01*
X-102198044Y84815788D02*
X-102923758Y84815788D01*
X-102996329Y84211026D01*
X-102923758Y84271502D01*
X-102778615Y84331979D01*
X-102415758Y84331979D01*
X-102270615Y84271502D01*
X-102198044Y84211026D01*
X-102125472Y84090074D01*
X-102125472Y83787693D01*
X-102198044Y83666741D01*
X-102270615Y83606264D01*
X-102415758Y83545788D01*
X-102778615Y83545788D01*
X-102923758Y83606264D01*
X-102996329Y83666741D01*
X-99612687Y141361026D02*
X-100120687Y141361026D01*
X-100120687Y140695788D02*
X-100120687Y141965788D01*
X-99394973Y141965788D01*
X-98088687Y141965788D02*
X-98814401Y141965788D01*
X-98886972Y141361026D01*
X-98814401Y141421502D01*
X-98669258Y141481979D01*
X-98306401Y141481979D01*
X-98161258Y141421502D01*
X-98088687Y141361026D01*
X-98016115Y141240074D01*
X-98016115Y140937693D01*
X-98088687Y140816741D01*
X-98161258Y140756264D01*
X-98306401Y140695788D01*
X-98669258Y140695788D01*
X-98814401Y140756264D01*
X-98886972Y140816741D01*
X-118662688Y141361026D02*
X-119170688Y141361026D01*
X-119170688Y140695788D02*
X-119170688Y141965788D01*
X-118444974Y141965788D01*
X-117211259Y141542455D02*
X-117211259Y140695788D01*
X-117574116Y142026264D02*
X-117936973Y141119122D01*
X-116993545Y141119122D01*
X-137712687Y141361026D02*
X-138220687Y141361026D01*
X-138220687Y140695788D02*
X-138220687Y141965788D01*
X-137494973Y141965788D01*
X-137059544Y141965788D02*
X-136116115Y141965788D01*
X-136624115Y141481979D01*
X-136406401Y141481979D01*
X-136261258Y141421502D01*
X-136188687Y141361026D01*
X-136116115Y141240074D01*
X-136116115Y140937693D01*
X-136188687Y140816741D01*
X-136261258Y140756264D01*
X-136406401Y140695788D01*
X-136841829Y140695788D01*
X-136986972Y140756264D01*
X-137059544Y140816741D01*
X-156762687Y141361026D02*
X-157270687Y141361026D01*
X-157270687Y140695788D02*
X-157270687Y141965788D01*
X-156544973Y141965788D01*
X-156036972Y141844836D02*
X-155964401Y141905312D01*
X-155819258Y141965788D01*
X-155456401Y141965788D01*
X-155311258Y141905312D01*
X-155238687Y141844836D01*
X-155166115Y141723883D01*
X-155166115Y141602931D01*
X-155238687Y141421502D01*
X-156109544Y140695788D01*
X-155166115Y140695788D01*
X-175812687Y141361026D02*
X-176320687Y141361026D01*
X-176320687Y140695788D02*
X-176320687Y141965788D01*
X-175594973Y141965788D01*
X-174216115Y140695788D02*
X-175086972Y140695788D01*
X-174651544Y140695788D02*
X-174651544Y141965788D01*
X-174796687Y141784360D01*
X-174941829Y141663407D01*
X-175086972Y141602931D01*
X-128731973Y103261026D02*
X-128223973Y103261026D01*
X-128006259Y102595788D02*
X-128731973Y102595788D01*
X-128731973Y103865788D01*
X-128006259Y103865788D01*
X-126554830Y102595788D02*
X-127425687Y102595788D01*
X-126990259Y102595788D02*
X-126990259Y103865788D01*
X-127135402Y103684360D01*
X-127280544Y103563407D01*
X-127425687Y103502931D01*
X-124042044Y83545788D02*
X-124042044Y84815788D01*
X-123679187Y84815788D01*
X-123461472Y84755312D01*
X-123316330Y84634360D01*
X-123243758Y84513407D01*
X-123171187Y84271502D01*
X-123171187Y84090074D01*
X-123243758Y83848169D01*
X-123316330Y83727217D01*
X-123461472Y83606264D01*
X-123679187Y83545788D01*
X-124042044Y83545788D01*
X-121719758Y83545788D02*
X-122590615Y83545788D01*
X-122155187Y83545788D02*
X-122155187Y84815788D01*
X-122300330Y84634360D01*
X-122445472Y84513407D01*
X-122590615Y84452931D01*
X-162105758Y83908645D02*
X-161380044Y83908645D01*
X-162250901Y83545788D02*
X-161742901Y84815788D01*
X-161234901Y83545788D01*
X-159928615Y83545788D02*
X-160799472Y83545788D01*
X-160364044Y83545788D02*
X-160364044Y84815788D01*
X-160509187Y84634360D01*
X-160654329Y84513407D01*
X-160799472Y84452931D01*
X-196060115Y140756264D02*
X-196205258Y140695788D01*
X-196495544Y140695788D01*
X-196640687Y140756264D01*
X-196713258Y140877217D01*
X-196713258Y141361026D01*
X-196640687Y141481979D01*
X-196495544Y141542455D01*
X-196205258Y141542455D01*
X-196060115Y141481979D01*
X-195987544Y141361026D01*
X-195987544Y141240074D01*
X-196713258Y141119122D01*
X-195406972Y140756264D02*
X-195261829Y140695788D01*
X-194971544Y140695788D01*
X-194826401Y140756264D01*
X-194753829Y140877217D01*
X-194753829Y140937693D01*
X-194826401Y141058645D01*
X-194971544Y141119122D01*
X-195189258Y141119122D01*
X-195334401Y141179598D01*
X-195406972Y141300550D01*
X-195406972Y141361026D01*
X-195334401Y141481979D01*
X-195189258Y141542455D01*
X-194971544Y141542455D01*
X-194826401Y141481979D01*
X-193447544Y140756264D02*
X-193592687Y140695788D01*
X-193882973Y140695788D01*
X-194028115Y140756264D01*
X-194100687Y140816741D01*
X-194173258Y140937693D01*
X-194173258Y141300550D01*
X-194100687Y141421502D01*
X-194028115Y141481979D01*
X-193882973Y141542455D01*
X-193592687Y141542455D01*
X-193447544Y141481979D01*
X-191996115Y140695788D02*
X-192866972Y140695788D01*
X-192431544Y140695788D02*
X-192431544Y141965788D01*
X-192576687Y141784360D01*
X-192721829Y141663407D01*
X-192866972Y141602931D01*
X-80562688Y141361026D02*
X-81070688Y141361026D01*
X-81070688Y140695788D02*
X-81070688Y141965788D01*
X-80344974Y141965788D01*
X-79111259Y141965788D02*
X-79401545Y141965788D01*
X-79546688Y141905312D01*
X-79619259Y141844836D01*
X-79764402Y141663407D01*
X-79836973Y141421502D01*
X-79836973Y140937693D01*
X-79764402Y140816741D01*
X-79691830Y140756264D01*
X-79546688Y140695788D01*
X-79256402Y140695788D01*
X-79111259Y140756264D01*
X-79038688Y140816741D01*
X-78966116Y140937693D01*
X-78966116Y141240074D01*
X-79038688Y141361026D01*
X-79111259Y141421502D01*
X-79256402Y141481979D01*
X-79546688Y141481979D01*
X-79691830Y141421502D01*
X-79764402Y141361026D01*
X-79836973Y141240074D01*
X-90740830Y103865788D02*
X-89869973Y103865788D01*
X-90305402Y102595788D02*
X-90305402Y103865788D01*
X-88563687Y102595788D02*
X-89434544Y102595788D01*
X-88999116Y102595788D02*
X-88999116Y103865788D01*
X-89144259Y103684360D01*
X-89289401Y103563407D01*
X-89434544Y103502931D01*
X-48477278Y103200550D02*
X-48477278Y102595788D01*
X-48985278Y103865788D02*
X-48477278Y103200550D01*
X-47969278Y103865788D01*
X-46662992Y102595788D02*
X-47533849Y102595788D01*
X-47098421Y102595788D02*
X-47098421Y103865788D01*
X-47243564Y103684360D01*
X-47388706Y103563407D01*
X-47533849Y103502931D01*
X-39351421Y121645788D02*
X-39351421Y122915788D01*
X-38480564Y121645788D02*
X-39133707Y122371502D01*
X-38480564Y122915788D02*
X-39351421Y122190074D01*
X-37972564Y122915788D02*
X-36956564Y122915788D01*
X-37609707Y121645788D01*
X111742293Y45445788D02*
X111234293Y46050550D01*
X110871436Y45445788D02*
X110871436Y46715788D01*
X111452008Y46715788D01*
X111597150Y46655312D01*
X111669722Y46594836D01*
X111742293Y46473883D01*
X111742293Y46292455D01*
X111669722Y46171502D01*
X111597150Y46111026D01*
X111452008Y46050550D01*
X110871436Y46050550D01*
X112395436Y45445788D02*
X112395436Y46292455D01*
X112395436Y46715788D02*
X112322865Y46655312D01*
X112395436Y46594836D01*
X112468008Y46655312D01*
X112395436Y46715788D01*
X112395436Y46594836D01*
X113774293Y46292455D02*
X113774293Y45264360D01*
X113701722Y45143407D01*
X113629150Y45082931D01*
X113484007Y45022455D01*
X113266293Y45022455D01*
X113121150Y45082931D01*
X113774293Y45506264D02*
X113629150Y45445788D01*
X113338864Y45445788D01*
X113193722Y45506264D01*
X113121150Y45566741D01*
X113048579Y45687693D01*
X113048579Y46050550D01*
X113121150Y46171502D01*
X113193722Y46231979D01*
X113338864Y46292455D01*
X113629150Y46292455D01*
X113774293Y46231979D01*
X114500007Y45445788D02*
X114500007Y46715788D01*
X115153150Y45445788D02*
X115153150Y46111026D01*
X115080579Y46231979D01*
X114935436Y46292455D01*
X114717721Y46292455D01*
X114572579Y46231979D01*
X114500007Y46171502D01*
X115661150Y46292455D02*
X116241721Y46292455D01*
X115878864Y46715788D02*
X115878864Y45627217D01*
X115951436Y45506264D01*
X116096578Y45445788D01*
X116241721Y45445788D01*
X117548007Y45445788D02*
X116677150Y45445788D01*
X117112578Y45445788D02*
X117112578Y46715788D01*
X116967435Y46534360D01*
X116822293Y46413407D01*
X116677150Y46352931D01*
X51834579Y121645788D02*
X51834579Y122915788D01*
X52705436Y121645788D02*
X52052293Y122371502D01*
X52705436Y122915788D02*
X51834579Y122190074D01*
X53358579Y122129598D02*
X54519722Y122129598D01*
X55826008Y121706264D02*
X55680865Y121645788D01*
X55390579Y121645788D01*
X55245436Y121706264D01*
X55172865Y121827217D01*
X55172865Y122311026D01*
X55245436Y122431979D01*
X55390579Y122492455D01*
X55680865Y122492455D01*
X55826008Y122431979D01*
X55898579Y122311026D01*
X55898579Y122190074D01*
X55172865Y122069122D01*
X57204865Y122492455D02*
X57204865Y121222455D01*
X57204865Y121706264D02*
X57059722Y121645788D01*
X56769436Y121645788D01*
X56624294Y121706264D01*
X56551722Y121766741D01*
X56479151Y121887693D01*
X56479151Y122250550D01*
X56551722Y122371502D01*
X56624294Y122431979D01*
X56769436Y122492455D01*
X57059722Y122492455D01*
X57204865Y122431979D01*
X58583722Y122492455D02*
X58583722Y121645788D01*
X57930579Y122492455D02*
X57930579Y121827217D01*
X58003151Y121706264D01*
X58148293Y121645788D01*
X58366008Y121645788D01*
X58511151Y121706264D01*
X58583722Y121766741D01*
X59962579Y121645788D02*
X59962579Y122311026D01*
X59890008Y122431979D01*
X59744865Y122492455D01*
X59454579Y122492455D01*
X59309436Y122431979D01*
X59962579Y121706264D02*
X59817436Y121645788D01*
X59454579Y121645788D01*
X59309436Y121706264D01*
X59236865Y121827217D01*
X59236865Y121948169D01*
X59309436Y122069122D01*
X59454579Y122129598D01*
X59817436Y122129598D01*
X59962579Y122190074D01*
X60906007Y121645788D02*
X60760865Y121706264D01*
X60688293Y121827217D01*
X60688293Y122915788D01*
X62284865Y121645788D02*
X61414008Y121645788D01*
X61849436Y121645788D02*
X61849436Y122915788D01*
X61704293Y122734360D01*
X61559151Y122613407D01*
X61414008Y122552931D01*
X47063008Y102172455D02*
X46700151Y102172455D01*
X46700151Y103986741D01*
X47063008Y103986741D01*
X48441865Y102595788D02*
X47571008Y102595788D01*
X48006436Y102595788D02*
X48006436Y103865788D01*
X47861293Y103684360D01*
X47716151Y103563407D01*
X47571008Y103502931D01*
X73497150Y121645788D02*
X73497150Y122915788D01*
X74368007Y121645788D02*
X73714864Y122371502D01*
X74368007Y122915788D02*
X73497150Y122190074D01*
X75021150Y122129598D02*
X76182293Y122129598D01*
X76400007Y123036741D02*
X77706293Y121403883D01*
X78722293Y121645788D02*
X77851436Y121645788D01*
X78286864Y121645788D02*
X78286864Y122915788D01*
X78141721Y122734360D01*
X77996579Y122613407D01*
X77851436Y122552931D01*
X55789721Y141361026D02*
X55281721Y141361026D01*
X55281721Y140695788D02*
X55281721Y141965788D01*
X56007435Y141965788D01*
X57386293Y140695788D02*
X56515436Y140695788D01*
X56950864Y140695788D02*
X56950864Y141965788D01*
X56805721Y141784360D01*
X56660579Y141663407D01*
X56515436Y141602931D01*
X57966865Y141844836D02*
X58039436Y141905312D01*
X58184579Y141965788D01*
X58547436Y141965788D01*
X58692579Y141905312D01*
X58765150Y141844836D01*
X58837722Y141723883D01*
X58837722Y141602931D01*
X58765150Y141421502D01*
X57894293Y140695788D01*
X58837722Y140695788D01*
X-86486330Y45506264D02*
X-86631473Y45445788D01*
X-86921759Y45445788D01*
X-87066901Y45506264D01*
X-87139473Y45566741D01*
X-87212044Y45687693D01*
X-87212044Y46050550D01*
X-87139473Y46171502D01*
X-87066901Y46231979D01*
X-86921759Y46292455D01*
X-86631473Y46292455D01*
X-86486330Y46231979D01*
X-86050901Y46292455D02*
X-85470330Y46292455D01*
X-85833187Y46715788D02*
X-85833187Y45627217D01*
X-85760615Y45506264D01*
X-85615473Y45445788D01*
X-85470330Y45445788D01*
X-84962330Y45445788D02*
X-84962330Y46292455D01*
X-84962330Y46050550D02*
X-84889758Y46171502D01*
X-84817187Y46231979D01*
X-84672044Y46292455D01*
X-84526901Y46292455D01*
X-83801187Y45445788D02*
X-83946329Y45506264D01*
X-84018901Y45627217D01*
X-84018901Y46715788D01*
X-82422329Y45445788D02*
X-83293186Y45445788D01*
X-82857758Y45445788D02*
X-82857758Y46715788D01*
X-83002901Y46534360D01*
X-83148043Y46413407D01*
X-83293186Y46352931D01*
X-81179545Y121645788D02*
X-81179545Y122915788D01*
X-80308688Y121645788D02*
X-80961831Y122371502D01*
X-80308688Y122915788D02*
X-81179545Y122190074D01*
X-79002402Y122915788D02*
X-79292688Y122915788D01*
X-79437831Y122855312D01*
X-79510402Y122794836D01*
X-79655545Y122613407D01*
X-79728116Y122371502D01*
X-79728116Y121887693D01*
X-79655545Y121766741D01*
X-79582973Y121706264D01*
X-79437831Y121645788D01*
X-79147545Y121645788D01*
X-79002402Y121706264D01*
X-78929831Y121766741D01*
X-78857259Y121887693D01*
X-78857259Y122190074D01*
X-78929831Y122311026D01*
X-79002402Y122371502D01*
X-79147545Y122431979D01*
X-79437831Y122431979D01*
X-79582973Y122371502D01*
X-79655545Y122311026D01*
X-79728116Y122190074D01*
X-85143758Y84755312D02*
X-85288901Y84815788D01*
X-85506615Y84815788D01*
X-85724330Y84755312D01*
X-85869472Y84634360D01*
X-85942044Y84513407D01*
X-86014615Y84271502D01*
X-86014615Y84090074D01*
X-85942044Y83848169D01*
X-85869472Y83727217D01*
X-85724330Y83606264D01*
X-85506615Y83545788D01*
X-85361472Y83545788D01*
X-85143758Y83606264D01*
X-85071187Y83666741D01*
X-85071187Y84090074D01*
X-85361472Y84090074D01*
X-83619758Y83545788D02*
X-84490615Y83545788D01*
X-84055187Y83545788D02*
X-84055187Y84815788D01*
X-84200330Y84634360D01*
X-84345472Y84513407D01*
X-84490615Y84452931D01*
X-53130921Y65161026D02*
X-52913207Y65100550D01*
X-52840635Y65040074D01*
X-52768064Y64919122D01*
X-52768064Y64737693D01*
X-52840635Y64616741D01*
X-52913207Y64556264D01*
X-53058349Y64495788D01*
X-53638921Y64495788D01*
X-53638921Y65765788D01*
X-53130921Y65765788D01*
X-52985778Y65705312D01*
X-52913207Y65644836D01*
X-52840635Y65523883D01*
X-52840635Y65402931D01*
X-52913207Y65281979D01*
X-52985778Y65221502D01*
X-53130921Y65161026D01*
X-53638921Y65161026D01*
X-52187492Y65644836D02*
X-52114921Y65705312D01*
X-51969778Y65765788D01*
X-51606921Y65765788D01*
X-51461778Y65705312D01*
X-51389207Y65644836D01*
X-51316635Y65523883D01*
X-51316635Y65402931D01*
X-51389207Y65221502D01*
X-52260064Y64495788D01*
X-51316635Y64495788D01*
X-75909044Y65161026D02*
X-75691330Y65100550D01*
X-75618758Y65040074D01*
X-75546187Y64919122D01*
X-75546187Y64737693D01*
X-75618758Y64616741D01*
X-75691330Y64556264D01*
X-75836472Y64495788D01*
X-76417044Y64495788D01*
X-76417044Y65765788D01*
X-75909044Y65765788D01*
X-75763901Y65705312D01*
X-75691330Y65644836D01*
X-75618758Y65523883D01*
X-75618758Y65402931D01*
X-75691330Y65281979D01*
X-75763901Y65221502D01*
X-75909044Y65161026D01*
X-76417044Y65161026D01*
X-74094758Y64495788D02*
X-74965615Y64495788D01*
X-74530187Y64495788D02*
X-74530187Y65765788D01*
X-74675330Y65584360D01*
X-74820472Y65463407D01*
X-74965615Y65402931D01*
X90515150Y121645788D02*
X90515150Y122915788D01*
X91386007Y121645788D02*
X90732864Y122371502D01*
X91386007Y122915788D02*
X90515150Y122190074D01*
X92039150Y122129598D02*
X93200293Y122129598D01*
X93708293Y122492455D02*
X94288864Y122492455D01*
X93926007Y122915788D02*
X93926007Y121827217D01*
X93998579Y121706264D01*
X94143721Y121645788D01*
X94288864Y121645788D01*
X94796864Y121645788D02*
X94796864Y122492455D01*
X94796864Y122915788D02*
X94724293Y122855312D01*
X94796864Y122794836D01*
X94869436Y122855312D01*
X94796864Y122915788D01*
X94796864Y122794836D01*
X95740292Y121645788D02*
X95595150Y121706264D01*
X95522578Y121827217D01*
X95522578Y122915788D01*
X96974007Y121645788D02*
X96974007Y122915788D01*
X96974007Y121706264D02*
X96828864Y121645788D01*
X96538578Y121645788D01*
X96393436Y121706264D01*
X96320864Y121766741D01*
X96248293Y121887693D01*
X96248293Y122250550D01*
X96320864Y122371502D01*
X96393436Y122431979D01*
X96538578Y122492455D01*
X96828864Y122492455D01*
X96974007Y122431979D01*
X98280293Y121706264D02*
X98135150Y121645788D01*
X97844864Y121645788D01*
X97699721Y121706264D01*
X97627150Y121827217D01*
X97627150Y122311026D01*
X97699721Y122431979D01*
X97844864Y122492455D01*
X98135150Y122492455D01*
X98280293Y122431979D01*
X98352864Y122311026D01*
X98352864Y122190074D01*
X97627150Y122069122D01*
X98933436Y122794836D02*
X99006007Y122855312D01*
X99151150Y122915788D01*
X99514007Y122915788D01*
X99659150Y122855312D01*
X99731721Y122794836D01*
X99804293Y122673883D01*
X99804293Y122552931D01*
X99731721Y122371502D01*
X98860864Y121645788D01*
X99804293Y121645788D01*
X65555114Y64495788D02*
X65047114Y65100550D01*
X64684257Y64495788D02*
X64684257Y65765788D01*
X65264829Y65765788D01*
X65409971Y65705312D01*
X65482543Y65644836D01*
X65555114Y65523883D01*
X65555114Y65342455D01*
X65482543Y65221502D01*
X65409971Y65161026D01*
X65264829Y65100550D01*
X64684257Y65100550D01*
X66135686Y64556264D02*
X66353400Y64495788D01*
X66716257Y64495788D01*
X66861400Y64556264D01*
X66933971Y64616741D01*
X67006543Y64737693D01*
X67006543Y64858645D01*
X66933971Y64979598D01*
X66861400Y65040074D01*
X66716257Y65100550D01*
X66425971Y65161026D01*
X66280829Y65221502D01*
X66208257Y65281979D01*
X66135686Y65402931D01*
X66135686Y65523883D01*
X66208257Y65644836D01*
X66280829Y65705312D01*
X66425971Y65765788D01*
X66788829Y65765788D01*
X67006543Y65705312D01*
X67659686Y64495788D02*
X67659686Y65765788D01*
X67659686Y65161026D02*
X68530543Y65161026D01*
X68530543Y64495788D02*
X68530543Y65765788D01*
X69256257Y64495788D02*
X69256257Y65765788D01*
X70489971Y65161026D02*
X69981971Y65161026D01*
X69981971Y64495788D02*
X69981971Y65765788D01*
X70707685Y65765788D01*
X71070543Y65765788D02*
X71941400Y65765788D01*
X71505971Y64495788D02*
X71505971Y65765788D01*
X73247686Y64495788D02*
X72376829Y64495788D01*
X72812257Y64495788D02*
X72812257Y65765788D01*
X72667114Y65584360D01*
X72521972Y65463407D01*
X72376829Y65402931D01*
X-188517223Y84211026D02*
X-189025223Y84211026D01*
X-189025223Y83545788D02*
X-189025223Y84815788D01*
X-188299509Y84815788D01*
X-187718937Y83545788D02*
X-187718937Y84815788D01*
X-186848080Y83545788D01*
X-186848080Y84815788D01*
X-185324080Y83545788D02*
X-186194937Y83545788D01*
X-185759509Y83545788D02*
X-185759509Y84815788D01*
X-185904652Y84634360D01*
X-186049794Y84513407D01*
X-186194937Y84452931D01*
X9566257Y45445788D02*
X9421115Y45506264D01*
X9348543Y45627217D01*
X9348543Y46715788D01*
X10799972Y45445788D02*
X10799972Y46111026D01*
X10727401Y46231979D01*
X10582258Y46292455D01*
X10291972Y46292455D01*
X10146829Y46231979D01*
X10799972Y45506264D02*
X10654829Y45445788D01*
X10291972Y45445788D01*
X10146829Y45506264D01*
X10074258Y45627217D01*
X10074258Y45748169D01*
X10146829Y45869122D01*
X10291972Y45929598D01*
X10654829Y45929598D01*
X10799972Y45990074D01*
X11380543Y46292455D02*
X11743400Y45445788D01*
X12106258Y46292455D02*
X11743400Y45445788D01*
X11598258Y45143407D01*
X11525686Y45082931D01*
X11380543Y45022455D01*
X13267401Y45506264D02*
X13122258Y45445788D01*
X12831972Y45445788D01*
X12686829Y45506264D01*
X12614258Y45627217D01*
X12614258Y46111026D01*
X12686829Y46231979D01*
X12831972Y46292455D01*
X13122258Y46292455D01*
X13267401Y46231979D01*
X13339972Y46111026D01*
X13339972Y45990074D01*
X12614258Y45869122D01*
X13993115Y45445788D02*
X13993115Y46292455D01*
X13993115Y46050550D02*
X14065687Y46171502D01*
X14138258Y46231979D01*
X14283401Y46292455D01*
X14428544Y46292455D01*
X-193279723Y84211026D02*
X-193787723Y84211026D01*
X-193787723Y83545788D02*
X-193787723Y84815788D01*
X-193062009Y84815788D01*
X-192481437Y83545788D02*
X-192481437Y84815788D01*
X-191610580Y83545788D01*
X-191610580Y84815788D01*
X-190957437Y84694836D02*
X-190884866Y84755312D01*
X-190739723Y84815788D01*
X-190376866Y84815788D01*
X-190231723Y84755312D01*
X-190159152Y84694836D01*
X-190086580Y84573883D01*
X-190086580Y84452931D01*
X-190159152Y84271502D01*
X-191030009Y83545788D01*
X-190086580Y83545788D01*
X50011222Y46111026D02*
X49503222Y46111026D01*
X49503222Y45445788D02*
X49503222Y46715788D01*
X50228936Y46715788D01*
X50809508Y45445788D02*
X50809508Y46715788D01*
X51680365Y45445788D01*
X51680365Y46715788D01*
X52406079Y45929598D02*
X53567222Y45929598D01*
X54147793Y46715788D02*
X55091222Y46715788D01*
X54583222Y46231979D01*
X54800936Y46231979D01*
X54946079Y46171502D01*
X55018650Y46111026D01*
X55091222Y45990074D01*
X55091222Y45687693D01*
X55018650Y45566741D01*
X54946079Y45506264D01*
X54800936Y45445788D01*
X54365508Y45445788D01*
X54220365Y45506264D01*
X54147793Y45566741D01*
X84736650Y102595788D02*
X84736650Y103865788D01*
X84736650Y103381979D02*
X84881793Y103442455D01*
X85172079Y103442455D01*
X85317222Y103381979D01*
X85389793Y103321502D01*
X85462364Y103200550D01*
X85462364Y102837693D01*
X85389793Y102716741D01*
X85317222Y102656264D01*
X85172079Y102595788D01*
X84881793Y102595788D01*
X84736650Y102656264D01*
X86768650Y102656264D02*
X86623507Y102595788D01*
X86333221Y102595788D01*
X86188079Y102656264D01*
X86115507Y102716741D01*
X86042936Y102837693D01*
X86042936Y103200550D01*
X86115507Y103321502D01*
X86188079Y103381979D01*
X86333221Y103442455D01*
X86623507Y103442455D01*
X86768650Y103381979D01*
X87421793Y102595788D02*
X87421793Y103865788D01*
X87566936Y103079598D02*
X88002365Y102595788D01*
X88002365Y103442455D02*
X87421793Y102958645D01*
X88582936Y102656264D02*
X88728079Y102595788D01*
X89018364Y102595788D01*
X89163507Y102656264D01*
X89236079Y102777217D01*
X89236079Y102837693D01*
X89163507Y102958645D01*
X89018364Y103019122D01*
X88800650Y103019122D01*
X88655507Y103079598D01*
X88582936Y103200550D01*
X88582936Y103261026D01*
X88655507Y103381979D01*
X88800650Y103442455D01*
X89018364Y103442455D01*
X89163507Y103381979D01*
X89889221Y103442455D02*
X89889221Y102172455D01*
X89889221Y103381979D02*
X90034364Y103442455D01*
X90324650Y103442455D01*
X90469793Y103381979D01*
X90542364Y103321502D01*
X90614935Y103200550D01*
X90614935Y102837693D01*
X90542364Y102716741D01*
X90469793Y102656264D01*
X90324650Y102595788D01*
X90034364Y102595788D01*
X89889221Y102656264D01*
X91921221Y102595788D02*
X91921221Y103261026D01*
X91848650Y103381979D01*
X91703507Y103442455D01*
X91413221Y103442455D01*
X91268078Y103381979D01*
X91921221Y102656264D02*
X91776078Y102595788D01*
X91413221Y102595788D01*
X91268078Y102656264D01*
X91195507Y102777217D01*
X91195507Y102898169D01*
X91268078Y103019122D01*
X91413221Y103079598D01*
X91776078Y103079598D01*
X91921221Y103140074D01*
X93300078Y102656264D02*
X93154935Y102595788D01*
X92864649Y102595788D01*
X92719507Y102656264D01*
X92646935Y102716741D01*
X92574364Y102837693D01*
X92574364Y103200550D01*
X92646935Y103321502D01*
X92719507Y103381979D01*
X92864649Y103442455D01*
X93154935Y103442455D01*
X93300078Y103381979D01*
X94533793Y102656264D02*
X94388650Y102595788D01*
X94098364Y102595788D01*
X93953221Y102656264D01*
X93880650Y102777217D01*
X93880650Y103261026D01*
X93953221Y103381979D01*
X94098364Y103442455D01*
X94388650Y103442455D01*
X94533793Y103381979D01*
X94606364Y103261026D01*
X94606364Y103140074D01*
X93880650Y103019122D01*
X96057793Y102595788D02*
X95186936Y102595788D01*
X95622364Y102595788D02*
X95622364Y103865788D01*
X95477221Y103684360D01*
X95332079Y103563407D01*
X95186936Y103502931D01*
X-192132187Y103865788D02*
X-191261330Y103865788D01*
X-191696759Y102595788D02*
X-191696759Y103865788D01*
X-190100187Y102595788D02*
X-190100187Y103261026D01*
X-190172758Y103381979D01*
X-190317901Y103442455D01*
X-190608187Y103442455D01*
X-190753330Y103381979D01*
X-190100187Y102656264D02*
X-190245330Y102595788D01*
X-190608187Y102595788D01*
X-190753330Y102656264D01*
X-190825901Y102777217D01*
X-190825901Y102898169D01*
X-190753330Y103019122D01*
X-190608187Y103079598D01*
X-190245330Y103079598D01*
X-190100187Y103140074D01*
X-189374473Y102595788D02*
X-189374473Y103865788D01*
X-189374473Y103381979D02*
X-189229330Y103442455D01*
X-188939044Y103442455D01*
X-188793901Y103381979D01*
X-188721330Y103321502D01*
X-188648759Y103200550D01*
X-188648759Y102837693D01*
X-188721330Y102716741D01*
X-188793901Y102656264D01*
X-188939044Y102595788D01*
X-189229330Y102595788D01*
X-189374473Y102656264D01*
X-187197330Y102595788D02*
X-188068187Y102595788D01*
X-187632759Y102595788D02*
X-187632759Y103865788D01*
X-187777902Y103684360D01*
X-187923044Y103563407D01*
X-188068187Y103502931D01*
X-147927115Y45808645D02*
X-147201401Y45808645D01*
X-148072258Y45445788D02*
X-147564258Y46715788D01*
X-147056258Y45445788D01*
X-146330544Y45445788D02*
X-146475686Y45506264D01*
X-146548258Y45627217D01*
X-146548258Y46715788D01*
X-145967686Y46292455D02*
X-145387115Y46292455D01*
X-145749972Y46715788D02*
X-145749972Y45627217D01*
X-145677400Y45506264D01*
X-145532258Y45445788D01*
X-145387115Y45445788D01*
X-190426759Y45566741D02*
X-190499330Y45506264D01*
X-190717044Y45445788D01*
X-190862187Y45445788D01*
X-191079902Y45506264D01*
X-191225044Y45627217D01*
X-191297616Y45748169D01*
X-191370187Y45990074D01*
X-191370187Y46171502D01*
X-191297616Y46413407D01*
X-191225044Y46534360D01*
X-191079902Y46655312D01*
X-190862187Y46715788D01*
X-190717044Y46715788D01*
X-190499330Y46655312D01*
X-190426759Y46594836D01*
X-189991330Y46292455D02*
X-189410759Y46292455D01*
X-189773616Y46715788D02*
X-189773616Y45627217D01*
X-189701044Y45506264D01*
X-189555902Y45445788D01*
X-189410759Y45445788D01*
X-188902759Y45445788D02*
X-188902759Y46292455D01*
X-188902759Y46050550D02*
X-188830187Y46171502D01*
X-188757616Y46231979D01*
X-188612473Y46292455D01*
X-188467330Y46292455D01*
X-187741616Y45445788D02*
X-187886758Y45506264D01*
X-187959330Y45627217D01*
X-187959330Y46715788D01*
X75898038Y121645788D02*
X75898038Y122915788D01*
X76043181Y122129598D02*
X76478610Y121645788D01*
X76478610Y122492455D02*
X75898038Y122008645D01*
X77131752Y122129598D02*
X78292895Y122129598D01*
X79018609Y121645788D02*
X79018609Y122492455D01*
X79018609Y122250550D02*
X79091181Y122371502D01*
X79163752Y122431979D01*
X79308895Y122492455D01*
X79454038Y122492455D01*
X80542610Y121706264D02*
X80397467Y121645788D01*
X80107181Y121645788D01*
X79962038Y121706264D01*
X79889467Y121827217D01*
X79889467Y122311026D01*
X79962038Y122431979D01*
X80107181Y122492455D01*
X80397467Y122492455D01*
X80542610Y122431979D01*
X80615181Y122311026D01*
X80615181Y122190074D01*
X79889467Y122069122D01*
X81921467Y122492455D02*
X81921467Y121464360D01*
X81848896Y121343407D01*
X81776324Y121282931D01*
X81631181Y121222455D01*
X81413467Y121222455D01*
X81268324Y121282931D01*
X81921467Y121706264D02*
X81776324Y121645788D01*
X81486038Y121645788D01*
X81340896Y121706264D01*
X81268324Y121766741D01*
X81195753Y121887693D01*
X81195753Y122250550D01*
X81268324Y122371502D01*
X81340896Y122431979D01*
X81486038Y122492455D01*
X81776324Y122492455D01*
X81921467Y122431979D01*
X82647181Y121645788D02*
X82647181Y122915788D01*
X82647181Y122431979D02*
X82792324Y122492455D01*
X83082610Y122492455D01*
X83227753Y122431979D01*
X83300324Y122371502D01*
X83372895Y122250550D01*
X83372895Y121887693D01*
X83300324Y121766741D01*
X83227753Y121706264D01*
X83082610Y121645788D01*
X82792324Y121645788D01*
X82647181Y121706264D01*
X84679181Y121645788D02*
X84679181Y122311026D01*
X84606610Y122431979D01*
X84461467Y122492455D01*
X84171181Y122492455D01*
X84026038Y122431979D01*
X84679181Y121706264D02*
X84534038Y121645788D01*
X84171181Y121645788D01*
X84026038Y121706264D01*
X83953467Y121827217D01*
X83953467Y121948169D01*
X84026038Y122069122D01*
X84171181Y122129598D01*
X84534038Y122129598D01*
X84679181Y122190074D01*
X86058038Y121706264D02*
X85912895Y121645788D01*
X85622609Y121645788D01*
X85477467Y121706264D01*
X85404895Y121766741D01*
X85332324Y121887693D01*
X85332324Y122250550D01*
X85404895Y122371502D01*
X85477467Y122431979D01*
X85622609Y122492455D01*
X85912895Y122492455D01*
X86058038Y122431979D01*
X86711181Y121645788D02*
X86711181Y122915788D01*
X86856324Y122129598D02*
X87291753Y121645788D01*
X87291753Y122492455D02*
X86711181Y122008645D01*
X87872324Y121706264D02*
X88017467Y121645788D01*
X88307752Y121645788D01*
X88452895Y121706264D01*
X88525467Y121827217D01*
X88525467Y121887693D01*
X88452895Y122008645D01*
X88307752Y122069122D01*
X88090038Y122069122D01*
X87944895Y122129598D01*
X87872324Y122250550D01*
X87872324Y122311026D01*
X87944895Y122431979D01*
X88090038Y122492455D01*
X88307752Y122492455D01*
X88452895Y122431979D01*
X89178609Y122492455D02*
X89178609Y121222455D01*
X89178609Y122431979D02*
X89323752Y122492455D01*
X89614038Y122492455D01*
X89759181Y122431979D01*
X89831752Y122371502D01*
X89904323Y122250550D01*
X89904323Y121887693D01*
X89831752Y121766741D01*
X89759181Y121706264D01*
X89614038Y121645788D01*
X89323752Y121645788D01*
X89178609Y121706264D01*
X91210609Y121645788D02*
X91210609Y122311026D01*
X91138038Y122431979D01*
X90992895Y122492455D01*
X90702609Y122492455D01*
X90557466Y122431979D01*
X91210609Y121706264D02*
X91065466Y121645788D01*
X90702609Y121645788D01*
X90557466Y121706264D01*
X90484895Y121827217D01*
X90484895Y121948169D01*
X90557466Y122069122D01*
X90702609Y122129598D01*
X91065466Y122129598D01*
X91210609Y122190074D01*
X92589466Y121706264D02*
X92444323Y121645788D01*
X92154037Y121645788D01*
X92008895Y121706264D01*
X91936323Y121766741D01*
X91863752Y121887693D01*
X91863752Y122250550D01*
X91936323Y122371502D01*
X92008895Y122431979D01*
X92154037Y122492455D01*
X92444323Y122492455D01*
X92589466Y122431979D01*
X93823181Y121706264D02*
X93678038Y121645788D01*
X93387752Y121645788D01*
X93242609Y121706264D01*
X93170038Y121827217D01*
X93170038Y122311026D01*
X93242609Y122431979D01*
X93387752Y122492455D01*
X93678038Y122492455D01*
X93823181Y122431979D01*
X93895752Y122311026D01*
X93895752Y122190074D01*
X93170038Y122069122D01*
X95347181Y121645788D02*
X94476324Y121645788D01*
X94911752Y121645788D02*
X94911752Y122915788D01*
X94766609Y122734360D01*
X94621467Y122613407D01*
X94476324Y122552931D01*
X-117238473Y51856264D02*
X-117020759Y51795788D01*
X-116657902Y51795788D01*
X-116512759Y51856264D01*
X-116440188Y51916741D01*
X-116367616Y52037693D01*
X-116367616Y52158645D01*
X-116440188Y52279598D01*
X-116512759Y52340074D01*
X-116657902Y52400550D01*
X-116948188Y52461026D01*
X-117093330Y52521502D01*
X-117165902Y52581979D01*
X-117238473Y52702931D01*
X-117238473Y52823883D01*
X-117165902Y52944836D01*
X-117093330Y53005312D01*
X-116948188Y53065788D01*
X-116585330Y53065788D01*
X-116367616Y53005312D01*
X-115714473Y52642455D02*
X-115714473Y51372455D01*
X-115714473Y52581979D02*
X-115569330Y52642455D01*
X-115279044Y52642455D01*
X-115133901Y52581979D01*
X-115061330Y52521502D01*
X-114988759Y52400550D01*
X-114988759Y52037693D01*
X-115061330Y51916741D01*
X-115133901Y51856264D01*
X-115279044Y51795788D01*
X-115569330Y51795788D01*
X-115714473Y51856264D01*
X-113682473Y51795788D02*
X-113682473Y52461026D01*
X-113755044Y52581979D01*
X-113900187Y52642455D01*
X-114190473Y52642455D01*
X-114335616Y52581979D01*
X-113682473Y51856264D02*
X-113827616Y51795788D01*
X-114190473Y51795788D01*
X-114335616Y51856264D01*
X-114408187Y51977217D01*
X-114408187Y52098169D01*
X-114335616Y52219122D01*
X-114190473Y52279598D01*
X-113827616Y52279598D01*
X-113682473Y52340074D01*
X-112303616Y51856264D02*
X-112448759Y51795788D01*
X-112739045Y51795788D01*
X-112884187Y51856264D01*
X-112956759Y51916741D01*
X-113029330Y52037693D01*
X-113029330Y52400550D01*
X-112956759Y52521502D01*
X-112884187Y52581979D01*
X-112739045Y52642455D01*
X-112448759Y52642455D01*
X-112303616Y52581979D01*
X-111069901Y51856264D02*
X-111215044Y51795788D01*
X-111505330Y51795788D01*
X-111650473Y51856264D01*
X-111723044Y51977217D01*
X-111723044Y52461026D01*
X-111650473Y52581979D01*
X-111505330Y52642455D01*
X-111215044Y52642455D01*
X-111069901Y52581979D01*
X-110997330Y52461026D01*
X-110997330Y52340074D01*
X-111723044Y52219122D01*
X-109545901Y51795788D02*
X-110416758Y51795788D01*
X-109981330Y51795788D02*
X-109981330Y53065788D01*
X-110126473Y52884360D01*
X-110271615Y52763407D01*
X-110416758Y52702931D01*
X-30348028Y51856264D02*
X-30130314Y51795788D01*
X-29767457Y51795788D01*
X-29622314Y51856264D01*
X-29549743Y51916741D01*
X-29477171Y52037693D01*
X-29477171Y52158645D01*
X-29549743Y52279598D01*
X-29622314Y52340074D01*
X-29767457Y52400550D01*
X-30057743Y52461026D01*
X-30202885Y52521502D01*
X-30275457Y52581979D01*
X-30348028Y52702931D01*
X-30348028Y52823883D01*
X-30275457Y52944836D01*
X-30202885Y53005312D01*
X-30057743Y53065788D01*
X-29694885Y53065788D01*
X-29477171Y53005312D01*
X-28824028Y51795788D02*
X-28824028Y53065788D01*
X-28243456Y53065788D01*
X-28098314Y53005312D01*
X-28025742Y52944836D01*
X-27953171Y52823883D01*
X-27953171Y52642455D01*
X-28025742Y52521502D01*
X-28098314Y52461026D01*
X-28243456Y52400550D01*
X-28824028Y52400550D01*
X-27372599Y52158645D02*
X-26646885Y52158645D01*
X-27517742Y51795788D02*
X-27009742Y53065788D01*
X-26501742Y51795788D01*
X-25122885Y51916741D02*
X-25195456Y51856264D01*
X-25413170Y51795788D01*
X-25558313Y51795788D01*
X-25776028Y51856264D01*
X-25921170Y51977217D01*
X-25993742Y52098169D01*
X-26066313Y52340074D01*
X-26066313Y52521502D01*
X-25993742Y52763407D01*
X-25921170Y52884360D01*
X-25776028Y53005312D01*
X-25558313Y53065788D01*
X-25413170Y53065788D01*
X-25195456Y53005312D01*
X-25122885Y52944836D01*
X-24469742Y52461026D02*
X-23961742Y52461026D01*
X-23744028Y51795788D02*
X-24469742Y51795788D01*
X-24469742Y53065788D01*
X-23744028Y53065788D01*
X-23163456Y52944836D02*
X-23090885Y53005312D01*
X-22945742Y53065788D01*
X-22582885Y53065788D01*
X-22437742Y53005312D01*
X-22365171Y52944836D01*
X-22292599Y52823883D01*
X-22292599Y52702931D01*
X-22365171Y52521502D01*
X-23236028Y51795788D01*
X-22292599Y51795788D01*
X79915186Y84211026D02*
X80423186Y84211026D01*
X80640900Y83545788D02*
X79915186Y83545788D01*
X79915186Y84815788D01*
X80640900Y84815788D01*
X81294043Y84392455D02*
X81294043Y83545788D01*
X81294043Y84271502D02*
X81366615Y84331979D01*
X81511757Y84392455D01*
X81729472Y84392455D01*
X81874615Y84331979D01*
X81947186Y84211026D01*
X81947186Y83545788D01*
X82455186Y84392455D02*
X83035757Y84392455D01*
X82672900Y84815788D02*
X82672900Y83727217D01*
X82745472Y83606264D01*
X82890614Y83545788D01*
X83035757Y83545788D01*
X84124329Y83606264D02*
X83979186Y83545788D01*
X83688900Y83545788D01*
X83543757Y83606264D01*
X83471186Y83727217D01*
X83471186Y84211026D01*
X83543757Y84331979D01*
X83688900Y84392455D01*
X83979186Y84392455D01*
X84124329Y84331979D01*
X84196900Y84211026D01*
X84196900Y84090074D01*
X83471186Y83969122D01*
X84850043Y83545788D02*
X84850043Y84392455D01*
X84850043Y84150550D02*
X84922615Y84271502D01*
X84995186Y84331979D01*
X85140329Y84392455D01*
X85285472Y84392455D01*
X86591758Y83545788D02*
X85720901Y83545788D01*
X86156329Y83545788D02*
X86156329Y84815788D01*
X86011186Y84634360D01*
X85866044Y84513407D01*
X85720901Y84452931D01*
X-185532722Y64556264D02*
X-185315008Y64495788D01*
X-184952151Y64495788D01*
X-184807008Y64556264D01*
X-184734437Y64616741D01*
X-184661865Y64737693D01*
X-184661865Y64858645D01*
X-184734437Y64979598D01*
X-184807008Y65040074D01*
X-184952151Y65100550D01*
X-185242437Y65161026D01*
X-185387579Y65221502D01*
X-185460151Y65281979D01*
X-185532722Y65402931D01*
X-185532722Y65523883D01*
X-185460151Y65644836D01*
X-185387579Y65705312D01*
X-185242437Y65765788D01*
X-184879579Y65765788D01*
X-184661865Y65705312D01*
X-184008722Y64495788D02*
X-184008722Y65765788D01*
X-183355579Y64495788D02*
X-183355579Y65161026D01*
X-183428150Y65281979D01*
X-183573293Y65342455D01*
X-183791008Y65342455D01*
X-183936150Y65281979D01*
X-184008722Y65221502D01*
X-182629865Y64495788D02*
X-182629865Y65342455D01*
X-182629865Y65765788D02*
X-182702436Y65705312D01*
X-182629865Y65644836D01*
X-182557293Y65705312D01*
X-182629865Y65765788D01*
X-182629865Y65644836D01*
X-182121865Y65342455D02*
X-181541294Y65342455D01*
X-181904151Y64495788D02*
X-181904151Y65584360D01*
X-181831579Y65705312D01*
X-181686437Y65765788D01*
X-181541294Y65765788D01*
X-181251008Y65342455D02*
X-180670437Y65342455D01*
X-181033294Y65765788D02*
X-181033294Y64677217D01*
X-180960722Y64556264D01*
X-180815580Y64495788D01*
X-180670437Y64495788D01*
X-179364151Y64495788D02*
X-180235008Y64495788D01*
X-179799580Y64495788D02*
X-179799580Y65765788D01*
X-179944723Y65584360D01*
X-180089865Y65463407D01*
X-180235008Y65402931D01*
X-197015639Y142739884D02*
X-196955163Y142594741D01*
X-196955163Y142304455D01*
X-197015639Y142159312D01*
X-197136592Y142086741D01*
X-197620401Y142086741D01*
X-197741354Y142159312D01*
X-197801830Y142304455D01*
X-197801830Y142594741D01*
X-197741354Y142739884D01*
X-197620401Y142812455D01*
X-197499449Y142812455D01*
X-197378497Y142086741D01*
X-197015639Y143393027D02*
X-196955163Y143538170D01*
X-196955163Y143828455D01*
X-197015639Y143973598D01*
X-197136592Y144046170D01*
X-197197068Y144046170D01*
X-197318020Y143973598D01*
X-197378497Y143828455D01*
X-197378497Y143610741D01*
X-197438973Y143465598D01*
X-197559925Y143393027D01*
X-197620401Y143393027D01*
X-197741354Y143465598D01*
X-197801830Y143610741D01*
X-197801830Y143828455D01*
X-197741354Y143973598D01*
X-197015639Y145352455D02*
X-196955163Y145207312D01*
X-196955163Y144917026D01*
X-197015639Y144771884D01*
X-197076116Y144699312D01*
X-197197068Y144626741D01*
X-197559925Y144626741D01*
X-197680877Y144699312D01*
X-197741354Y144771884D01*
X-197801830Y144917026D01*
X-197801830Y145207312D01*
X-197741354Y145352455D01*
X-198104211Y145933027D02*
X-198164687Y146005598D01*
X-198225163Y146150741D01*
X-198225163Y146513598D01*
X-198164687Y146658741D01*
X-198104211Y146731312D01*
X-197983258Y146803884D01*
X-197862306Y146803884D01*
X-197680877Y146731312D01*
X-196955163Y145860455D01*
X-196955163Y146803884D01*
X-178570401Y142268169D02*
X-178570401Y141760169D01*
X-177905163Y141760169D02*
X-179175163Y141760169D01*
X-179175163Y142485883D01*
X-177905163Y143864741D02*
X-177905163Y142993884D01*
X-177905163Y143429312D02*
X-179175163Y143429312D01*
X-178993735Y143284169D01*
X-178872782Y143139027D01*
X-178812306Y142993884D01*
X-178388973Y144517884D02*
X-178388973Y145679027D01*
X-179054211Y146332170D02*
X-179114687Y146404741D01*
X-179175163Y146549884D01*
X-179175163Y146912741D01*
X-179114687Y147057884D01*
X-179054211Y147130455D01*
X-178933258Y147203027D01*
X-178812306Y147203027D01*
X-178630877Y147130455D01*
X-177905163Y146259598D01*
X-177905163Y147203027D01*
X-159520401Y142268169D02*
X-159520401Y141760169D01*
X-158855163Y141760169D02*
X-160125163Y141760169D01*
X-160125163Y142485883D01*
X-160004211Y142993884D02*
X-160064687Y143066455D01*
X-160125163Y143211598D01*
X-160125163Y143574455D01*
X-160064687Y143719598D01*
X-160004211Y143792169D01*
X-159883258Y143864741D01*
X-159762306Y143864741D01*
X-159580877Y143792169D01*
X-158855163Y142921312D01*
X-158855163Y143864741D01*
X-159338973Y144517884D02*
X-159338973Y145679027D01*
X-160004211Y146332170D02*
X-160064687Y146404741D01*
X-160125163Y146549884D01*
X-160125163Y146912741D01*
X-160064687Y147057884D01*
X-160004211Y147130455D01*
X-159883258Y147203027D01*
X-159762306Y147203027D01*
X-159580877Y147130455D01*
X-158855163Y146259598D01*
X-158855163Y147203027D01*
X-140470401Y142268169D02*
X-140470401Y141760169D01*
X-139805163Y141760169D02*
X-141075163Y141760169D01*
X-141075163Y142485883D01*
X-141075163Y142921312D02*
X-141075163Y143864741D01*
X-140591354Y143356741D01*
X-140591354Y143574455D01*
X-140530877Y143719598D01*
X-140470401Y143792169D01*
X-140349449Y143864741D01*
X-140047068Y143864741D01*
X-139926116Y143792169D01*
X-139865639Y143719598D01*
X-139805163Y143574455D01*
X-139805163Y143139027D01*
X-139865639Y142993884D01*
X-139926116Y142921312D01*
X-140288973Y144517884D02*
X-140288973Y145679027D01*
X-140954211Y146332170D02*
X-141014687Y146404741D01*
X-141075163Y146549884D01*
X-141075163Y146912741D01*
X-141014687Y147057884D01*
X-140954211Y147130455D01*
X-140833258Y147203027D01*
X-140712306Y147203027D01*
X-140530877Y147130455D01*
X-139805163Y146259598D01*
X-139805163Y147203027D01*
X-121420401Y142268169D02*
X-121420401Y141760169D01*
X-120755163Y141760169D02*
X-122025163Y141760169D01*
X-122025163Y142485883D01*
X-121601830Y143719598D02*
X-120755163Y143719598D01*
X-122085639Y143356741D02*
X-121178497Y142993884D01*
X-121178497Y143937312D01*
X-121238973Y144517884D02*
X-121238973Y145679027D01*
X-121904211Y146332170D02*
X-121964687Y146404741D01*
X-122025163Y146549884D01*
X-122025163Y146912741D01*
X-121964687Y147057884D01*
X-121904211Y147130455D01*
X-121783258Y147203027D01*
X-121662306Y147203027D01*
X-121480877Y147130455D01*
X-120755163Y146259598D01*
X-120755163Y147203027D01*
X-102370401Y142268169D02*
X-102370401Y141760169D01*
X-101705163Y141760169D02*
X-102975163Y141760169D01*
X-102975163Y142485883D01*
X-102975163Y143792169D02*
X-102975163Y143066455D01*
X-102370401Y142993884D01*
X-102430877Y143066455D01*
X-102491354Y143211598D01*
X-102491354Y143574455D01*
X-102430877Y143719598D01*
X-102370401Y143792169D01*
X-102249449Y143864741D01*
X-101947068Y143864741D01*
X-101826116Y143792169D01*
X-101765639Y143719598D01*
X-101705163Y143574455D01*
X-101705163Y143211598D01*
X-101765639Y143066455D01*
X-101826116Y142993884D01*
X-102188973Y144517884D02*
X-102188973Y145679027D01*
X-102854211Y146332170D02*
X-102914687Y146404741D01*
X-102975163Y146549884D01*
X-102975163Y146912741D01*
X-102914687Y147057884D01*
X-102854211Y147130455D01*
X-102733258Y147203027D01*
X-102612306Y147203027D01*
X-102430877Y147130455D01*
X-101705163Y146259598D01*
X-101705163Y147203027D01*
X-83320401Y142268169D02*
X-83320401Y141760169D01*
X-82655163Y141760169D02*
X-83925163Y141760169D01*
X-83925163Y142485883D01*
X-83925163Y143719598D02*
X-83925163Y143429312D01*
X-83864687Y143284169D01*
X-83804211Y143211598D01*
X-83622782Y143066455D01*
X-83380877Y142993884D01*
X-82897068Y142993884D01*
X-82776116Y143066455D01*
X-82715639Y143139027D01*
X-82655163Y143284169D01*
X-82655163Y143574455D01*
X-82715639Y143719598D01*
X-82776116Y143792169D01*
X-82897068Y143864741D01*
X-83199449Y143864741D01*
X-83320401Y143792169D01*
X-83380877Y143719598D01*
X-83441354Y143574455D01*
X-83441354Y143284169D01*
X-83380877Y143139027D01*
X-83320401Y143066455D01*
X-83199449Y142993884D01*
X-83138973Y144517884D02*
X-83138973Y145679027D01*
X-83804211Y146332170D02*
X-83864687Y146404741D01*
X-83925163Y146549884D01*
X-83925163Y146912741D01*
X-83864687Y147057884D01*
X-83804211Y147130455D01*
X-83683258Y147203027D01*
X-83562306Y147203027D01*
X-83380877Y147130455D01*
X-82655163Y146259598D01*
X-82655163Y147203027D01*
M02*
