G04 #@! TF.FileFunction,Paste,Bot*
%FSLAX46Y46*%
G04 Gerber Fmt 4.6, Leading zero omitted, Abs format (unit mm)*
G04 Created by KiCad (PCBNEW 4.0.6) date 06/06/17 21:35:04*
%MOMM*%
%LPD*%
G01*
G04 APERTURE LIST*
%ADD10C,0.100000*%
%ADD11R,1.200000X1.200000*%
%ADD12C,1.879600*%
G04 APERTURE END LIST*
D10*
D11*
X-82750000Y71325000D03*
X-82750000Y68175000D03*
X-177075000Y120750000D03*
X-173925000Y120750000D03*
X-148250000Y127575000D03*
X-148250000Y124425000D03*
X-129250000Y127575000D03*
X-129250000Y124425000D03*
X-110000000Y127575000D03*
X-110000000Y124425000D03*
X-91000000Y127575000D03*
X-91000000Y124425000D03*
X-88000000Y127575000D03*
X-88000000Y124425000D03*
X-153250000Y89825000D03*
X-153250000Y86675000D03*
X-135750000Y51575000D03*
X-135750000Y48425000D03*
X-105500000Y70900000D03*
X-105500000Y67750000D03*
X-93250000Y48425000D03*
X-93250000Y51575000D03*
X-115000000Y89825000D03*
X-115000000Y86675000D03*
X-119750000Y108575000D03*
X-119750000Y105425000D03*
X-186500000Y147575000D03*
X-186500000Y144425000D03*
X-173175000Y152500000D03*
X-176325000Y152500000D03*
X-148000000Y145575000D03*
X-148000000Y142425000D03*
X-129250000Y145575000D03*
X-129250000Y142425000D03*
X-126000000Y145575000D03*
X-126000000Y142425000D03*
X-91250000Y145575000D03*
X-91250000Y142425000D03*
X-88000000Y145575000D03*
X-88000000Y142425000D03*
X-178250000Y89775000D03*
X-178250000Y86625000D03*
X-92750000Y89775000D03*
X-92750000Y86625000D03*
X-158000000Y108575000D03*
X-158000000Y105425000D03*
X-100750000Y108575000D03*
X-100750000Y105425000D03*
X-134000000Y89825000D03*
X-134000000Y86675000D03*
X-177575000Y80000000D03*
X-174425000Y80000000D03*
X-121750000Y48425000D03*
X-121750000Y51575000D03*
X-97500000Y108575000D03*
X-97500000Y105425000D03*
X-181750000Y108575000D03*
X-181750000Y105425000D03*
X-195929687Y120750000D03*
X-192779687Y120750000D03*
X-101750000Y70900000D03*
X-101750000Y67750000D03*
X-138750000Y108575000D03*
X-138750000Y105425000D03*
X-159500000Y51575000D03*
X-159500000Y48425000D03*
X-124500000Y70900000D03*
X-124500000Y67750000D03*
X-143500000Y70900000D03*
X-143500000Y67750000D03*
D12*
X-167603437Y157353125D03*
X-167603437Y154813125D03*
X-167603437Y152273125D03*
X-167603437Y149733125D03*
X-167603437Y147193125D03*
X-167603437Y144653125D03*
X-167603437Y142113125D03*
X-167603437Y139573125D03*
X-167603437Y137033125D03*
X-167603437Y134493125D03*
X-167603437Y131953125D03*
X-167603437Y129413125D03*
X-182843437Y129413125D03*
X-182843437Y131953125D03*
X-182843437Y134493125D03*
X-182843437Y137033125D03*
X-182843437Y139573125D03*
X-182843437Y142113125D03*
X-182843437Y144653125D03*
X-182843437Y147193125D03*
X-182843437Y149733125D03*
X-182843437Y152273125D03*
X-182843437Y154813125D03*
X-182843437Y157353125D03*
D11*
X-180750000Y51575000D03*
X-180750000Y48425000D03*
X60000000Y90075000D03*
X60000000Y86925000D03*
X50750000Y70925000D03*
X50750000Y67775000D03*
X26500000Y127575000D03*
X26500000Y124425000D03*
X-30750000Y127625000D03*
X-30750000Y124475000D03*
X-11500000Y127825000D03*
X-11500000Y124675000D03*
X7500000Y127575000D03*
X7500000Y124425000D03*
X41000000Y90075000D03*
X41000000Y86925000D03*
X12500000Y70925000D03*
X12500000Y67775000D03*
X31500000Y70925000D03*
X31500000Y67775000D03*
X84000000Y145150000D03*
X84000000Y142000000D03*
X103000000Y145125000D03*
X103000000Y141975000D03*
X112475000Y136500000D03*
X109325000Y136500000D03*
X-44500000Y70325000D03*
X-44500000Y67175000D03*
X80500000Y108825000D03*
X80500000Y105675000D03*
X45500000Y127575000D03*
X45500000Y124425000D03*
X103000000Y51575000D03*
X103000000Y48425000D03*
X95325000Y89250000D03*
X92175000Y89250000D03*
X57325000Y121250000D03*
X54175000Y121250000D03*
X-27000000Y145250000D03*
X-27000000Y142100000D03*
X8500000Y145325000D03*
X8500000Y142175000D03*
X27000000Y145325000D03*
X27000000Y142175000D03*
X30500000Y145325000D03*
X30500000Y142175000D03*
X55475000Y153250000D03*
X58625000Y153250000D03*
X62750000Y51575000D03*
X62750000Y48425000D03*
X-35000000Y90025000D03*
X-35000000Y86875000D03*
X-2000000Y108825000D03*
X-2000000Y105675000D03*
X-16000000Y90075000D03*
X-16000000Y86925000D03*
X3000000Y90075000D03*
X3000000Y86925000D03*
X22000000Y90075000D03*
X22000000Y86925000D03*
X22000000Y51575000D03*
X22000000Y48425000D03*
X84250000Y51575000D03*
X84250000Y48425000D03*
X-6500000Y70925000D03*
X-6500000Y67775000D03*
X-25500000Y70925000D03*
X-25500000Y67775000D03*
X17000000Y108825000D03*
X17000000Y105675000D03*
X36000000Y108825000D03*
X36000000Y105675000D03*
X112475000Y98226563D03*
X109325000Y98226563D03*
X112475000Y60126563D03*
X109325000Y60126563D03*
X112475000Y79176563D03*
X109325000Y79176563D03*
X112475000Y117276563D03*
X109325000Y117276563D03*
X112475000Y44500000D03*
X109325000Y44500000D03*
X77000000Y70925000D03*
X77000000Y67775000D03*
X-8750000Y51575000D03*
X-8750000Y48425000D03*
X95325000Y121000000D03*
X92175000Y121000000D03*
X-21000000Y108825000D03*
X-21000000Y105675000D03*
X102500000Y70925000D03*
X102500000Y67775000D03*
X25500000Y51575000D03*
X25500000Y48425000D03*
X-40000000Y108825000D03*
X-40000000Y105675000D03*
X55000000Y108825000D03*
X55000000Y105675000D03*
X76325000Y136000000D03*
X73175000Y136000000D03*
X74500000Y108825000D03*
X74500000Y105675000D03*
X-96000000Y89825000D03*
X-96000000Y86675000D03*
X-30000000Y145250000D03*
X-30000000Y142100000D03*
X-162384375Y70625000D03*
X-162384375Y67475000D03*
X63500000Y90025000D03*
X63500000Y86875000D03*
M02*
