G04 #@! TF.FileFunction,Soldermask,Top*
%FSLAX46Y46*%
G04 Gerber Fmt 4.6, Leading zero omitted, Abs format (unit mm)*
G04 Created by KiCad (PCBNEW 4.0.6) date 06/06/17 21:35:04*
%MOMM*%
%LPD*%
G01*
G04 APERTURE LIST*
%ADD10C,0.100000*%
%ADD11C,2.400000*%
%ADD12C,2.900000*%
%ADD13R,2.000000X2.000000*%
%ADD14C,2.000000*%
%ADD15C,2.279600*%
%ADD16O,2.457400X2.152600*%
%ADD17C,2.152600*%
%ADD18C,1.390600*%
%ADD19O,3.410000X1.910000*%
G04 APERTURE END LIST*
D10*
D11*
X-85000000Y63250000D03*
D12*
X-121154235Y129395266D02*
X-121965141Y127935358D01*
X-115614964Y130474640D02*
X-115654412Y129895984D01*
X-116391734Y72245266D02*
X-117202640Y70785358D01*
X-110852463Y73324640D02*
X-110891911Y72745984D01*
X-97341734Y72245266D02*
X-98152640Y70785358D01*
X-91802463Y73324640D02*
X-91841911Y72745984D01*
D13*
X-82750000Y65850000D03*
D14*
X-82750000Y73650000D03*
D12*
X-111629234Y110345266D02*
X-112440140Y108885358D01*
X-106089963Y111424640D02*
X-106129411Y110845984D01*
X-171160484Y53195266D02*
X-171971390Y51735358D01*
X-165621213Y54274640D02*
X-165660661Y53695984D01*
D11*
X-42250000Y63000000D03*
D15*
X49530000Y157353125D03*
X49530000Y154813125D03*
X49530000Y152273125D03*
X49530000Y149733125D03*
X49530000Y147193125D03*
X49530000Y144653125D03*
X49530000Y142113125D03*
X49530000Y139573125D03*
X49530000Y137033125D03*
X49530000Y134493125D03*
X49530000Y131953125D03*
X49530000Y129413125D03*
X64770000Y129413125D03*
X64770000Y131953125D03*
X64770000Y134493125D03*
X64770000Y137033125D03*
X64770000Y139573125D03*
X64770000Y142113125D03*
X64770000Y144653125D03*
X64770000Y147193125D03*
X64770000Y149733125D03*
X64770000Y152273125D03*
X64770000Y154813125D03*
X64770000Y157353125D03*
D13*
X-171600000Y120750000D03*
D14*
X-179400000Y120750000D03*
D13*
X-148250000Y122100000D03*
D14*
X-148250000Y129900000D03*
D13*
X-129250000Y122100000D03*
D14*
X-129250000Y129900000D03*
D13*
X-110000000Y122100000D03*
D14*
X-110000000Y129900000D03*
D13*
X-91000000Y122100000D03*
D14*
X-91000000Y129900000D03*
D13*
X-88000000Y122100000D03*
D14*
X-88000000Y129900000D03*
D13*
X-153250000Y84350000D03*
D14*
X-153250000Y92150000D03*
D13*
X-135750000Y46100000D03*
D14*
X-135750000Y53900000D03*
D13*
X-105500000Y65425000D03*
D14*
X-105500000Y73225000D03*
D13*
X-93250000Y53900000D03*
D14*
X-93250000Y46100000D03*
D13*
X-115000000Y84350000D03*
D14*
X-115000000Y92150000D03*
D13*
X-119750000Y103100000D03*
D14*
X-119750000Y110900000D03*
D13*
X-186500000Y142100000D03*
D14*
X-186500000Y149900000D03*
D13*
X-178650000Y152500000D03*
D14*
X-170850000Y152500000D03*
D13*
X-148000000Y140100000D03*
D14*
X-148000000Y147900000D03*
D13*
X-129250000Y140100000D03*
D14*
X-129250000Y147900000D03*
D13*
X-126000000Y140100000D03*
D14*
X-126000000Y147900000D03*
D13*
X-91250000Y140100000D03*
D14*
X-91250000Y147900000D03*
D13*
X-88000000Y140100000D03*
D14*
X-88000000Y147900000D03*
D13*
X-178250000Y84300000D03*
D14*
X-178250000Y92100000D03*
D13*
X-92750000Y84300000D03*
D14*
X-92750000Y92100000D03*
D13*
X-158000000Y103100000D03*
D14*
X-158000000Y110900000D03*
D13*
X-100750000Y103100000D03*
D14*
X-100750000Y110900000D03*
D13*
X-134000000Y84350000D03*
D14*
X-134000000Y92150000D03*
D13*
X-172100000Y80000000D03*
D14*
X-179900000Y80000000D03*
D13*
X-121750000Y53900000D03*
D14*
X-121750000Y46100000D03*
D13*
X-97500000Y103100000D03*
D14*
X-97500000Y110900000D03*
D13*
X-181750000Y103100000D03*
D14*
X-181750000Y110900000D03*
D13*
X-190454687Y120750000D03*
D14*
X-198254687Y120750000D03*
D13*
X-101750000Y65425000D03*
D14*
X-101750000Y73225000D03*
D13*
X-138750000Y103100000D03*
D14*
X-138750000Y110900000D03*
D13*
X-159500000Y46100000D03*
D14*
X-159500000Y53900000D03*
D13*
X-124500000Y65425000D03*
D14*
X-124500000Y73225000D03*
D13*
X-143500000Y65425000D03*
D14*
X-143500000Y73225000D03*
D15*
X-167603437Y157353125D03*
X-167603437Y154813125D03*
X-167603437Y152273125D03*
X-167603437Y149733125D03*
X-167603437Y147193125D03*
X-167603437Y144653125D03*
X-167603437Y142113125D03*
X-167603437Y139573125D03*
X-167603437Y137033125D03*
X-167603437Y134493125D03*
X-167603437Y131953125D03*
X-167603437Y129413125D03*
X-182843437Y129413125D03*
X-182843437Y131953125D03*
X-182843437Y134493125D03*
X-182843437Y137033125D03*
X-182843437Y139573125D03*
X-182843437Y142113125D03*
X-182843437Y144653125D03*
X-182843437Y147193125D03*
X-182843437Y149733125D03*
X-182843437Y152273125D03*
X-182843437Y154813125D03*
X-182843437Y157353125D03*
D16*
X-103981487Y153526275D03*
X-113277887Y153526275D03*
D17*
X-110229887Y145423675D03*
X-105022887Y148522475D03*
D18*
X-108629687Y153526275D03*
X-108629687Y148522475D03*
D13*
X-180750000Y46100000D03*
D14*
X-180750000Y53900000D03*
D13*
X60000000Y84600000D03*
D14*
X60000000Y92400000D03*
D13*
X50750000Y65450000D03*
D14*
X50750000Y73250000D03*
D13*
X26500000Y122100000D03*
D14*
X26500000Y129900000D03*
D13*
X-30750000Y122150000D03*
D14*
X-30750000Y129950000D03*
D13*
X-11500000Y122350000D03*
D14*
X-11500000Y130150000D03*
D13*
X7500000Y122100000D03*
D14*
X7500000Y129900000D03*
D13*
X41000000Y84600000D03*
D14*
X41000000Y92400000D03*
D13*
X12500000Y65450000D03*
D14*
X12500000Y73250000D03*
D13*
X31500000Y65450000D03*
D14*
X31500000Y73250000D03*
D13*
X84000000Y139675000D03*
D14*
X84000000Y147475000D03*
D13*
X103000000Y139650000D03*
D14*
X103000000Y147450000D03*
D13*
X107000000Y136500000D03*
D14*
X114800000Y136500000D03*
D13*
X-44500000Y64850000D03*
D14*
X-44500000Y72650000D03*
D13*
X80500000Y103350000D03*
D14*
X80500000Y111150000D03*
D13*
X45500000Y122100000D03*
D14*
X45500000Y129900000D03*
D13*
X103000000Y46100000D03*
D14*
X103000000Y53900000D03*
D13*
X89850000Y89250000D03*
D14*
X97650000Y89250000D03*
D13*
X51850000Y121250000D03*
D14*
X59650000Y121250000D03*
D13*
X-27000000Y139775000D03*
D14*
X-27000000Y147575000D03*
D13*
X8500000Y139850000D03*
D14*
X8500000Y147650000D03*
D13*
X27000000Y139850000D03*
D14*
X27000000Y147650000D03*
D13*
X30500000Y139850000D03*
D14*
X30500000Y147650000D03*
D13*
X60950000Y153250000D03*
D14*
X53150000Y153250000D03*
D13*
X62750000Y46100000D03*
D14*
X62750000Y53900000D03*
D13*
X-35000000Y84550000D03*
D14*
X-35000000Y92350000D03*
D13*
X-2000000Y103350000D03*
D14*
X-2000000Y111150000D03*
D13*
X-16000000Y84600000D03*
D14*
X-16000000Y92400000D03*
D13*
X3000000Y84600000D03*
D14*
X3000000Y92400000D03*
D13*
X22000000Y84600000D03*
D14*
X22000000Y92400000D03*
D13*
X22000000Y46100000D03*
D14*
X22000000Y53900000D03*
D13*
X84250000Y46100000D03*
D14*
X84250000Y53900000D03*
D13*
X-6500000Y65450000D03*
D14*
X-6500000Y73250000D03*
D13*
X-25500000Y65450000D03*
D14*
X-25500000Y73250000D03*
D13*
X17000000Y103350000D03*
D14*
X17000000Y111150000D03*
D13*
X36000000Y103350000D03*
D14*
X36000000Y111150000D03*
D13*
X107000000Y98226563D03*
D14*
X114800000Y98226563D03*
D13*
X107000000Y60126563D03*
D14*
X114800000Y60126563D03*
D13*
X107000000Y79176563D03*
D14*
X114800000Y79176563D03*
D13*
X107000000Y117276563D03*
D14*
X114800000Y117276563D03*
D13*
X107000000Y44500000D03*
D14*
X114800000Y44500000D03*
D13*
X77000000Y65450000D03*
D14*
X77000000Y73250000D03*
D13*
X-8750000Y46100000D03*
D14*
X-8750000Y53900000D03*
D13*
X89850000Y121000000D03*
D14*
X97650000Y121000000D03*
D13*
X-21000000Y103350000D03*
D14*
X-21000000Y111150000D03*
D13*
X102500000Y65450000D03*
D14*
X102500000Y73250000D03*
D13*
X25500000Y46100000D03*
D14*
X25500000Y53900000D03*
D13*
X-40000000Y103350000D03*
D14*
X-40000000Y111150000D03*
D13*
X55000000Y103350000D03*
D14*
X55000000Y111150000D03*
D13*
X70850000Y136000000D03*
D14*
X78650000Y136000000D03*
D13*
X74500000Y103350000D03*
D14*
X74500000Y111150000D03*
D13*
X-96000000Y84350000D03*
D14*
X-96000000Y92150000D03*
D13*
X-30000000Y139775000D03*
D14*
X-30000000Y147575000D03*
D16*
X-5003364Y153526275D03*
X-14299764Y153526275D03*
D17*
X-11251764Y145423675D03*
X-6044764Y148522475D03*
D18*
X-9651564Y153526275D03*
X-9651564Y148522475D03*
D13*
X-162384375Y65150000D03*
D14*
X-162384375Y72950000D03*
D13*
X63500000Y84550000D03*
D14*
X63500000Y92350000D03*
D12*
X-194972984Y72245266D02*
X-195783890Y70785358D01*
X-189433713Y73324640D02*
X-189473161Y72745984D01*
X96730028Y99794859D02*
X95270120Y100605765D01*
X97809402Y94255588D02*
X97230746Y94295036D01*
X89742639Y100820266D02*
X88931733Y99360358D01*
X95281910Y101899640D02*
X95242462Y101320984D01*
X-173541734Y72245266D02*
X-174352640Y70785358D01*
X-168002463Y73324640D02*
X-168041911Y72745984D01*
X68311389Y91295266D02*
X67500483Y89835358D01*
X73850660Y92374640D02*
X73811212Y91795984D01*
X73073889Y148445266D02*
X72262983Y146985358D01*
X78613160Y149524640D02*
X78573712Y148945984D01*
X92123889Y148445266D02*
X91312983Y146985358D01*
X97663160Y149524640D02*
X97623712Y148945984D01*
X63548889Y110345266D02*
X62737983Y108885358D01*
X69088160Y111424640D02*
X69048712Y110845984D01*
X30211389Y53195266D02*
X29400483Y51735358D01*
X35750660Y54274640D02*
X35711212Y53695984D01*
X92123889Y72245266D02*
X91312983Y70785358D01*
X97663160Y73324640D02*
X97623712Y72745984D01*
X-31701111Y110345266D02*
X-32512017Y108885358D01*
X-26161840Y111424640D02*
X-26201288Y110845984D01*
X111173889Y129395266D02*
X110362983Y127935358D01*
X116713160Y130474640D02*
X116673712Y129895984D01*
X111173889Y91295266D02*
X110362983Y89835358D01*
X116713160Y92374640D02*
X116673712Y91795984D01*
X111173889Y72245266D02*
X110362983Y70785358D01*
X116713160Y73324640D02*
X116673712Y72745984D01*
X111173889Y110345266D02*
X110362983Y108885358D01*
X116713160Y111424640D02*
X116673712Y110845984D01*
X25448889Y110345266D02*
X24637983Y108885358D01*
X30988160Y111424640D02*
X30948712Y110845984D01*
X6398889Y110345266D02*
X5587983Y108885358D01*
X11938160Y111424640D02*
X11898712Y110845984D01*
X-36463611Y72245266D02*
X-37274517Y70785358D01*
X-30924340Y73324640D02*
X-30963788Y72745984D01*
X-17413611Y72245266D02*
X-18224517Y70785358D01*
X-11874340Y73324640D02*
X-11913788Y72745984D01*
X73073889Y53195266D02*
X72262983Y51735358D01*
X78613160Y54274640D02*
X78573712Y53695984D01*
X11161389Y91295266D02*
X10350483Y89835358D01*
X16700660Y92374640D02*
X16661212Y91795984D01*
X-7888611Y91295266D02*
X-8699517Y89835358D01*
X-2349340Y92374640D02*
X-2388788Y91795984D01*
X-3126111Y129395266D02*
X-3937017Y127935358D01*
X2413160Y130474640D02*
X2373712Y129895984D01*
X-22176111Y129395266D02*
X-22987017Y127935358D01*
X-16636840Y130474640D02*
X-16676288Y129895984D01*
X15923889Y129395266D02*
X15112983Y127935358D01*
X21463160Y130474640D02*
X21423712Y129895984D01*
X34973889Y129395266D02*
X34162983Y127935358D01*
X40513160Y130474640D02*
X40473712Y129895984D01*
X-26938611Y91295266D02*
X-27749517Y89835358D01*
X-21399340Y92374640D02*
X-21438788Y91795984D01*
X-12651111Y110345266D02*
X-13462017Y108885358D01*
X-7111840Y111424640D02*
X-7151288Y110845984D01*
X-45988611Y91295266D02*
X-46799517Y89835358D01*
X-40449340Y92374640D02*
X-40488788Y91795984D01*
X34973889Y148445266D02*
X34162983Y146985358D01*
X40513160Y149524640D02*
X40473712Y148945984D01*
X15923889Y148445266D02*
X15112983Y146985358D01*
X21463160Y149524640D02*
X21423712Y148945984D01*
X-3126111Y148445266D02*
X-3937017Y146985358D01*
X2413160Y149524640D02*
X2373712Y148945984D01*
X-22176111Y148445266D02*
X-22987017Y146985358D01*
X-16636840Y149524640D02*
X-16676288Y148945984D01*
X-41226111Y148445266D02*
X-42037017Y146985358D01*
X-35686840Y149524640D02*
X-35726288Y148945984D01*
X92123889Y53195266D02*
X91312983Y51735358D01*
X97663160Y54274640D02*
X97623712Y53695984D01*
X111173889Y148445266D02*
X110362983Y146985358D01*
X116713160Y149524640D02*
X116673712Y148945984D01*
X20686389Y72245266D02*
X19875483Y70785358D01*
X26225660Y73324640D02*
X26186212Y72745984D01*
X1636389Y72245266D02*
X825483Y70785358D01*
X7175660Y73324640D02*
X7136212Y72745984D01*
X30211389Y91295266D02*
X29400483Y89835358D01*
X35750660Y92374640D02*
X35711212Y91795984D01*
X39736389Y72245266D02*
X38925483Y70785358D01*
X45275660Y73324640D02*
X45236212Y72745984D01*
X49261389Y91295266D02*
X48450483Y89835358D01*
X54800660Y92374640D02*
X54761212Y91795984D01*
X-154491734Y72245266D02*
X-155302640Y70785358D01*
X-148952463Y73324640D02*
X-148991911Y72745984D01*
X-135441734Y72245266D02*
X-136252640Y70785358D01*
X-129902463Y73324640D02*
X-129941911Y72745984D01*
X-173541734Y53195266D02*
X-174352640Y51735358D01*
X-168002463Y54274640D02*
X-168041911Y53695984D01*
X-149729234Y110345266D02*
X-150540140Y108885358D01*
X-144189963Y111424640D02*
X-144229411Y110845984D01*
X-197354234Y129395266D02*
X-198165140Y127935358D01*
X-191814963Y130474640D02*
X-191854411Y129895984D01*
X-144966734Y91295266D02*
X-145777640Y89835358D01*
X-139427463Y92374640D02*
X-139466911Y91795984D01*
X-168779234Y110345266D02*
X-169590140Y108885358D01*
X-163239963Y111424640D02*
X-163279411Y110845984D01*
X-102104235Y129395266D02*
X-102915141Y127935358D01*
X-96564964Y130474640D02*
X-96604412Y129895984D01*
X-140204234Y129395266D02*
X-141015140Y127935358D01*
X-134664963Y130474640D02*
X-134704411Y129895984D01*
X-159254234Y129395266D02*
X-160065140Y127935358D01*
X-153714963Y130474640D02*
X-153754411Y129895984D01*
X-178304234Y129395266D02*
X-179115140Y127935358D01*
X-172764963Y130474640D02*
X-172804411Y129895984D01*
X-106866734Y91295266D02*
X-107677640Y89835358D01*
X-101327463Y92374640D02*
X-101366911Y91795984D01*
X-102104234Y148445266D02*
X-102915140Y146985358D01*
X-96564963Y149524640D02*
X-96604411Y148945984D01*
X-121154235Y148445266D02*
X-121965141Y146985358D01*
X-115614964Y149524640D02*
X-115654412Y148945984D01*
X-140204234Y148445266D02*
X-141015140Y146985358D01*
X-134664963Y149524640D02*
X-134704411Y148945984D01*
X-159254234Y148445266D02*
X-160065140Y146985358D01*
X-153714963Y149524640D02*
X-153754411Y148945984D01*
X-178304234Y148445266D02*
X-179115140Y146985358D01*
X-172764963Y149524640D02*
X-172804411Y148945984D01*
X-130679234Y110345266D02*
X-131490140Y108885358D01*
X-125139963Y111424640D02*
X-125179411Y110845984D01*
X-125916734Y91295266D02*
X-126727640Y89835358D01*
X-120377463Y92374640D02*
X-120416911Y91795984D01*
X-164016734Y91295266D02*
X-164827640Y89835358D01*
X-158477463Y92374640D02*
X-158516911Y91795984D01*
X-197354234Y148445266D02*
X-198165140Y146985358D01*
X-191814963Y149524640D02*
X-191854411Y148945984D01*
X-83054235Y148445266D02*
X-83865141Y146985358D01*
X-77514964Y149524640D02*
X-77554412Y148945984D01*
X-92579234Y110345266D02*
X-93390140Y108885358D01*
X-87039963Y111424640D02*
X-87079411Y110845984D01*
X-50751111Y110345266D02*
X-51562017Y108885358D01*
X-45211840Y111424640D02*
X-45251288Y110845984D01*
X-41226111Y129395266D02*
X-42037017Y127935358D01*
X-35686840Y130474640D02*
X-35726288Y129895984D01*
X111173889Y53195266D02*
X110362983Y51735358D01*
X116713160Y54274640D02*
X116673712Y53695984D01*
X54023889Y129395266D02*
X53212983Y127935358D01*
X59563160Y130474640D02*
X59523712Y129895984D01*
X44498889Y110345266D02*
X43687983Y108885358D01*
X50038160Y111424640D02*
X49998712Y110845984D01*
X73073889Y129395266D02*
X72262983Y127935358D01*
X78613160Y130474640D02*
X78573712Y129895984D01*
X54023889Y148445266D02*
X53212983Y146985358D01*
X59563160Y149524640D02*
X59523712Y148945984D01*
X-87816734Y53195266D02*
X-88627640Y51735358D01*
X-82277463Y54274640D02*
X-82316911Y53695984D01*
X-83054235Y129395266D02*
X-83865141Y127935358D01*
X-77514964Y130474640D02*
X-77554412Y129895984D01*
X-87816734Y91295266D02*
X-88627640Y89835358D01*
X-82277463Y92374640D02*
X-82316911Y91795984D01*
X-55513611Y72245266D02*
X-56324517Y70785358D01*
X-49974340Y73324640D02*
X-50013788Y72745984D01*
X-78291734Y72245266D02*
X-79102640Y70785358D01*
X-72752463Y73324640D02*
X-72791911Y72745984D01*
X92123889Y129395266D02*
X91312983Y127935358D01*
X97663160Y130474640D02*
X97623712Y129895984D01*
X65930139Y72245266D02*
X65119233Y70785358D01*
X71469410Y73324640D02*
X71429962Y72745984D01*
X-190210484Y91295266D02*
X-191021390Y89835358D01*
X-184671213Y92374640D02*
X-184710661Y91795984D01*
X8780139Y53195266D02*
X7969233Y51735358D01*
X14319410Y54274640D02*
X14279962Y53695984D01*
X51642639Y53195266D02*
X50831733Y51735358D01*
X57181910Y54274640D02*
X57142462Y53695984D01*
X-194972984Y53195266D02*
X-195783890Y51735358D01*
X-189433713Y54274640D02*
X-189473161Y53695984D01*
X-147347984Y53195266D02*
X-148158890Y51735358D01*
X-141808713Y54274640D02*
X-141848161Y53695984D01*
X-194972984Y91295266D02*
X-195783890Y89835358D01*
X-189433713Y92374640D02*
X-189473161Y91795984D01*
X39736389Y53195266D02*
X38925483Y51735358D01*
X45275660Y54274640D02*
X45236212Y53695984D01*
X11161389Y53195266D02*
X10350483Y51735358D01*
X16700660Y54274640D02*
X16661212Y53695984D01*
X49261389Y53195266D02*
X48450483Y51735358D01*
X54800660Y54274640D02*
X54761212Y53695984D01*
X87361389Y110345266D02*
X86550483Y108885358D01*
X92900660Y111424640D02*
X92861212Y110845984D01*
X-192591734Y110345266D02*
X-193402640Y108885358D01*
X-187052463Y111424640D02*
X-187091911Y110845984D01*
X-149729234Y53195266D02*
X-150540140Y51735358D01*
X-144189963Y54274640D02*
X-144229411Y53695984D01*
X-192591734Y53195266D02*
X-193402640Y51735358D01*
X-187052463Y54274640D02*
X-187091911Y53695984D01*
X82586777Y129395266D02*
X81775871Y127935358D01*
X88126048Y130474640D02*
X88086600Y129895984D01*
X-110392640Y45195358D02*
X-109581734Y46655266D01*
X-115931911Y44115984D02*
X-115892463Y44694640D01*
X-23320767Y45195358D02*
X-22509861Y46655266D01*
X-28860038Y44115984D02*
X-28820590Y44694640D01*
X80217639Y91295266D02*
X79406733Y89835358D01*
X85756910Y92374640D02*
X85717462Y91795984D01*
X-185447984Y72245266D02*
X-186258890Y70785358D01*
X-179908713Y73324640D02*
X-179948161Y72745984D01*
X-190354733Y147444859D02*
X-191814641Y148255765D01*
X-189275359Y141905588D02*
X-189854015Y141945036D01*
X-171304733Y147444859D02*
X-172764641Y148255765D01*
X-170225359Y141905588D02*
X-170804015Y141945036D01*
X-152254733Y147444859D02*
X-153714641Y148255765D01*
X-151175359Y141905588D02*
X-151754015Y141945036D01*
X-133204733Y147444859D02*
X-134664641Y148255765D01*
X-132125359Y141905588D02*
X-132704015Y141945036D01*
X-114154733Y147444859D02*
X-115614641Y148255765D01*
X-113075359Y141905588D02*
X-113654015Y141945036D01*
X-95104733Y147444859D02*
X-96564641Y148255765D01*
X-94025359Y141905588D02*
X-94604015Y141945036D01*
X-76054733Y147444859D02*
X-77514641Y148255765D01*
X-74975359Y141905588D02*
X-75554015Y141945036D01*
X-34226610Y147444859D02*
X-35686518Y148255765D01*
X-33147236Y141905588D02*
X-33725892Y141945036D01*
X-15176610Y147444859D02*
X-16636518Y148255765D01*
X-14097236Y141905588D02*
X-14675892Y141945036D01*
X3873390Y147444859D02*
X2413482Y148255765D01*
X4952764Y141905588D02*
X4374108Y141945036D01*
X22923390Y147444859D02*
X21463482Y148255765D01*
X24002764Y141905588D02*
X23424108Y141945036D01*
X41973390Y147444859D02*
X40513482Y148255765D01*
X43052764Y141905588D02*
X42474108Y141945036D01*
X61023390Y147444859D02*
X59563482Y148255765D01*
X62102764Y141905588D02*
X61524108Y141945036D01*
X80073390Y147444859D02*
X78613482Y148255765D01*
X81152764Y141905588D02*
X80574108Y141945036D01*
X99123390Y147444859D02*
X97663482Y148255765D01*
X100202764Y141905588D02*
X99624108Y141945036D01*
X118173390Y147444859D02*
X116713482Y148255765D01*
X119252764Y141905588D02*
X118674108Y141945036D01*
D19*
X-105750000Y114460000D03*
X-105750000Y117000000D03*
X-105750000Y119540000D03*
X-165250000Y122210000D03*
X-165250000Y124750000D03*
X-165250000Y127290000D03*
X-17250000Y118790000D03*
X-17250000Y116250000D03*
X-17250000Y113710000D03*
M02*
