G04 #@! TF.FileFunction,Paste,Top*
%FSLAX46Y46*%
G04 Gerber Fmt 4.6, Leading zero omitted, Abs format (unit mm)*
G04 Created by KiCad (PCBNEW 4.0.6) date 06/06/17 21:35:04*
%MOMM*%
%LPD*%
G01*
G04 APERTURE LIST*
%ADD10C,0.100000*%
%ADD11C,1.879600*%
G04 APERTURE END LIST*
D10*
D11*
X49530000Y157353125D03*
X49530000Y154813125D03*
X49530000Y152273125D03*
X49530000Y149733125D03*
X49530000Y147193125D03*
X49530000Y144653125D03*
X49530000Y142113125D03*
X49530000Y139573125D03*
X49530000Y137033125D03*
X49530000Y134493125D03*
X49530000Y131953125D03*
X49530000Y129413125D03*
X64770000Y129413125D03*
X64770000Y131953125D03*
X64770000Y134493125D03*
X64770000Y137033125D03*
X64770000Y139573125D03*
X64770000Y142113125D03*
X64770000Y144653125D03*
X64770000Y147193125D03*
X64770000Y149733125D03*
X64770000Y152273125D03*
X64770000Y154813125D03*
X64770000Y157353125D03*
X-167603437Y157353125D03*
X-167603437Y154813125D03*
X-167603437Y152273125D03*
X-167603437Y149733125D03*
X-167603437Y147193125D03*
X-167603437Y144653125D03*
X-167603437Y142113125D03*
X-167603437Y139573125D03*
X-167603437Y137033125D03*
X-167603437Y134493125D03*
X-167603437Y131953125D03*
X-167603437Y129413125D03*
X-182843437Y129413125D03*
X-182843437Y131953125D03*
X-182843437Y134493125D03*
X-182843437Y137033125D03*
X-182843437Y139573125D03*
X-182843437Y142113125D03*
X-182843437Y144653125D03*
X-182843437Y147193125D03*
X-182843437Y149733125D03*
X-182843437Y152273125D03*
X-182843437Y154813125D03*
X-182843437Y157353125D03*
M02*
