G04 #@! TF.FileFunction,Profile,NP*
%FSLAX46Y46*%
G04 Gerber Fmt 4.6, Leading zero omitted, Abs format (unit mm)*
G04 Created by KiCad (PCBNEW 4.0.6) date 06/06/17 21:35:04*
%MOMM*%
%LPD*%
G01*
G04 APERTURE LIST*
%ADD10C,0.100000*%
%ADD11C,0.150000*%
G04 APERTURE END LIST*
D10*
D11*
X-49750000Y99500000D02*
X-49750000Y80750000D01*
X-40000000Y71500000D02*
X-40000000Y80750000D01*
X-49750000Y80750000D02*
X-40000000Y80750000D01*
X-201000000Y151750000D02*
X-184250000Y151750000D01*
X-42000000Y41250000D02*
X121000000Y41250000D01*
X-42000000Y59750000D02*
X-42000000Y41250000D01*
X-40000000Y59750000D02*
X-42000000Y59750000D01*
X-40750000Y61500000D02*
X-40750000Y65750000D01*
X-59250000Y61500000D02*
X-40750000Y61500000D01*
X-40000000Y65750000D02*
X-40750000Y65750000D01*
X-40000000Y59750000D02*
X-40000000Y65750000D01*
X-40750000Y75000000D02*
X-59250000Y75000000D01*
X-40750000Y71500000D02*
X-40750000Y75000000D01*
X-40000000Y71500000D02*
X-40750000Y71500000D01*
X-166000000Y151750000D02*
X-114750000Y151750000D01*
X-166000000Y161250000D02*
X-166000000Y151750000D01*
X-184250000Y161250000D02*
X-166000000Y161250000D01*
X-184250000Y151750000D02*
X-184250000Y161250000D01*
X-15750000Y151750000D02*
X-45000000Y151750000D01*
X48000000Y151750000D02*
X-3500000Y151750000D01*
X66250000Y151750000D02*
X121000000Y151750000D01*
X66250000Y161250000D02*
X66250000Y151750000D01*
X48000000Y161250000D02*
X66250000Y161250000D01*
X48000000Y151750000D02*
X48000000Y161250000D01*
X-73250000Y151750000D02*
X-102500000Y151750000D01*
X-102500000Y156500000D02*
X-114750000Y156500000D01*
X-102500000Y156500000D02*
X-102500000Y151750000D01*
X-3500000Y156500000D02*
X-3500000Y151750000D01*
X-15750000Y156500000D02*
X-3500000Y156500000D01*
X-15750000Y151750000D02*
X-15750000Y156500000D01*
X-114750000Y151750000D02*
X-114750000Y156500000D01*
X-86750000Y61500000D02*
X-68500000Y61500000D01*
X-86750000Y65750000D02*
X-86750000Y61500000D01*
X-87750000Y65750000D02*
X-86750000Y65750000D01*
X-87000000Y75000000D02*
X-68500000Y75000000D01*
X-87000000Y71500000D02*
X-87000000Y75000000D01*
X-87750000Y71500000D02*
X-87000000Y71500000D01*
X-87750000Y80750000D02*
X-78000000Y80750000D01*
X-87750000Y71500000D02*
X-87750000Y80750000D01*
X-87750000Y65750000D02*
X-87750000Y56000000D01*
X-78000000Y56000000D02*
X-87750000Y56000000D01*
X121000000Y41250000D02*
X121000000Y151750000D01*
X-68500000Y75000000D02*
X-68500000Y61500000D01*
X-59250000Y75000000D02*
X-59250000Y61500000D01*
X-54500000Y99500000D02*
X-49750000Y99500000D01*
X-54500000Y113000000D02*
X-54500000Y99500000D01*
X-45000000Y113000000D02*
X-45000000Y133000000D01*
X-54500000Y113000000D02*
X-45000000Y113000000D01*
X-201000000Y41250000D02*
X-201000000Y151750000D01*
X-78000000Y41250000D02*
X-78000000Y56000000D01*
X-201000000Y41250000D02*
X-78000000Y41250000D01*
X-78000000Y80750000D02*
X-78000000Y94000000D01*
X-73250000Y118750000D02*
X-73250000Y132750000D01*
X-82750000Y118750000D02*
X-82750000Y94000000D01*
X-73250000Y118750000D02*
X-82750000Y118750000D01*
X-72500000Y151250000D02*
X-45750000Y151250000D01*
X-72500000Y135250000D02*
X-72500000Y151250000D01*
X-72500000Y135250000D02*
X-73250000Y135250000D01*
X-45750000Y135250000D02*
X-45000000Y135250000D01*
X-45750000Y135250000D02*
X-45750000Y151250000D01*
X-45750000Y133000000D02*
X-45750000Y119250000D01*
X-45000000Y133000000D02*
X-45750000Y133000000D01*
X-72500000Y119250000D02*
X-45750000Y119250000D01*
X-72500000Y132750000D02*
X-73250000Y132750000D01*
X-72500000Y119250000D02*
X-72500000Y132750000D01*
X-73250000Y135250000D02*
X-73250000Y151750000D01*
X-45000000Y135250000D02*
X-45000000Y151750000D01*
X-82750000Y94000000D02*
X-78000000Y94000000D01*
M02*
