M48
;DRILL file {KiCad 4.0.6} date 06/06/17 21:35:11
;FORMAT={-:-/ absolute / inch / decimal}
FMAT,2
INCH,TZ
T1C0.039
T2C0.067
T3C0.079
T4C0.120
T5C0.157
%
G90
G05
M72
T1
X-4.2768Y6.0443
X-4.2768Y5.8473
X-0.38Y6.0443
X-0.38Y5.8473
T2
X-7.8518Y5.6868
X-7.8518Y4.9368
X-7.758Y3.4368
X-7.758Y2.6868
X-7.758Y1.9368
X-7.6643Y4.1868
X-7.6643Y1.9368
X-7.5705Y3.4368
X-7.4518Y5.6868
X-7.4518Y4.9368
X-7.383Y2.6868
X-7.358Y3.4368
X-7.358Y2.6868
X-7.358Y1.9368
X-7.2643Y4.1868
X-7.2643Y1.9368
X-7.1705Y3.4368
X-7.1018Y5.6868
X-7.1018Y4.9368
X-6.983Y2.6868
X-6.9143Y2.6868
X-6.9143Y1.9368
X-6.8205Y1.9368
X-6.7268Y4.1868
X-6.7018Y5.6868
X-6.7018Y4.9368
X-6.5393Y3.4368
X-6.5143Y2.6868
X-6.5143Y1.9368
X-6.4205Y1.9368
X-6.3518Y5.6868
X-6.3518Y4.9368
X-6.3268Y4.1868
X-6.1643Y2.6868
X-6.1393Y3.4368
X-5.9768Y4.1868
X-5.9768Y1.9368
X-5.9518Y5.6868
X-5.9518Y4.9368
X-5.883Y1.9368
X-5.7893Y3.4368
X-5.7643Y2.6868
X-5.6018Y5.6868
X-5.6018Y4.9368
X-5.5768Y4.1868
X-5.5768Y1.9368
X-5.483Y1.9368
X-5.4143Y2.6868
X-5.3893Y3.4368
X-5.2268Y4.1868
X-5.2018Y5.6868
X-5.2018Y4.9368
X-5.0393Y3.4368
X-5.0143Y2.6868
X-4.8518Y5.6868
X-4.8518Y4.9368
X-4.8268Y4.1868
X-4.6643Y2.6868
X-4.6643Y1.9368
X-4.6393Y3.4368
X-4.4768Y4.1868
X-4.4518Y5.6868
X-4.4518Y4.9368
X-4.2893Y3.4368
X-4.2643Y2.6868
X-4.2643Y1.9368
X-4.1018Y4.9368
X-4.1018Y5.6868
X-4.0768Y4.1868
X-3.9143Y2.6868
X-3.8893Y3.4368
X-3.7268Y4.1868
X-3.7018Y4.9368
X-3.7018Y5.6868
X-3.5393Y3.4368
X-3.5393Y1.9368
X-3.5143Y2.6868
X-3.3518Y5.6868
X-3.3518Y4.9368
X-3.3268Y4.1868
X-3.1643Y2.6868
X-3.1393Y3.4368
X-3.1393Y1.9368
X-2.9518Y5.6868
X-2.9518Y4.9368
X-2.7643Y2.6868
X-2.2675Y2.6868
X-2.08Y4.1868
X-1.8925Y3.4368
X-1.8675Y2.6868
X-1.705Y5.6868
X-1.705Y4.9368
X-1.68Y4.1868
X-1.5175Y2.6868
X-1.4925Y3.4368
X-1.33Y4.1868
X-1.305Y5.6868
X-1.305Y4.9368
X-1.2362Y1.9368
X-1.1425Y3.4368
X-1.1175Y2.6868
X-0.955Y5.6868
X-0.955Y4.9368
X-0.93Y4.1868
X-0.8362Y1.9368
X-0.7675Y2.6868
X-0.7425Y3.4368
X-0.58Y4.1868
X-0.555Y5.6868
X-0.555Y4.9368
X-0.3925Y3.4368
X-0.3675Y2.6868
X-0.205Y5.6868
X-0.205Y4.9368
X-0.18Y4.1868
X-0.0175Y2.6868
X0.0075Y3.4368
X0.17Y4.1868
X0.195Y5.6868
X0.195Y4.9368
X0.2638Y1.9368
X0.3575Y3.4368
X0.3575Y1.9368
X0.3825Y2.6868
X0.545Y5.6868
X0.545Y4.9368
X0.57Y4.1868
X0.6638Y1.9368
X0.7325Y2.6868
X0.7575Y3.4368
X0.7575Y1.9368
X0.92Y4.1868
X0.945Y5.6868
X0.945Y4.9368
X1.1075Y3.4368
X1.1075Y1.9368
X1.1325Y2.6868
X1.295Y5.6868
X1.295Y4.9368
X1.32Y4.1868
X1.4825Y2.6868
X1.4825Y1.9368
X1.5075Y3.4368
X1.5075Y1.9368
X1.67Y4.1868
X1.695Y5.6868
X1.695Y4.9368
X1.8575Y3.4368
X1.8575Y1.9368
X1.8825Y2.6868
X1.8825Y1.9368
X1.9513Y1.9368
X2.045Y5.6868
X2.045Y4.9368
X2.07Y4.1868
X2.2575Y3.4368
X2.2575Y1.9368
X2.3513Y1.9368
X2.42Y4.1868
X2.445Y5.6868
X2.445Y4.9368
X2.5138Y2.6868
X2.6075Y3.4368
X2.795Y5.6868
X2.795Y4.9368
X2.795Y1.9368
X2.82Y4.1868
X2.9138Y2.6868
X3.0075Y3.4368
X3.0763Y3.4368
X3.1695Y4.9368
X3.195Y5.6868
X3.195Y4.9368
X3.195Y1.9368
X3.3575Y4.1868
X3.4513Y3.8118
X3.4763Y3.4368
X3.545Y5.6868
X3.545Y4.9368
X3.545Y2.6868
X3.545Y1.9368
X3.5695Y4.9368
X3.6508Y4.0108
X3.6508Y3.6108
X3.7575Y4.1868
X3.8513Y3.8118
X3.945Y5.6868
X3.945Y4.9368
X3.945Y2.6868
X3.945Y1.9368
X4.295Y5.6868
X4.295Y4.9368
X4.295Y4.1868
X4.295Y3.4368
X4.295Y2.6868
X4.295Y1.9368
X4.695Y5.6868
X4.695Y4.9368
X4.695Y4.1868
X4.695Y3.4368
X4.695Y2.6868
X4.695Y1.9368
T3
X-3.3465Y2.4902
X-1.6634Y2.4803
T4
X-7.653Y2.9618
X-6.713Y2.9618
X2.8063Y3.7118
X2.8995Y5.2118
X3.7463Y3.7118
X3.8395Y5.2118
X3.9258Y4.2808
X3.9258Y3.3408
T5
X-7.653Y2.3618
X-7.6518Y5.6868
X-7.6518Y5.6868
X-7.6518Y4.9368
X-7.558Y3.4368
X-7.558Y2.6868
X-7.558Y1.9368
X-7.4643Y4.1868
X-7.4643Y1.9368
X-7.3705Y3.4368
X-7.183Y2.6868
X-6.9018Y5.6868
X-6.9018Y5.6868
X-6.9018Y4.9368
X-6.7143Y2.6868
X-6.7143Y1.9368
X-6.713Y2.3618
X-6.6205Y1.9368
X-6.5268Y4.1868
X-6.3393Y3.4368
X-6.1518Y5.6868
X-6.1518Y5.6868
X-6.1518Y4.9368
X-5.9643Y2.6868
X-5.7768Y4.1868
X-5.7768Y1.9368
X-5.683Y1.9368
X-5.5893Y3.4368
X-5.4018Y5.6868
X-5.4018Y5.6868
X-5.4018Y4.9368
X-5.2143Y2.6868
X-5.0268Y4.1868
X-4.9343Y2.2618
X-4.8393Y3.4368
X-4.6518Y5.6868
X-4.6518Y4.9368
X-4.6518Y5.6868
X-4.4643Y2.6868
X-4.4643Y1.9368
X-4.2768Y4.1868
X-4.0893Y3.4368
X-3.9943Y2.2618
X-3.9018Y4.9368
X-3.9018Y5.6868
X-3.9018Y5.6868
X-3.7143Y2.6868
X-3.5268Y4.1868
X-3.3393Y3.4368
X-3.3393Y1.9368
X-3.1518Y5.6868
X-3.1518Y4.9368
X-3.1518Y5.6868
X-2.9643Y2.6868
X-2.0675Y2.6868
X-1.88Y4.1868
X-1.6925Y3.4368
X-1.5062Y2.2618
X-1.505Y5.6868
X-1.505Y5.6868
X-1.505Y4.9368
X-1.3175Y2.6868
X-1.13Y4.1868
X-1.0362Y1.9368
X-0.9425Y3.4368
X-0.755Y5.6868
X-0.755Y5.6868
X-0.755Y4.9368
X-0.5675Y2.6868
X-0.5662Y2.2618
X-0.38Y4.1868
X-0.1925Y3.4368
X-0.005Y5.6868
X-0.005Y5.6868
X-0.005Y4.9368
X0.1825Y2.6868
X0.37Y4.1868
X0.4638Y1.9368
X0.5575Y3.4368
X0.5575Y1.9368
X0.745Y5.6868
X0.745Y5.6868
X0.745Y4.9368
X0.9325Y2.6868
X1.12Y4.1868
X1.3075Y3.4368
X1.3075Y1.9368
X1.495Y5.6868
X1.495Y5.6868
X1.495Y4.9368
X1.6825Y2.6868
X1.6825Y1.9368
X1.87Y4.1868
X2.0575Y3.4368
X2.0575Y1.9368
X2.1513Y1.9368
X2.245Y5.6868
X2.245Y5.6868
X2.245Y4.9368
X2.62Y4.1868
X2.7138Y2.6868
X2.8063Y3.1118
X2.8075Y3.4368
X2.8995Y4.6118
X2.995Y5.6868
X2.995Y5.6868
X2.995Y4.9368
X2.995Y1.9368
X3.2763Y3.4368
X3.3258Y4.2808
X3.3258Y3.3408
X3.3695Y4.9368
X3.5575Y4.1868
X3.6508Y3.8108
X3.6513Y3.8118
X3.745Y5.6868
X3.745Y5.6868
X3.745Y4.9368
X3.745Y2.6868
X3.745Y1.9368
X3.7463Y3.1118
X3.8395Y4.6118
X4.495Y5.6868
X4.495Y5.6868
X4.495Y4.9368
X4.495Y4.1868
X4.495Y3.4368
X4.495Y2.6868
X4.495Y1.9368
T4
X-4.9343Y1.6234G85X-4.9343Y1.7002
G05
X-3.9943Y1.6234G85X-3.9943Y1.7002
G05
X-1.5062Y1.6234G85X-1.5062Y1.7002
G05
X-0.5662Y1.6234G85X-0.5662Y1.7002
G05
T0
M30
